G04 #@! TF.GenerationSoftware,KiCad,Pcbnew,(5.1.4)-1*
G04 #@! TF.CreationDate,2019-11-22T14:34:32-08:00*
G04 #@! TF.ProjectId,Type1 Termination Board v2 (UMPT_ TLH),54797065-3120-4546-9572-6d696e617469,rev?*
G04 #@! TF.SameCoordinates,Original*
G04 #@! TF.FileFunction,Legend,Top*
G04 #@! TF.FilePolarity,Positive*
%FSLAX46Y46*%
G04 Gerber Fmt 4.6, Leading zero omitted, Abs format (unit mm)*
G04 Created by KiCad (PCBNEW (5.1.4)-1) date 2019-11-22 14:34:32*
%MOMM*%
%LPD*%
G04 APERTURE LIST*
%ADD10C,0.050000*%
%ADD11C,0.120000*%
%ADD12C,0.150000*%
G04 APERTURE END LIST*
D10*
X175900000Y-70700000D02*
X175900000Y-71500000D01*
X12100000Y-71500000D02*
X12100000Y-12100000D01*
X175900000Y-71500000D02*
X12100000Y-71500000D01*
X175900000Y-12100000D02*
X175900000Y-70700000D01*
X12100000Y-12100000D02*
X175900000Y-12100000D01*
X157800000Y-53400000D02*
X157800000Y-70700000D01*
X157800000Y-29900000D02*
X157800000Y-47200000D01*
X157800000Y-29400000D02*
X139700000Y-29400000D01*
X139700000Y-29400000D02*
X139700000Y-12100000D01*
X157800000Y-12100000D02*
X157800000Y-29400000D01*
X139700000Y-29400000D02*
X139700000Y-12100000D01*
X157800000Y-47200000D02*
X139700000Y-47200000D01*
X139700000Y-47200000D02*
X139700000Y-29900000D01*
X157800000Y-29900000D02*
X157800000Y-47200000D01*
X139700000Y-47200000D02*
X139700000Y-29900000D01*
X139700000Y-29900000D02*
X157800000Y-29900000D01*
X157800000Y-70700000D02*
X139700000Y-70700000D01*
X139700000Y-70700000D02*
X139700000Y-53400000D01*
X157800000Y-53400000D02*
X157800000Y-70700000D01*
X139700000Y-70700000D02*
X139700000Y-53400000D01*
X139700000Y-53400000D02*
X157800000Y-53400000D01*
X157800000Y-53400000D02*
X175900000Y-53400000D01*
X175900000Y-70700000D02*
X157800000Y-70700000D01*
X157800000Y-29900000D02*
X175900000Y-29900000D01*
X175900000Y-47200000D02*
X157800000Y-47200000D01*
X157800000Y-29400000D02*
X157800000Y-12100000D01*
X175900000Y-29400000D02*
X157800000Y-29400000D01*
X121600000Y-70700000D02*
X121600000Y-53400000D01*
X139700000Y-53400000D02*
X139700000Y-70700000D01*
X121600000Y-53400000D02*
X139700000Y-53400000D01*
X139700000Y-70700000D02*
X121600000Y-70700000D01*
X157100000Y-70700000D02*
X139700000Y-70700000D01*
X139700000Y-70700000D02*
X139700000Y-53400000D01*
X139700000Y-53400000D02*
X157100000Y-53400000D01*
X139700000Y-29900000D02*
X139700000Y-47200000D01*
X121600000Y-47200000D02*
X121600000Y-29900000D01*
X139700000Y-47200000D02*
X121600000Y-47200000D01*
X121600000Y-29900000D02*
X139700000Y-29900000D01*
X140200000Y-29900000D02*
X157600000Y-29900000D01*
X157600000Y-47200000D02*
X140200000Y-47200000D01*
X139700000Y-12100000D02*
X139700000Y-29400000D01*
X121600000Y-29400000D02*
X121600000Y-12100000D01*
X139700000Y-29400000D02*
X121600000Y-29400000D01*
X157800000Y-12100000D02*
X157800000Y-29400000D01*
X157800000Y-29400000D02*
X140400000Y-29400000D01*
X121100000Y-15500000D02*
X121100000Y-29000000D01*
D11*
X104400000Y-29600000D02*
X120600000Y-29600000D01*
D10*
X103800000Y-15500000D02*
X121100000Y-15500000D01*
D11*
X104400000Y-53400000D02*
X120600000Y-53400000D01*
D10*
X121100000Y-54100000D02*
X121100000Y-71500000D01*
X103800000Y-29000000D02*
X103800000Y-15500000D01*
X103800000Y-71500000D02*
X103800000Y-54100000D01*
X103800000Y-54100000D02*
X103800000Y-29000000D01*
X121100000Y-29000000D02*
X121100000Y-54100000D01*
X103500000Y-15500000D02*
X103500000Y-29000000D01*
D11*
X86800000Y-29600000D02*
X103000000Y-29600000D01*
D10*
X86200000Y-15500000D02*
X103500000Y-15500000D01*
D11*
X86800000Y-53400000D02*
X103000000Y-53400000D01*
D10*
X103500000Y-54100000D02*
X103500000Y-71500000D01*
X86200000Y-29000000D02*
X86200000Y-15500000D01*
X86200000Y-71500000D02*
X86200000Y-54100000D01*
X86200000Y-54100000D02*
X86200000Y-29000000D01*
X103500000Y-29000000D02*
X103500000Y-54100000D01*
X68100000Y-29400000D02*
X54600000Y-29400000D01*
D11*
X54000000Y-12700000D02*
X54000000Y-28900000D01*
D10*
X68100000Y-12100000D02*
X68100000Y-29400000D01*
D11*
X30200000Y-12700000D02*
X30200000Y-28900000D01*
D10*
X29500000Y-29400000D02*
X12100000Y-29400000D01*
X54600000Y-29400000D02*
X29500000Y-29400000D01*
X85800000Y-15500000D02*
X85800000Y-29000000D01*
D11*
X69100000Y-29600000D02*
X85300000Y-29600000D01*
D10*
X68500000Y-15500000D02*
X85800000Y-15500000D01*
D11*
X69100000Y-53400000D02*
X85300000Y-53400000D01*
D10*
X85800000Y-54100000D02*
X85800000Y-71500000D01*
X68500000Y-29000000D02*
X68500000Y-15500000D01*
X68500000Y-71500000D02*
X68500000Y-54100000D01*
X68500000Y-54100000D02*
X68500000Y-29000000D01*
X85800000Y-29000000D02*
X85800000Y-54100000D01*
X68100000Y-47200000D02*
X54600000Y-47200000D01*
D11*
X54000000Y-30500000D02*
X54000000Y-46700000D01*
D10*
X68100000Y-29900000D02*
X68100000Y-47200000D01*
D11*
X30200000Y-30500000D02*
X30200000Y-46700000D01*
D10*
X29500000Y-47200000D02*
X12100000Y-47200000D01*
X54600000Y-29900000D02*
X68100000Y-29900000D01*
X12100000Y-29900000D02*
X29500000Y-29900000D01*
X29500000Y-29900000D02*
X54600000Y-29900000D01*
X54600000Y-47200000D02*
X29500000Y-47200000D01*
X68100000Y-71000000D02*
X54600000Y-71000000D01*
D11*
X54000000Y-54300000D02*
X54000000Y-70500000D01*
D10*
X68100000Y-53700000D02*
X68100000Y-71000000D01*
D11*
X30200000Y-54300000D02*
X30200000Y-70500000D01*
D10*
X29500000Y-71000000D02*
X12100000Y-71000000D01*
X54600000Y-53700000D02*
X68100000Y-53700000D01*
X12100000Y-53700000D02*
X29500000Y-53700000D01*
X29500000Y-53700000D02*
X54600000Y-53700000D01*
X54600000Y-71000000D02*
X29500000Y-71000000D01*
D11*
X144300000Y-23525000D02*
X144300000Y-18700000D01*
X153500000Y-23525000D02*
X151800000Y-23525000D01*
X146000000Y-23525000D02*
X144300000Y-23525000D01*
X144300000Y-18675000D02*
X146000000Y-18675000D01*
X153500000Y-23500000D02*
X153500000Y-23525000D01*
X144300000Y-18700000D02*
X144300000Y-18675000D01*
X151800000Y-18675000D02*
X153500000Y-18675000D01*
X153500000Y-18675000D02*
X153500000Y-23500000D01*
X144300000Y-41325000D02*
X144300000Y-36500000D01*
X153500000Y-41325000D02*
X151800000Y-41325000D01*
X146000000Y-41325000D02*
X144300000Y-41325000D01*
X144300000Y-36475000D02*
X146000000Y-36475000D01*
X153500000Y-41300000D02*
X153500000Y-41325000D01*
X144300000Y-36500000D02*
X144300000Y-36475000D01*
X151800000Y-36475000D02*
X153500000Y-36475000D01*
X153500000Y-36475000D02*
X153500000Y-41300000D01*
X144300000Y-64825000D02*
X144300000Y-60000000D01*
X153500000Y-64825000D02*
X151800000Y-64825000D01*
X146000000Y-64825000D02*
X144300000Y-64825000D01*
X144300000Y-59975000D02*
X146000000Y-59975000D01*
X153500000Y-64800000D02*
X153500000Y-64825000D01*
X144300000Y-60000000D02*
X144300000Y-59975000D01*
X151800000Y-59975000D02*
X153500000Y-59975000D01*
X153500000Y-59975000D02*
X153500000Y-64800000D01*
X171075000Y-61350000D02*
X171075000Y-63450000D01*
X170325000Y-63450000D02*
X170325000Y-64825000D01*
X162925000Y-61350000D02*
X163675000Y-61350000D01*
X170325000Y-61350000D02*
X171075000Y-61350000D01*
X170300000Y-59975000D02*
X170325000Y-59975000D01*
X170325000Y-59975000D02*
X170325000Y-61350000D01*
X163700000Y-64825000D02*
X163675000Y-64825000D01*
X163675000Y-59975000D02*
X164050000Y-59975000D01*
X171075000Y-63450000D02*
X170325000Y-63450000D01*
X169950000Y-59975000D02*
X170300000Y-59975000D01*
X170325000Y-64825000D02*
X169950000Y-64825000D01*
X163675000Y-64825000D02*
X163675000Y-63450000D01*
X163675000Y-63450000D02*
X162925000Y-63450000D01*
X163675000Y-61350000D02*
X163675000Y-59975000D01*
X162925000Y-63450000D02*
X162925000Y-61350000D01*
X164050000Y-64825000D02*
X163700000Y-64825000D01*
X171075000Y-37850000D02*
X171075000Y-39950000D01*
X170325000Y-39950000D02*
X170325000Y-41325000D01*
X162925000Y-37850000D02*
X163675000Y-37850000D01*
X170325000Y-37850000D02*
X171075000Y-37850000D01*
X170300000Y-36475000D02*
X170325000Y-36475000D01*
X170325000Y-36475000D02*
X170325000Y-37850000D01*
X163700000Y-41325000D02*
X163675000Y-41325000D01*
X163675000Y-36475000D02*
X164050000Y-36475000D01*
X171075000Y-39950000D02*
X170325000Y-39950000D01*
X169950000Y-36475000D02*
X170300000Y-36475000D01*
X170325000Y-41325000D02*
X169950000Y-41325000D01*
X163675000Y-41325000D02*
X163675000Y-39950000D01*
X163675000Y-39950000D02*
X162925000Y-39950000D01*
X163675000Y-37850000D02*
X163675000Y-36475000D01*
X162925000Y-39950000D02*
X162925000Y-37850000D01*
X164050000Y-41325000D02*
X163700000Y-41325000D01*
X171075000Y-20050000D02*
X171075000Y-22150000D01*
X170325000Y-22150000D02*
X170325000Y-23525000D01*
X162925000Y-20050000D02*
X163675000Y-20050000D01*
X170325000Y-20050000D02*
X171075000Y-20050000D01*
X170300000Y-18675000D02*
X170325000Y-18675000D01*
X170325000Y-18675000D02*
X170325000Y-20050000D01*
X163700000Y-23525000D02*
X163675000Y-23525000D01*
X163675000Y-18675000D02*
X164050000Y-18675000D01*
X171075000Y-22150000D02*
X170325000Y-22150000D01*
X169950000Y-18675000D02*
X170300000Y-18675000D01*
X170325000Y-23525000D02*
X169950000Y-23525000D01*
X163675000Y-23525000D02*
X163675000Y-22150000D01*
X163675000Y-22150000D02*
X162925000Y-22150000D01*
X163675000Y-20050000D02*
X163675000Y-18675000D01*
X162925000Y-22150000D02*
X162925000Y-20050000D01*
X164050000Y-23525000D02*
X163700000Y-23525000D01*
X134875000Y-61350000D02*
X134875000Y-63450000D01*
X134125000Y-63450000D02*
X134125000Y-64825000D01*
X126725000Y-61350000D02*
X127475000Y-61350000D01*
X134125000Y-61350000D02*
X134875000Y-61350000D01*
X134100000Y-59975000D02*
X134125000Y-59975000D01*
X134125000Y-59975000D02*
X134125000Y-61350000D01*
X127500000Y-64825000D02*
X127475000Y-64825000D01*
X127475000Y-59975000D02*
X127850000Y-59975000D01*
X134875000Y-63450000D02*
X134125000Y-63450000D01*
X133750000Y-59975000D02*
X134100000Y-59975000D01*
X134125000Y-64825000D02*
X133750000Y-64825000D01*
X127475000Y-64825000D02*
X127475000Y-63450000D01*
X127475000Y-63450000D02*
X126725000Y-63450000D01*
X127475000Y-61350000D02*
X127475000Y-59975000D01*
X126725000Y-63450000D02*
X126725000Y-61350000D01*
X127850000Y-64825000D02*
X127500000Y-64825000D01*
X126425000Y-39250000D02*
X126425000Y-37150000D01*
X127175000Y-37150000D02*
X127175000Y-35775000D01*
X134575000Y-39250000D02*
X133825000Y-39250000D01*
X127175000Y-39250000D02*
X126425000Y-39250000D01*
X127200000Y-40625000D02*
X127175000Y-40625000D01*
X127175000Y-40625000D02*
X127175000Y-39250000D01*
X133800000Y-35775000D02*
X133825000Y-35775000D01*
X133825000Y-40625000D02*
X133450000Y-40625000D01*
X126425000Y-37150000D02*
X127175000Y-37150000D01*
X127550000Y-40625000D02*
X127200000Y-40625000D01*
X127175000Y-35775000D02*
X127550000Y-35775000D01*
X133825000Y-35775000D02*
X133825000Y-37150000D01*
X133825000Y-37150000D02*
X134575000Y-37150000D01*
X133825000Y-39250000D02*
X133825000Y-40625000D01*
X134575000Y-37150000D02*
X134575000Y-39250000D01*
X133450000Y-35775000D02*
X133800000Y-35775000D01*
X126425000Y-21450000D02*
X126425000Y-19350000D01*
X127175000Y-19350000D02*
X127175000Y-17975000D01*
X134575000Y-21450000D02*
X133825000Y-21450000D01*
X127175000Y-21450000D02*
X126425000Y-21450000D01*
X127200000Y-22825000D02*
X127175000Y-22825000D01*
X127175000Y-22825000D02*
X127175000Y-21450000D01*
X133800000Y-17975000D02*
X133825000Y-17975000D01*
X133825000Y-22825000D02*
X133450000Y-22825000D01*
X126425000Y-19350000D02*
X127175000Y-19350000D01*
X127550000Y-22825000D02*
X127200000Y-22825000D01*
X127175000Y-17975000D02*
X127550000Y-17975000D01*
X133825000Y-17975000D02*
X133825000Y-19350000D01*
X133825000Y-19350000D02*
X134575000Y-19350000D01*
X133825000Y-21450000D02*
X133825000Y-22825000D01*
X134575000Y-19350000D02*
X134575000Y-21450000D01*
X133450000Y-17975000D02*
X133800000Y-17975000D01*
X112650000Y-58425000D02*
X114750000Y-58425000D01*
X114750000Y-59175000D02*
X116125000Y-59175000D01*
X112650000Y-66575000D02*
X112650000Y-65825000D01*
X112650000Y-59175000D02*
X112650000Y-58425000D01*
X111275000Y-59200000D02*
X111275000Y-59175000D01*
X111275000Y-59175000D02*
X112650000Y-59175000D01*
X116125000Y-65800000D02*
X116125000Y-65825000D01*
X111275000Y-65825000D02*
X111275000Y-65450000D01*
X114750000Y-58425000D02*
X114750000Y-59175000D01*
X111275000Y-59550000D02*
X111275000Y-59200000D01*
X116125000Y-59175000D02*
X116125000Y-59550000D01*
X116125000Y-65825000D02*
X114750000Y-65825000D01*
X114750000Y-65825000D02*
X114750000Y-66575000D01*
X112650000Y-65825000D02*
X111275000Y-65825000D01*
X114750000Y-66575000D02*
X112650000Y-66575000D01*
X116125000Y-65450000D02*
X116125000Y-65800000D01*
X95050000Y-58425000D02*
X97150000Y-58425000D01*
X97150000Y-59175000D02*
X98525000Y-59175000D01*
X95050000Y-66575000D02*
X95050000Y-65825000D01*
X95050000Y-59175000D02*
X95050000Y-58425000D01*
X93675000Y-59200000D02*
X93675000Y-59175000D01*
X93675000Y-59175000D02*
X95050000Y-59175000D01*
X98525000Y-65800000D02*
X98525000Y-65825000D01*
X93675000Y-65825000D02*
X93675000Y-65450000D01*
X97150000Y-58425000D02*
X97150000Y-59175000D01*
X93675000Y-59550000D02*
X93675000Y-59200000D01*
X98525000Y-59175000D02*
X98525000Y-59550000D01*
X98525000Y-65825000D02*
X97150000Y-65825000D01*
X97150000Y-65825000D02*
X97150000Y-66575000D01*
X95050000Y-65825000D02*
X93675000Y-65825000D01*
X97150000Y-66575000D02*
X95050000Y-66575000D01*
X98525000Y-65450000D02*
X98525000Y-65800000D01*
X25175000Y-20950000D02*
X25175000Y-23050000D01*
X24425000Y-23050000D02*
X24425000Y-24425000D01*
X17025000Y-20950000D02*
X17775000Y-20950000D01*
X24425000Y-20950000D02*
X25175000Y-20950000D01*
X24400000Y-19575000D02*
X24425000Y-19575000D01*
X24425000Y-19575000D02*
X24425000Y-20950000D01*
X17800000Y-24425000D02*
X17775000Y-24425000D01*
X17775000Y-19575000D02*
X18150000Y-19575000D01*
X25175000Y-23050000D02*
X24425000Y-23050000D01*
X24050000Y-19575000D02*
X24400000Y-19575000D01*
X24425000Y-24425000D02*
X24050000Y-24425000D01*
X17775000Y-24425000D02*
X17775000Y-23050000D01*
X17775000Y-23050000D02*
X17025000Y-23050000D01*
X17775000Y-20950000D02*
X17775000Y-19575000D01*
X17025000Y-23050000D02*
X17025000Y-20950000D01*
X18150000Y-24425000D02*
X17800000Y-24425000D01*
X77350000Y-58425000D02*
X79450000Y-58425000D01*
X79450000Y-59175000D02*
X80825000Y-59175000D01*
X77350000Y-66575000D02*
X77350000Y-65825000D01*
X77350000Y-59175000D02*
X77350000Y-58425000D01*
X75975000Y-59200000D02*
X75975000Y-59175000D01*
X75975000Y-59175000D02*
X77350000Y-59175000D01*
X80825000Y-65800000D02*
X80825000Y-65825000D01*
X75975000Y-65825000D02*
X75975000Y-65450000D01*
X79450000Y-58425000D02*
X79450000Y-59175000D01*
X75975000Y-59550000D02*
X75975000Y-59200000D01*
X80825000Y-59175000D02*
X80825000Y-59550000D01*
X80825000Y-65825000D02*
X79450000Y-65825000D01*
X79450000Y-65825000D02*
X79450000Y-66575000D01*
X77350000Y-65825000D02*
X75975000Y-65825000D01*
X79450000Y-66575000D02*
X77350000Y-66575000D01*
X80825000Y-65450000D02*
X80825000Y-65800000D01*
X25175000Y-38750000D02*
X25175000Y-40850000D01*
X24425000Y-40850000D02*
X24425000Y-42225000D01*
X17025000Y-38750000D02*
X17775000Y-38750000D01*
X24425000Y-38750000D02*
X25175000Y-38750000D01*
X24400000Y-37375000D02*
X24425000Y-37375000D01*
X24425000Y-37375000D02*
X24425000Y-38750000D01*
X17800000Y-42225000D02*
X17775000Y-42225000D01*
X17775000Y-37375000D02*
X18150000Y-37375000D01*
X25175000Y-40850000D02*
X24425000Y-40850000D01*
X24050000Y-37375000D02*
X24400000Y-37375000D01*
X24425000Y-42225000D02*
X24050000Y-42225000D01*
X17775000Y-42225000D02*
X17775000Y-40850000D01*
X17775000Y-40850000D02*
X17025000Y-40850000D01*
X17775000Y-38750000D02*
X17775000Y-37375000D01*
X17025000Y-40850000D02*
X17025000Y-38750000D01*
X18150000Y-42225000D02*
X17800000Y-42225000D01*
X25175000Y-62550000D02*
X25175000Y-64650000D01*
X24425000Y-64650000D02*
X24425000Y-66025000D01*
X17025000Y-62550000D02*
X17775000Y-62550000D01*
X24425000Y-62550000D02*
X25175000Y-62550000D01*
X24400000Y-61175000D02*
X24425000Y-61175000D01*
X24425000Y-61175000D02*
X24425000Y-62550000D01*
X17800000Y-66025000D02*
X17775000Y-66025000D01*
X17775000Y-61175000D02*
X18150000Y-61175000D01*
X25175000Y-64650000D02*
X24425000Y-64650000D01*
X24050000Y-61175000D02*
X24400000Y-61175000D01*
X24425000Y-66025000D02*
X24050000Y-66025000D01*
X17775000Y-66025000D02*
X17775000Y-64650000D01*
X17775000Y-64650000D02*
X17025000Y-64650000D01*
X17775000Y-62550000D02*
X17775000Y-61175000D01*
X17025000Y-64650000D02*
X17025000Y-62550000D01*
X18150000Y-66025000D02*
X17800000Y-66025000D01*
X104575000Y-19000000D02*
X104575000Y-16150000D01*
X104575000Y-16150000D02*
X104575000Y-16125000D01*
X104575000Y-16125000D02*
X120225000Y-16125000D01*
X120225000Y-16125000D02*
X120225000Y-23325000D01*
X120225000Y-23325000D02*
X119475000Y-24075000D01*
X104600000Y-24075000D02*
X104575000Y-24075000D01*
X104575000Y-24075000D02*
X104575000Y-19000000D01*
X104575000Y-24075000D02*
X108150000Y-24075000D01*
X119475000Y-24075000D02*
X116650000Y-24075000D01*
X117200000Y-33875000D02*
X120050000Y-33875000D01*
X120050000Y-33875000D02*
X120075000Y-33875000D01*
X120075000Y-33875000D02*
X120075000Y-49525000D01*
X120075000Y-49525000D02*
X112875000Y-49525000D01*
X112875000Y-49525000D02*
X112125000Y-48775000D01*
X112125000Y-33900000D02*
X112125000Y-33875000D01*
X112125000Y-33875000D02*
X117200000Y-33875000D01*
X112125000Y-33875000D02*
X112125000Y-37450000D01*
X112125000Y-48775000D02*
X112125000Y-45950000D01*
X86975000Y-19000000D02*
X86975000Y-16150000D01*
X86975000Y-16150000D02*
X86975000Y-16125000D01*
X86975000Y-16125000D02*
X102625000Y-16125000D01*
X102625000Y-16125000D02*
X102625000Y-23325000D01*
X102625000Y-23325000D02*
X101875000Y-24075000D01*
X87000000Y-24075000D02*
X86975000Y-24075000D01*
X86975000Y-24075000D02*
X86975000Y-19000000D01*
X86975000Y-24075000D02*
X90550000Y-24075000D01*
X101875000Y-24075000D02*
X99050000Y-24075000D01*
X99600000Y-33875000D02*
X102450000Y-33875000D01*
X102450000Y-33875000D02*
X102475000Y-33875000D01*
X102475000Y-33875000D02*
X102475000Y-49525000D01*
X102475000Y-49525000D02*
X95275000Y-49525000D01*
X95275000Y-49525000D02*
X94525000Y-48775000D01*
X94525000Y-33900000D02*
X94525000Y-33875000D01*
X94525000Y-33875000D02*
X99600000Y-33875000D01*
X94525000Y-33875000D02*
X94525000Y-37450000D01*
X94525000Y-48775000D02*
X94525000Y-45950000D01*
X64700000Y-12975000D02*
X67550000Y-12975000D01*
X67550000Y-12975000D02*
X67575000Y-12975000D01*
X67575000Y-12975000D02*
X67575000Y-28625000D01*
X67575000Y-28625000D02*
X60375000Y-28625000D01*
X60375000Y-28625000D02*
X59625000Y-27875000D01*
X59625000Y-13000000D02*
X59625000Y-12975000D01*
X59625000Y-12975000D02*
X64700000Y-12975000D01*
X59625000Y-12975000D02*
X59625000Y-16550000D01*
X59625000Y-27875000D02*
X59625000Y-25050000D01*
X49725000Y-25500000D02*
X49725000Y-28350000D01*
X49725000Y-28350000D02*
X49725000Y-28375000D01*
X49725000Y-28375000D02*
X34075000Y-28375000D01*
X34075000Y-28375000D02*
X34075000Y-21175000D01*
X34075000Y-21175000D02*
X34825000Y-20425000D01*
X49700000Y-20425000D02*
X49725000Y-20425000D01*
X49725000Y-20425000D02*
X49725000Y-25500000D01*
X49725000Y-20425000D02*
X46150000Y-20425000D01*
X34825000Y-20425000D02*
X37650000Y-20425000D01*
X69275000Y-19000000D02*
X69275000Y-16150000D01*
X69275000Y-16150000D02*
X69275000Y-16125000D01*
X69275000Y-16125000D02*
X84925000Y-16125000D01*
X84925000Y-16125000D02*
X84925000Y-23325000D01*
X84925000Y-23325000D02*
X84175000Y-24075000D01*
X69300000Y-24075000D02*
X69275000Y-24075000D01*
X69275000Y-24075000D02*
X69275000Y-19000000D01*
X69275000Y-24075000D02*
X72850000Y-24075000D01*
X84175000Y-24075000D02*
X81350000Y-24075000D01*
X81900000Y-33875000D02*
X84750000Y-33875000D01*
X84750000Y-33875000D02*
X84775000Y-33875000D01*
X84775000Y-33875000D02*
X84775000Y-49525000D01*
X84775000Y-49525000D02*
X77575000Y-49525000D01*
X77575000Y-49525000D02*
X76825000Y-48775000D01*
X76825000Y-33900000D02*
X76825000Y-33875000D01*
X76825000Y-33875000D02*
X81900000Y-33875000D01*
X76825000Y-33875000D02*
X76825000Y-37450000D01*
X76825000Y-48775000D02*
X76825000Y-45950000D01*
X64700000Y-30775000D02*
X67550000Y-30775000D01*
X67550000Y-30775000D02*
X67575000Y-30775000D01*
X67575000Y-30775000D02*
X67575000Y-46425000D01*
X67575000Y-46425000D02*
X60375000Y-46425000D01*
X60375000Y-46425000D02*
X59625000Y-45675000D01*
X59625000Y-30800000D02*
X59625000Y-30775000D01*
X59625000Y-30775000D02*
X64700000Y-30775000D01*
X59625000Y-30775000D02*
X59625000Y-34350000D01*
X59625000Y-45675000D02*
X59625000Y-42850000D01*
X49725000Y-43300000D02*
X49725000Y-46150000D01*
X49725000Y-46150000D02*
X49725000Y-46175000D01*
X49725000Y-46175000D02*
X34075000Y-46175000D01*
X34075000Y-46175000D02*
X34075000Y-38975000D01*
X34075000Y-38975000D02*
X34825000Y-38225000D01*
X49700000Y-38225000D02*
X49725000Y-38225000D01*
X49725000Y-38225000D02*
X49725000Y-43300000D01*
X49725000Y-38225000D02*
X46150000Y-38225000D01*
X34825000Y-38225000D02*
X37650000Y-38225000D01*
X64700000Y-54575000D02*
X67550000Y-54575000D01*
X67550000Y-54575000D02*
X67575000Y-54575000D01*
X67575000Y-54575000D02*
X67575000Y-70225000D01*
X67575000Y-70225000D02*
X60375000Y-70225000D01*
X60375000Y-70225000D02*
X59625000Y-69475000D01*
X59625000Y-54600000D02*
X59625000Y-54575000D01*
X59625000Y-54575000D02*
X64700000Y-54575000D01*
X59625000Y-54575000D02*
X59625000Y-58150000D01*
X59625000Y-69475000D02*
X59625000Y-66650000D01*
X49725000Y-67100000D02*
X49725000Y-69950000D01*
X49725000Y-69950000D02*
X49725000Y-69975000D01*
X49725000Y-69975000D02*
X34075000Y-69975000D01*
X34075000Y-69975000D02*
X34075000Y-62775000D01*
X34075000Y-62775000D02*
X34825000Y-62025000D01*
X49700000Y-62025000D02*
X49725000Y-62025000D01*
X49725000Y-62025000D02*
X49725000Y-67100000D01*
X49725000Y-62025000D02*
X46150000Y-62025000D01*
X34825000Y-62025000D02*
X37650000Y-62025000D01*
D12*
X141385714Y-21404761D02*
X141528571Y-21452380D01*
X141766666Y-21452380D01*
X141861904Y-21404761D01*
X141909523Y-21357142D01*
X141957142Y-21261904D01*
X141957142Y-21166666D01*
X141909523Y-21071428D01*
X141861904Y-21023809D01*
X141766666Y-20976190D01*
X141576190Y-20928571D01*
X141480952Y-20880952D01*
X141433333Y-20833333D01*
X141385714Y-20738095D01*
X141385714Y-20642857D01*
X141433333Y-20547619D01*
X141480952Y-20500000D01*
X141576190Y-20452380D01*
X141814285Y-20452380D01*
X141957142Y-20500000D01*
X142861904Y-21452380D02*
X142385714Y-21452380D01*
X142385714Y-20452380D01*
X143195238Y-21452380D02*
X143195238Y-20452380D01*
X143195238Y-20928571D02*
X143766666Y-20928571D01*
X143766666Y-21452380D02*
X143766666Y-20452380D01*
X141385714Y-39204761D02*
X141528571Y-39252380D01*
X141766666Y-39252380D01*
X141861904Y-39204761D01*
X141909523Y-39157142D01*
X141957142Y-39061904D01*
X141957142Y-38966666D01*
X141909523Y-38871428D01*
X141861904Y-38823809D01*
X141766666Y-38776190D01*
X141576190Y-38728571D01*
X141480952Y-38680952D01*
X141433333Y-38633333D01*
X141385714Y-38538095D01*
X141385714Y-38442857D01*
X141433333Y-38347619D01*
X141480952Y-38300000D01*
X141576190Y-38252380D01*
X141814285Y-38252380D01*
X141957142Y-38300000D01*
X142861904Y-39252380D02*
X142385714Y-39252380D01*
X142385714Y-38252380D01*
X143195238Y-39252380D02*
X143195238Y-38252380D01*
X143195238Y-38728571D02*
X143766666Y-38728571D01*
X143766666Y-39252380D02*
X143766666Y-38252380D01*
X141385714Y-62704761D02*
X141528571Y-62752380D01*
X141766666Y-62752380D01*
X141861904Y-62704761D01*
X141909523Y-62657142D01*
X141957142Y-62561904D01*
X141957142Y-62466666D01*
X141909523Y-62371428D01*
X141861904Y-62323809D01*
X141766666Y-62276190D01*
X141576190Y-62228571D01*
X141480952Y-62180952D01*
X141433333Y-62133333D01*
X141385714Y-62038095D01*
X141385714Y-61942857D01*
X141433333Y-61847619D01*
X141480952Y-61800000D01*
X141576190Y-61752380D01*
X141814285Y-61752380D01*
X141957142Y-61800000D01*
X142861904Y-62752380D02*
X142385714Y-62752380D01*
X142385714Y-61752380D01*
X143195238Y-62752380D02*
X143195238Y-61752380D01*
X143195238Y-62228571D02*
X143766666Y-62228571D01*
X143766666Y-62752380D02*
X143766666Y-61752380D01*
X160085714Y-61752380D02*
X160657142Y-61752380D01*
X160371428Y-62752380D02*
X160371428Y-61752380D01*
X161466666Y-62752380D02*
X160990476Y-62752380D01*
X160990476Y-61752380D01*
X161800000Y-62752380D02*
X161800000Y-61752380D01*
X161800000Y-62228571D02*
X162371428Y-62228571D01*
X162371428Y-62752380D02*
X162371428Y-61752380D01*
X160085714Y-38252380D02*
X160657142Y-38252380D01*
X160371428Y-39252380D02*
X160371428Y-38252380D01*
X161466666Y-39252380D02*
X160990476Y-39252380D01*
X160990476Y-38252380D01*
X161800000Y-39252380D02*
X161800000Y-38252380D01*
X161800000Y-38728571D02*
X162371428Y-38728571D01*
X162371428Y-39252380D02*
X162371428Y-38252380D01*
X160085714Y-20452380D02*
X160657142Y-20452380D01*
X160371428Y-21452380D02*
X160371428Y-20452380D01*
X161466666Y-21452380D02*
X160990476Y-21452380D01*
X160990476Y-20452380D01*
X161800000Y-21452380D02*
X161800000Y-20452380D01*
X161800000Y-20928571D02*
X162371428Y-20928571D01*
X162371428Y-21452380D02*
X162371428Y-20452380D01*
X123885714Y-61752380D02*
X124457142Y-61752380D01*
X124171428Y-62752380D02*
X124171428Y-61752380D01*
X125266666Y-62752380D02*
X124790476Y-62752380D01*
X124790476Y-61752380D01*
X125600000Y-62752380D02*
X125600000Y-61752380D01*
X125600000Y-62228571D02*
X126171428Y-62228571D01*
X126171428Y-62752380D02*
X126171428Y-61752380D01*
X123585714Y-37652380D02*
X124157142Y-37652380D01*
X123871428Y-38652380D02*
X123871428Y-37652380D01*
X124966666Y-38652380D02*
X124490476Y-38652380D01*
X124490476Y-37652380D01*
X125300000Y-38652380D02*
X125300000Y-37652380D01*
X125300000Y-38128571D02*
X125871428Y-38128571D01*
X125871428Y-38652380D02*
X125871428Y-37652380D01*
X123685714Y-19752380D02*
X124257142Y-19752380D01*
X123971428Y-20752380D02*
X123971428Y-19752380D01*
X125066666Y-20752380D02*
X124590476Y-20752380D01*
X124590476Y-19752380D01*
X125400000Y-20752380D02*
X125400000Y-19752380D01*
X125400000Y-20228571D02*
X125971428Y-20228571D01*
X125971428Y-20752380D02*
X125971428Y-19752380D01*
X113252380Y-69414285D02*
X113252380Y-68842857D01*
X114252380Y-69128571D02*
X113252380Y-69128571D01*
X114252380Y-68033333D02*
X114252380Y-68509523D01*
X113252380Y-68509523D01*
X114252380Y-67700000D02*
X113252380Y-67700000D01*
X113728571Y-67700000D02*
X113728571Y-67128571D01*
X114252380Y-67128571D02*
X113252380Y-67128571D01*
X95452380Y-69414285D02*
X95452380Y-68842857D01*
X96452380Y-69128571D02*
X95452380Y-69128571D01*
X96452380Y-68033333D02*
X96452380Y-68509523D01*
X95452380Y-68509523D01*
X96452380Y-67700000D02*
X95452380Y-67700000D01*
X95928571Y-67700000D02*
X95928571Y-67128571D01*
X96452380Y-67128571D02*
X95452380Y-67128571D01*
X14285714Y-21452380D02*
X14857142Y-21452380D01*
X14571428Y-22452380D02*
X14571428Y-21452380D01*
X15666666Y-22452380D02*
X15190476Y-22452380D01*
X15190476Y-21452380D01*
X16000000Y-22452380D02*
X16000000Y-21452380D01*
X16000000Y-21928571D02*
X16571428Y-21928571D01*
X16571428Y-22452380D02*
X16571428Y-21452380D01*
X77752380Y-69414285D02*
X77752380Y-68842857D01*
X78752380Y-69128571D02*
X77752380Y-69128571D01*
X78752380Y-68033333D02*
X78752380Y-68509523D01*
X77752380Y-68509523D01*
X78752380Y-67700000D02*
X77752380Y-67700000D01*
X78228571Y-67700000D02*
X78228571Y-67128571D01*
X78752380Y-67128571D02*
X77752380Y-67128571D01*
X14285714Y-39252380D02*
X14857142Y-39252380D01*
X14571428Y-40252380D02*
X14571428Y-39252380D01*
X15666666Y-40252380D02*
X15190476Y-40252380D01*
X15190476Y-39252380D01*
X16000000Y-40252380D02*
X16000000Y-39252380D01*
X16000000Y-39728571D02*
X16571428Y-39728571D01*
X16571428Y-40252380D02*
X16571428Y-39252380D01*
X14285714Y-63052380D02*
X14857142Y-63052380D01*
X14571428Y-64052380D02*
X14571428Y-63052380D01*
X15666666Y-64052380D02*
X15190476Y-64052380D01*
X15190476Y-63052380D01*
X16000000Y-64052380D02*
X16000000Y-63052380D01*
X16000000Y-63528571D02*
X16571428Y-63528571D01*
X16571428Y-64052380D02*
X16571428Y-63052380D01*
X110761904Y-26152380D02*
X110761904Y-26961904D01*
X110809523Y-27057142D01*
X110857142Y-27104761D01*
X110952380Y-27152380D01*
X111142857Y-27152380D01*
X111238095Y-27104761D01*
X111285714Y-27057142D01*
X111333333Y-26961904D01*
X111333333Y-26152380D01*
X111809523Y-27152380D02*
X111809523Y-26152380D01*
X112142857Y-26866666D01*
X112476190Y-26152380D01*
X112476190Y-27152380D01*
X112952380Y-27152380D02*
X112952380Y-26152380D01*
X113333333Y-26152380D01*
X113428571Y-26200000D01*
X113476190Y-26247619D01*
X113523809Y-26342857D01*
X113523809Y-26485714D01*
X113476190Y-26580952D01*
X113428571Y-26628571D01*
X113333333Y-26676190D01*
X112952380Y-26676190D01*
X113809523Y-26152380D02*
X114380952Y-26152380D01*
X114095238Y-27152380D02*
X114095238Y-26152380D01*
X110652380Y-33838095D02*
X111461904Y-33838095D01*
X111557142Y-33790476D01*
X111604761Y-33742857D01*
X111652380Y-33647619D01*
X111652380Y-33457142D01*
X111604761Y-33361904D01*
X111557142Y-33314285D01*
X111461904Y-33266666D01*
X110652380Y-33266666D01*
X111652380Y-32790476D02*
X110652380Y-32790476D01*
X111366666Y-32457142D01*
X110652380Y-32123809D01*
X111652380Y-32123809D01*
X111652380Y-31647619D02*
X110652380Y-31647619D01*
X110652380Y-31266666D01*
X110700000Y-31171428D01*
X110747619Y-31123809D01*
X110842857Y-31076190D01*
X110985714Y-31076190D01*
X111080952Y-31123809D01*
X111128571Y-31171428D01*
X111176190Y-31266666D01*
X111176190Y-31647619D01*
X110652380Y-30790476D02*
X110652380Y-30219047D01*
X111652380Y-30504761D02*
X110652380Y-30504761D01*
X93161904Y-26152380D02*
X93161904Y-26961904D01*
X93209523Y-27057142D01*
X93257142Y-27104761D01*
X93352380Y-27152380D01*
X93542857Y-27152380D01*
X93638095Y-27104761D01*
X93685714Y-27057142D01*
X93733333Y-26961904D01*
X93733333Y-26152380D01*
X94209523Y-27152380D02*
X94209523Y-26152380D01*
X94542857Y-26866666D01*
X94876190Y-26152380D01*
X94876190Y-27152380D01*
X95352380Y-27152380D02*
X95352380Y-26152380D01*
X95733333Y-26152380D01*
X95828571Y-26200000D01*
X95876190Y-26247619D01*
X95923809Y-26342857D01*
X95923809Y-26485714D01*
X95876190Y-26580952D01*
X95828571Y-26628571D01*
X95733333Y-26676190D01*
X95352380Y-26676190D01*
X96209523Y-26152380D02*
X96780952Y-26152380D01*
X96495238Y-27152380D02*
X96495238Y-26152380D01*
X93052380Y-33838095D02*
X93861904Y-33838095D01*
X93957142Y-33790476D01*
X94004761Y-33742857D01*
X94052380Y-33647619D01*
X94052380Y-33457142D01*
X94004761Y-33361904D01*
X93957142Y-33314285D01*
X93861904Y-33266666D01*
X93052380Y-33266666D01*
X94052380Y-32790476D02*
X93052380Y-32790476D01*
X93766666Y-32457142D01*
X93052380Y-32123809D01*
X94052380Y-32123809D01*
X94052380Y-31647619D02*
X93052380Y-31647619D01*
X93052380Y-31266666D01*
X93100000Y-31171428D01*
X93147619Y-31123809D01*
X93242857Y-31076190D01*
X93385714Y-31076190D01*
X93480952Y-31123809D01*
X93528571Y-31171428D01*
X93576190Y-31266666D01*
X93576190Y-31647619D01*
X93052380Y-30790476D02*
X93052380Y-30219047D01*
X94052380Y-30504761D02*
X93052380Y-30504761D01*
X56452380Y-22638095D02*
X57261904Y-22638095D01*
X57357142Y-22590476D01*
X57404761Y-22542857D01*
X57452380Y-22447619D01*
X57452380Y-22257142D01*
X57404761Y-22161904D01*
X57357142Y-22114285D01*
X57261904Y-22066666D01*
X56452380Y-22066666D01*
X57452380Y-21590476D02*
X56452380Y-21590476D01*
X57166666Y-21257142D01*
X56452380Y-20923809D01*
X57452380Y-20923809D01*
X57452380Y-20447619D02*
X56452380Y-20447619D01*
X56452380Y-20066666D01*
X56500000Y-19971428D01*
X56547619Y-19923809D01*
X56642857Y-19876190D01*
X56785714Y-19876190D01*
X56880952Y-19923809D01*
X56928571Y-19971428D01*
X56976190Y-20066666D01*
X56976190Y-20447619D01*
X56452380Y-19590476D02*
X56452380Y-19019047D01*
X57452380Y-19304761D02*
X56452380Y-19304761D01*
X49761904Y-18952380D02*
X49761904Y-19761904D01*
X49809523Y-19857142D01*
X49857142Y-19904761D01*
X49952380Y-19952380D01*
X50142857Y-19952380D01*
X50238095Y-19904761D01*
X50285714Y-19857142D01*
X50333333Y-19761904D01*
X50333333Y-18952380D01*
X50809523Y-19952380D02*
X50809523Y-18952380D01*
X51142857Y-19666666D01*
X51476190Y-18952380D01*
X51476190Y-19952380D01*
X51952380Y-19952380D02*
X51952380Y-18952380D01*
X52333333Y-18952380D01*
X52428571Y-19000000D01*
X52476190Y-19047619D01*
X52523809Y-19142857D01*
X52523809Y-19285714D01*
X52476190Y-19380952D01*
X52428571Y-19428571D01*
X52333333Y-19476190D01*
X51952380Y-19476190D01*
X52809523Y-18952380D02*
X53380952Y-18952380D01*
X53095238Y-19952380D02*
X53095238Y-18952380D01*
X75461904Y-26152380D02*
X75461904Y-26961904D01*
X75509523Y-27057142D01*
X75557142Y-27104761D01*
X75652380Y-27152380D01*
X75842857Y-27152380D01*
X75938095Y-27104761D01*
X75985714Y-27057142D01*
X76033333Y-26961904D01*
X76033333Y-26152380D01*
X76509523Y-27152380D02*
X76509523Y-26152380D01*
X76842857Y-26866666D01*
X77176190Y-26152380D01*
X77176190Y-27152380D01*
X77652380Y-27152380D02*
X77652380Y-26152380D01*
X78033333Y-26152380D01*
X78128571Y-26200000D01*
X78176190Y-26247619D01*
X78223809Y-26342857D01*
X78223809Y-26485714D01*
X78176190Y-26580952D01*
X78128571Y-26628571D01*
X78033333Y-26676190D01*
X77652380Y-26676190D01*
X78509523Y-26152380D02*
X79080952Y-26152380D01*
X78795238Y-27152380D02*
X78795238Y-26152380D01*
X75352380Y-33838095D02*
X76161904Y-33838095D01*
X76257142Y-33790476D01*
X76304761Y-33742857D01*
X76352380Y-33647619D01*
X76352380Y-33457142D01*
X76304761Y-33361904D01*
X76257142Y-33314285D01*
X76161904Y-33266666D01*
X75352380Y-33266666D01*
X76352380Y-32790476D02*
X75352380Y-32790476D01*
X76066666Y-32457142D01*
X75352380Y-32123809D01*
X76352380Y-32123809D01*
X76352380Y-31647619D02*
X75352380Y-31647619D01*
X75352380Y-31266666D01*
X75400000Y-31171428D01*
X75447619Y-31123809D01*
X75542857Y-31076190D01*
X75685714Y-31076190D01*
X75780952Y-31123809D01*
X75828571Y-31171428D01*
X75876190Y-31266666D01*
X75876190Y-31647619D01*
X75352380Y-30790476D02*
X75352380Y-30219047D01*
X76352380Y-30504761D02*
X75352380Y-30504761D01*
X56452380Y-40438095D02*
X57261904Y-40438095D01*
X57357142Y-40390476D01*
X57404761Y-40342857D01*
X57452380Y-40247619D01*
X57452380Y-40057142D01*
X57404761Y-39961904D01*
X57357142Y-39914285D01*
X57261904Y-39866666D01*
X56452380Y-39866666D01*
X57452380Y-39390476D02*
X56452380Y-39390476D01*
X57166666Y-39057142D01*
X56452380Y-38723809D01*
X57452380Y-38723809D01*
X57452380Y-38247619D02*
X56452380Y-38247619D01*
X56452380Y-37866666D01*
X56500000Y-37771428D01*
X56547619Y-37723809D01*
X56642857Y-37676190D01*
X56785714Y-37676190D01*
X56880952Y-37723809D01*
X56928571Y-37771428D01*
X56976190Y-37866666D01*
X56976190Y-38247619D01*
X56452380Y-37390476D02*
X56452380Y-36819047D01*
X57452380Y-37104761D02*
X56452380Y-37104761D01*
X49761904Y-36752380D02*
X49761904Y-37561904D01*
X49809523Y-37657142D01*
X49857142Y-37704761D01*
X49952380Y-37752380D01*
X50142857Y-37752380D01*
X50238095Y-37704761D01*
X50285714Y-37657142D01*
X50333333Y-37561904D01*
X50333333Y-36752380D01*
X50809523Y-37752380D02*
X50809523Y-36752380D01*
X51142857Y-37466666D01*
X51476190Y-36752380D01*
X51476190Y-37752380D01*
X51952380Y-37752380D02*
X51952380Y-36752380D01*
X52333333Y-36752380D01*
X52428571Y-36800000D01*
X52476190Y-36847619D01*
X52523809Y-36942857D01*
X52523809Y-37085714D01*
X52476190Y-37180952D01*
X52428571Y-37228571D01*
X52333333Y-37276190D01*
X51952380Y-37276190D01*
X52809523Y-36752380D02*
X53380952Y-36752380D01*
X53095238Y-37752380D02*
X53095238Y-36752380D01*
X56452380Y-64238095D02*
X57261904Y-64238095D01*
X57357142Y-64190476D01*
X57404761Y-64142857D01*
X57452380Y-64047619D01*
X57452380Y-63857142D01*
X57404761Y-63761904D01*
X57357142Y-63714285D01*
X57261904Y-63666666D01*
X56452380Y-63666666D01*
X57452380Y-63190476D02*
X56452380Y-63190476D01*
X57166666Y-62857142D01*
X56452380Y-62523809D01*
X57452380Y-62523809D01*
X57452380Y-62047619D02*
X56452380Y-62047619D01*
X56452380Y-61666666D01*
X56500000Y-61571428D01*
X56547619Y-61523809D01*
X56642857Y-61476190D01*
X56785714Y-61476190D01*
X56880952Y-61523809D01*
X56928571Y-61571428D01*
X56976190Y-61666666D01*
X56976190Y-62047619D01*
X56452380Y-61190476D02*
X56452380Y-60619047D01*
X57452380Y-60904761D02*
X56452380Y-60904761D01*
X49761904Y-60552380D02*
X49761904Y-61361904D01*
X49809523Y-61457142D01*
X49857142Y-61504761D01*
X49952380Y-61552380D01*
X50142857Y-61552380D01*
X50238095Y-61504761D01*
X50285714Y-61457142D01*
X50333333Y-61361904D01*
X50333333Y-60552380D01*
X50809523Y-61552380D02*
X50809523Y-60552380D01*
X51142857Y-61266666D01*
X51476190Y-60552380D01*
X51476190Y-61552380D01*
X51952380Y-61552380D02*
X51952380Y-60552380D01*
X52333333Y-60552380D01*
X52428571Y-60600000D01*
X52476190Y-60647619D01*
X52523809Y-60742857D01*
X52523809Y-60885714D01*
X52476190Y-60980952D01*
X52428571Y-61028571D01*
X52333333Y-61076190D01*
X51952380Y-61076190D01*
X52809523Y-60552380D02*
X53380952Y-60552380D01*
X53095238Y-61552380D02*
X53095238Y-60552380D01*
M02*
