G04 #@! TF.GenerationSoftware,KiCad,Pcbnew,(5.1.4)-1*
G04 #@! TF.CreationDate,2019-11-22T14:34:32-08:00*
G04 #@! TF.ProjectId,Type1 Termination Board v2 (UMPT_ TLH),54797065-3120-4546-9572-6d696e617469,rev?*
G04 #@! TF.SameCoordinates,Original*
G04 #@! TF.FileFunction,Paste,Bot*
G04 #@! TF.FilePolarity,Positive*
%FSLAX46Y46*%
G04 Gerber Fmt 4.6, Leading zero omitted, Abs format (unit mm)*
G04 Created by KiCad (PCBNEW (5.1.4)-1) date 2019-11-22 14:34:32*
%MOMM*%
%LPD*%
G04 APERTURE LIST*
%ADD10C,0.050000*%
%ADD11O,0.600000X1.200000*%
%ADD12O,1.200000X0.600000*%
G04 APERTURE END LIST*
D10*
X175900000Y-70700000D02*
X175900000Y-71500000D01*
X12100000Y-71500000D02*
X12100000Y-12100000D01*
X175900000Y-71500000D02*
X12100000Y-71500000D01*
X175900000Y-12100000D02*
X175900000Y-70700000D01*
X12100000Y-12100000D02*
X175900000Y-12100000D01*
D11*
X143800000Y-19100000D03*
X145000000Y-19100000D03*
X146200000Y-19100000D03*
X147400000Y-19100000D03*
X148600000Y-19100000D03*
X149800000Y-19100000D03*
X151000000Y-19100000D03*
X152200000Y-19100000D03*
X153400000Y-19100000D03*
X154600000Y-19100000D03*
X143200000Y-23100000D03*
X144400000Y-23100000D03*
X145600000Y-23100000D03*
X146800000Y-23100000D03*
X148000000Y-23100000D03*
X149200000Y-23100000D03*
X150400000Y-23100000D03*
X151600000Y-23100000D03*
X152800000Y-23100000D03*
X154000000Y-23100000D03*
X143800000Y-36900000D03*
X145000000Y-36900000D03*
X146200000Y-36900000D03*
X147400000Y-36900000D03*
X148600000Y-36900000D03*
X149800000Y-36900000D03*
X151000000Y-36900000D03*
X152200000Y-36900000D03*
X153400000Y-36900000D03*
X154600000Y-36900000D03*
X143200000Y-40900000D03*
X144400000Y-40900000D03*
X145600000Y-40900000D03*
X146800000Y-40900000D03*
X148000000Y-40900000D03*
X149200000Y-40900000D03*
X150400000Y-40900000D03*
X151600000Y-40900000D03*
X152800000Y-40900000D03*
X154000000Y-40900000D03*
X143800000Y-60400000D03*
X145000000Y-60400000D03*
X146200000Y-60400000D03*
X147400000Y-60400000D03*
X148600000Y-60400000D03*
X149800000Y-60400000D03*
X151000000Y-60400000D03*
X152200000Y-60400000D03*
X153400000Y-60400000D03*
X154600000Y-60400000D03*
X143200000Y-64400000D03*
X144400000Y-64400000D03*
X145600000Y-64400000D03*
X146800000Y-64400000D03*
X148000000Y-64400000D03*
X149200000Y-64400000D03*
X150400000Y-64400000D03*
X151600000Y-64400000D03*
X152800000Y-64400000D03*
X154000000Y-64400000D03*
X161900000Y-60400000D03*
X163100000Y-60400000D03*
X164300000Y-60400000D03*
X165500000Y-60400000D03*
X166700000Y-60400000D03*
X167900000Y-60400000D03*
X169100000Y-60400000D03*
X170300000Y-60400000D03*
X171500000Y-60400000D03*
X172700000Y-60400000D03*
X161300000Y-64400000D03*
X162500000Y-64400000D03*
X163700000Y-64400000D03*
X164900000Y-64400000D03*
X166100000Y-64400000D03*
X167300000Y-64400000D03*
X168500000Y-64400000D03*
X169700000Y-64400000D03*
X170900000Y-64400000D03*
X172100000Y-64400000D03*
X161900000Y-36900000D03*
X163100000Y-36900000D03*
X164300000Y-36900000D03*
X165500000Y-36900000D03*
X166700000Y-36900000D03*
X167900000Y-36900000D03*
X169100000Y-36900000D03*
X170300000Y-36900000D03*
X171500000Y-36900000D03*
X172700000Y-36900000D03*
X161300000Y-40900000D03*
X162500000Y-40900000D03*
X163700000Y-40900000D03*
X164900000Y-40900000D03*
X166100000Y-40900000D03*
X167300000Y-40900000D03*
X168500000Y-40900000D03*
X169700000Y-40900000D03*
X170900000Y-40900000D03*
X172100000Y-40900000D03*
X161900000Y-19100000D03*
X163100000Y-19100000D03*
X164300000Y-19100000D03*
X165500000Y-19100000D03*
X166700000Y-19100000D03*
X167900000Y-19100000D03*
X169100000Y-19100000D03*
X170300000Y-19100000D03*
X171500000Y-19100000D03*
X172700000Y-19100000D03*
X161300000Y-23100000D03*
X162500000Y-23100000D03*
X163700000Y-23100000D03*
X164900000Y-23100000D03*
X166100000Y-23100000D03*
X167300000Y-23100000D03*
X168500000Y-23100000D03*
X169700000Y-23100000D03*
X170900000Y-23100000D03*
X172100000Y-23100000D03*
X125700000Y-60400000D03*
X126900000Y-60400000D03*
X128100000Y-60400000D03*
X129300000Y-60400000D03*
X130500000Y-60400000D03*
X131700000Y-60400000D03*
X132900000Y-60400000D03*
X134100000Y-60400000D03*
X135300000Y-60400000D03*
X136500000Y-60400000D03*
X125100000Y-64400000D03*
X126300000Y-64400000D03*
X127500000Y-64400000D03*
X128700000Y-64400000D03*
X129900000Y-64400000D03*
X131100000Y-64400000D03*
X132300000Y-64400000D03*
X133500000Y-64400000D03*
X134700000Y-64400000D03*
X135900000Y-64400000D03*
X135600000Y-40200000D03*
X134400000Y-40200000D03*
X133200000Y-40200000D03*
X132000000Y-40200000D03*
X130800000Y-40200000D03*
X129600000Y-40200000D03*
X128400000Y-40200000D03*
X127200000Y-40200000D03*
X126000000Y-40200000D03*
X124800000Y-40200000D03*
X136200000Y-36200000D03*
X135000000Y-36200000D03*
X133800000Y-36200000D03*
X132600000Y-36200000D03*
X131400000Y-36200000D03*
X130200000Y-36200000D03*
X129000000Y-36200000D03*
X127800000Y-36200000D03*
X126600000Y-36200000D03*
X125400000Y-36200000D03*
X135600000Y-22400000D03*
X134400000Y-22400000D03*
X133200000Y-22400000D03*
X132000000Y-22400000D03*
X130800000Y-22400000D03*
X129600000Y-22400000D03*
X128400000Y-22400000D03*
X127200000Y-22400000D03*
X126000000Y-22400000D03*
X124800000Y-22400000D03*
X136200000Y-18400000D03*
X135000000Y-18400000D03*
X133800000Y-18400000D03*
X132600000Y-18400000D03*
X131400000Y-18400000D03*
X130200000Y-18400000D03*
X129000000Y-18400000D03*
X127800000Y-18400000D03*
X126600000Y-18400000D03*
X125400000Y-18400000D03*
X109400000Y-20100000D03*
X111400000Y-20100000D03*
X113400000Y-20100000D03*
X115400000Y-20100000D03*
D12*
X111700000Y-56800000D03*
X111700000Y-58000000D03*
X111700000Y-59200000D03*
X111700000Y-60400000D03*
X111700000Y-61600000D03*
X111700000Y-62800000D03*
X111700000Y-64000000D03*
X111700000Y-65200000D03*
X111700000Y-66400000D03*
X111700000Y-67600000D03*
X115700000Y-57400000D03*
X115700000Y-58600000D03*
X115700000Y-59800000D03*
X115700000Y-61000000D03*
X115700000Y-62200000D03*
X115700000Y-63400000D03*
X115700000Y-64600000D03*
X115700000Y-65800000D03*
X115700000Y-67000000D03*
X115700000Y-68200000D03*
D11*
X91800000Y-20100000D03*
X93800000Y-20100000D03*
X95800000Y-20100000D03*
X97800000Y-20100000D03*
D12*
X94100000Y-56800000D03*
X94100000Y-58000000D03*
X94100000Y-59200000D03*
X94100000Y-60400000D03*
X94100000Y-61600000D03*
X94100000Y-62800000D03*
X94100000Y-64000000D03*
X94100000Y-65200000D03*
X94100000Y-66400000D03*
X94100000Y-67600000D03*
X98100000Y-57400000D03*
X98100000Y-58600000D03*
X98100000Y-59800000D03*
X98100000Y-61000000D03*
X98100000Y-62200000D03*
X98100000Y-63400000D03*
X98100000Y-64600000D03*
X98100000Y-65800000D03*
X98100000Y-67000000D03*
X98100000Y-68200000D03*
X63600000Y-17800000D03*
X63600000Y-19800000D03*
X63600000Y-21800000D03*
X63600000Y-23800000D03*
D11*
X26800000Y-20000000D03*
X25600000Y-20000000D03*
X24400000Y-20000000D03*
X23200000Y-20000000D03*
X22000000Y-20000000D03*
X20800000Y-20000000D03*
X19600000Y-20000000D03*
X18400000Y-20000000D03*
X17200000Y-20000000D03*
X16000000Y-20000000D03*
X26200000Y-24000000D03*
X25000000Y-24000000D03*
X23800000Y-24000000D03*
X22600000Y-24000000D03*
X21400000Y-24000000D03*
X20200000Y-24000000D03*
X19000000Y-24000000D03*
X17800000Y-24000000D03*
X16600000Y-24000000D03*
X15400000Y-24000000D03*
X74100000Y-20100000D03*
X76100000Y-20100000D03*
X78100000Y-20100000D03*
X80100000Y-20100000D03*
D12*
X76400000Y-56800000D03*
X76400000Y-58000000D03*
X76400000Y-59200000D03*
X76400000Y-60400000D03*
X76400000Y-61600000D03*
X76400000Y-62800000D03*
X76400000Y-64000000D03*
X76400000Y-65200000D03*
X76400000Y-66400000D03*
X76400000Y-67600000D03*
X80400000Y-57400000D03*
X80400000Y-58600000D03*
X80400000Y-59800000D03*
X80400000Y-61000000D03*
X80400000Y-62200000D03*
X80400000Y-63400000D03*
X80400000Y-64600000D03*
X80400000Y-65800000D03*
X80400000Y-67000000D03*
X80400000Y-68200000D03*
X63600000Y-35600000D03*
X63600000Y-37600000D03*
X63600000Y-39600000D03*
X63600000Y-41600000D03*
D11*
X26800000Y-37800000D03*
X25600000Y-37800000D03*
X24400000Y-37800000D03*
X23200000Y-37800000D03*
X22000000Y-37800000D03*
X20800000Y-37800000D03*
X19600000Y-37800000D03*
X18400000Y-37800000D03*
X17200000Y-37800000D03*
X16000000Y-37800000D03*
X26200000Y-41800000D03*
X25000000Y-41800000D03*
X23800000Y-41800000D03*
X22600000Y-41800000D03*
X21400000Y-41800000D03*
X20200000Y-41800000D03*
X19000000Y-41800000D03*
X17800000Y-41800000D03*
X16600000Y-41800000D03*
X15400000Y-41800000D03*
D12*
X63600000Y-59400000D03*
X63600000Y-61400000D03*
X63600000Y-63400000D03*
X63600000Y-65400000D03*
D11*
X26800000Y-61600000D03*
X25600000Y-61600000D03*
X24400000Y-61600000D03*
X23200000Y-61600000D03*
X22000000Y-61600000D03*
X20800000Y-61600000D03*
X19600000Y-61600000D03*
X18400000Y-61600000D03*
X17200000Y-61600000D03*
X16000000Y-61600000D03*
X26200000Y-65600000D03*
X25000000Y-65600000D03*
X23800000Y-65600000D03*
X22600000Y-65600000D03*
X21400000Y-65600000D03*
X20200000Y-65600000D03*
X19000000Y-65600000D03*
X17800000Y-65600000D03*
X16600000Y-65600000D03*
X15400000Y-65600000D03*
M02*
