G04 #@! TF.GenerationSoftware,KiCad,Pcbnew,(5.1.4)-1*
G04 #@! TF.CreationDate,2019-11-22T14:34:32-08:00*
G04 #@! TF.ProjectId,Type1 Termination Board v2 (UMPT_ TLH),54797065-3120-4546-9572-6d696e617469,rev?*
G04 #@! TF.SameCoordinates,Original*
G04 #@! TF.FileFunction,Paste,Top*
G04 #@! TF.FilePolarity,Positive*
%FSLAX46Y46*%
G04 Gerber Fmt 4.6, Leading zero omitted, Abs format (unit mm)*
G04 Created by KiCad (PCBNEW (5.1.4)-1) date 2019-11-22 14:34:32*
%MOMM*%
%LPD*%
G04 APERTURE LIST*
%ADD10C,0.050000*%
%ADD11O,0.300000X1.200000*%
%ADD12O,0.300000X0.600000*%
%ADD13O,0.600000X0.300000*%
%ADD14O,1.200000X0.300000*%
%ADD15O,1.250000X3.500000*%
%ADD16O,3.500000X1.250000*%
G04 APERTURE END LIST*
D10*
X175900000Y-70700000D02*
X175900000Y-71500000D01*
X12100000Y-71500000D02*
X12100000Y-12100000D01*
X175900000Y-71500000D02*
X12100000Y-71500000D01*
X175900000Y-12100000D02*
X175900000Y-70700000D01*
X12100000Y-12100000D02*
X175900000Y-12100000D01*
D11*
X147150000Y-18575000D03*
X149650000Y-18575000D03*
X148150000Y-18575000D03*
X148150000Y-23625000D03*
X151150000Y-18575000D03*
X147650000Y-23625000D03*
X148650000Y-23625000D03*
X149150000Y-23625000D03*
X146650000Y-18575000D03*
X151150000Y-23625000D03*
X150650000Y-23625000D03*
X148650000Y-18575000D03*
X147150000Y-23625000D03*
X150650000Y-18575000D03*
X146650000Y-23625000D03*
X150150000Y-18575000D03*
X149150000Y-18575000D03*
X147650000Y-18575000D03*
X149650000Y-23625000D03*
X150150000Y-23625000D03*
X147150000Y-36375000D03*
X149650000Y-36375000D03*
X148150000Y-36375000D03*
X148150000Y-41425000D03*
X151150000Y-36375000D03*
X147650000Y-41425000D03*
X148650000Y-41425000D03*
X149150000Y-41425000D03*
X146650000Y-36375000D03*
X151150000Y-41425000D03*
X150650000Y-41425000D03*
X148650000Y-36375000D03*
X147150000Y-41425000D03*
X150650000Y-36375000D03*
X146650000Y-41425000D03*
X150150000Y-36375000D03*
X149150000Y-36375000D03*
X147650000Y-36375000D03*
X149650000Y-41425000D03*
X150150000Y-41425000D03*
X147150000Y-59875000D03*
X149650000Y-59875000D03*
X148150000Y-59875000D03*
X148150000Y-64925000D03*
X151150000Y-59875000D03*
X147650000Y-64925000D03*
X148650000Y-64925000D03*
X149150000Y-64925000D03*
X146650000Y-59875000D03*
X151150000Y-64925000D03*
X150650000Y-64925000D03*
X148650000Y-59875000D03*
X147150000Y-64925000D03*
X150650000Y-59875000D03*
X146650000Y-64925000D03*
X150150000Y-59875000D03*
X149150000Y-59875000D03*
X147650000Y-59875000D03*
X149650000Y-64925000D03*
X150150000Y-64925000D03*
D12*
X166250000Y-63100000D03*
X167750000Y-63100000D03*
X168250000Y-63100000D03*
X165750000Y-63100000D03*
D11*
X166250000Y-64950000D03*
X165250000Y-64950000D03*
D12*
X169250000Y-63100000D03*
D11*
X168250000Y-59850000D03*
X168750000Y-59850000D03*
X166750000Y-64950000D03*
D12*
X165250000Y-63100000D03*
X168750000Y-63100000D03*
X164750000Y-63100000D03*
D11*
X167750000Y-59850000D03*
X166250000Y-59850000D03*
D12*
X167250000Y-63100000D03*
D11*
X167250000Y-59850000D03*
D12*
X169250000Y-61700000D03*
D11*
X166750000Y-59850000D03*
X167250000Y-64950000D03*
X164750000Y-59850000D03*
X165750000Y-64950000D03*
X165750000Y-59850000D03*
D12*
X168750000Y-61700000D03*
D11*
X165250000Y-59850000D03*
X169250000Y-64950000D03*
X168750000Y-64950000D03*
X168250000Y-64950000D03*
X167750000Y-64950000D03*
D12*
X166750000Y-63100000D03*
D11*
X164750000Y-64950000D03*
D12*
X165750000Y-61700000D03*
D11*
X169250000Y-59850000D03*
D12*
X166250000Y-61700000D03*
X167250000Y-61700000D03*
X164750000Y-61700000D03*
X166750000Y-61700000D03*
X167750000Y-61700000D03*
X168250000Y-61700000D03*
X165250000Y-61700000D03*
X166250000Y-39600000D03*
X167750000Y-39600000D03*
X168250000Y-39600000D03*
X165750000Y-39600000D03*
D11*
X166250000Y-41450000D03*
X165250000Y-41450000D03*
D12*
X169250000Y-39600000D03*
D11*
X168250000Y-36350000D03*
X168750000Y-36350000D03*
X166750000Y-41450000D03*
D12*
X165250000Y-39600000D03*
X168750000Y-39600000D03*
X164750000Y-39600000D03*
D11*
X167750000Y-36350000D03*
X166250000Y-36350000D03*
D12*
X167250000Y-39600000D03*
D11*
X167250000Y-36350000D03*
D12*
X169250000Y-38200000D03*
D11*
X166750000Y-36350000D03*
X167250000Y-41450000D03*
X164750000Y-36350000D03*
X165750000Y-41450000D03*
X165750000Y-36350000D03*
D12*
X168750000Y-38200000D03*
D11*
X165250000Y-36350000D03*
X169250000Y-41450000D03*
X168750000Y-41450000D03*
X168250000Y-41450000D03*
X167750000Y-41450000D03*
D12*
X166750000Y-39600000D03*
D11*
X164750000Y-41450000D03*
D12*
X165750000Y-38200000D03*
D11*
X169250000Y-36350000D03*
D12*
X166250000Y-38200000D03*
X167250000Y-38200000D03*
X164750000Y-38200000D03*
X166750000Y-38200000D03*
X167750000Y-38200000D03*
X168250000Y-38200000D03*
X165250000Y-38200000D03*
X166250000Y-21800000D03*
X167750000Y-21800000D03*
X168250000Y-21800000D03*
X165750000Y-21800000D03*
D11*
X166250000Y-23650000D03*
X165250000Y-23650000D03*
D12*
X169250000Y-21800000D03*
D11*
X168250000Y-18550000D03*
X168750000Y-18550000D03*
X166750000Y-23650000D03*
D12*
X165250000Y-21800000D03*
X168750000Y-21800000D03*
X164750000Y-21800000D03*
D11*
X167750000Y-18550000D03*
X166250000Y-18550000D03*
D12*
X167250000Y-21800000D03*
D11*
X167250000Y-18550000D03*
D12*
X169250000Y-20400000D03*
D11*
X166750000Y-18550000D03*
X167250000Y-23650000D03*
X164750000Y-18550000D03*
X165750000Y-23650000D03*
X165750000Y-18550000D03*
D12*
X168750000Y-20400000D03*
D11*
X165250000Y-18550000D03*
X169250000Y-23650000D03*
X168750000Y-23650000D03*
X168250000Y-23650000D03*
X167750000Y-23650000D03*
D12*
X166750000Y-21800000D03*
D11*
X164750000Y-23650000D03*
D12*
X165750000Y-20400000D03*
D11*
X169250000Y-18550000D03*
D12*
X166250000Y-20400000D03*
X167250000Y-20400000D03*
X164750000Y-20400000D03*
X166750000Y-20400000D03*
X167750000Y-20400000D03*
X168250000Y-20400000D03*
X165250000Y-20400000D03*
X130050000Y-63100000D03*
X131550000Y-63100000D03*
X132050000Y-63100000D03*
X129550000Y-63100000D03*
D11*
X130050000Y-64950000D03*
X129050000Y-64950000D03*
D12*
X133050000Y-63100000D03*
D11*
X132050000Y-59850000D03*
X132550000Y-59850000D03*
X130550000Y-64950000D03*
D12*
X129050000Y-63100000D03*
X132550000Y-63100000D03*
X128550000Y-63100000D03*
D11*
X131550000Y-59850000D03*
X130050000Y-59850000D03*
D12*
X131050000Y-63100000D03*
D11*
X131050000Y-59850000D03*
D12*
X133050000Y-61700000D03*
D11*
X130550000Y-59850000D03*
X131050000Y-64950000D03*
X128550000Y-59850000D03*
X129550000Y-64950000D03*
X129550000Y-59850000D03*
D12*
X132550000Y-61700000D03*
D11*
X129050000Y-59850000D03*
X133050000Y-64950000D03*
X132550000Y-64950000D03*
X132050000Y-64950000D03*
X131550000Y-64950000D03*
D12*
X130550000Y-63100000D03*
D11*
X128550000Y-64950000D03*
D12*
X129550000Y-61700000D03*
D11*
X133050000Y-59850000D03*
D12*
X130050000Y-61700000D03*
X131050000Y-61700000D03*
X128550000Y-61700000D03*
X130550000Y-61700000D03*
X131550000Y-61700000D03*
X132050000Y-61700000D03*
X129050000Y-61700000D03*
X131250000Y-37500000D03*
X129750000Y-37500000D03*
X129250000Y-37500000D03*
X131750000Y-37500000D03*
D11*
X131250000Y-35650000D03*
X132250000Y-35650000D03*
D12*
X128250000Y-37500000D03*
D11*
X129250000Y-40750000D03*
X128750000Y-40750000D03*
X130750000Y-35650000D03*
D12*
X132250000Y-37500000D03*
X128750000Y-37500000D03*
X132750000Y-37500000D03*
D11*
X129750000Y-40750000D03*
X131250000Y-40750000D03*
D12*
X130250000Y-37500000D03*
D11*
X130250000Y-40750000D03*
D12*
X128250000Y-38900000D03*
D11*
X130750000Y-40750000D03*
X130250000Y-35650000D03*
X132750000Y-40750000D03*
X131750000Y-35650000D03*
X131750000Y-40750000D03*
D12*
X128750000Y-38900000D03*
D11*
X132250000Y-40750000D03*
X128250000Y-35650000D03*
X128750000Y-35650000D03*
X129250000Y-35650000D03*
X129750000Y-35650000D03*
D12*
X130750000Y-37500000D03*
D11*
X132750000Y-35650000D03*
D12*
X131750000Y-38900000D03*
D11*
X128250000Y-40750000D03*
D12*
X131250000Y-38900000D03*
X130250000Y-38900000D03*
X132750000Y-38900000D03*
X130750000Y-38900000D03*
X129750000Y-38900000D03*
X129250000Y-38900000D03*
X132250000Y-38900000D03*
X131250000Y-19700000D03*
X129750000Y-19700000D03*
X129250000Y-19700000D03*
X131750000Y-19700000D03*
D11*
X131250000Y-17850000D03*
X132250000Y-17850000D03*
D12*
X128250000Y-19700000D03*
D11*
X129250000Y-22950000D03*
X128750000Y-22950000D03*
X130750000Y-17850000D03*
D12*
X132250000Y-19700000D03*
X128750000Y-19700000D03*
X132750000Y-19700000D03*
D11*
X129750000Y-22950000D03*
X131250000Y-22950000D03*
D12*
X130250000Y-19700000D03*
D11*
X130250000Y-22950000D03*
D12*
X128250000Y-21100000D03*
D11*
X130750000Y-22950000D03*
X130250000Y-17850000D03*
X132750000Y-22950000D03*
X131750000Y-17850000D03*
X131750000Y-22950000D03*
D12*
X128750000Y-21100000D03*
D11*
X132250000Y-22950000D03*
X128250000Y-17850000D03*
X128750000Y-17850000D03*
X129250000Y-17850000D03*
X129750000Y-17850000D03*
D12*
X130750000Y-19700000D03*
D11*
X132750000Y-17850000D03*
D12*
X131750000Y-21100000D03*
D11*
X128250000Y-22950000D03*
D12*
X131250000Y-21100000D03*
X130250000Y-21100000D03*
X132750000Y-21100000D03*
X130750000Y-21100000D03*
X129750000Y-21100000D03*
X129250000Y-21100000D03*
X132250000Y-21100000D03*
D13*
X114400000Y-63250000D03*
X114400000Y-61750000D03*
X114400000Y-61250000D03*
X114400000Y-63750000D03*
D14*
X116250000Y-63250000D03*
X116250000Y-64250000D03*
D13*
X114400000Y-60250000D03*
D14*
X111150000Y-61250000D03*
X111150000Y-60750000D03*
X116250000Y-62750000D03*
D13*
X114400000Y-64250000D03*
X114400000Y-60750000D03*
X114400000Y-64750000D03*
D14*
X111150000Y-61750000D03*
X111150000Y-63250000D03*
D13*
X114400000Y-62250000D03*
D14*
X111150000Y-62250000D03*
D13*
X113000000Y-60250000D03*
D14*
X111150000Y-62750000D03*
X116250000Y-62250000D03*
X111150000Y-64750000D03*
X116250000Y-63750000D03*
X111150000Y-63750000D03*
D13*
X113000000Y-60750000D03*
D14*
X111150000Y-64250000D03*
X116250000Y-60250000D03*
X116250000Y-60750000D03*
X116250000Y-61250000D03*
X116250000Y-61750000D03*
D13*
X114400000Y-62750000D03*
D14*
X116250000Y-64750000D03*
D13*
X113000000Y-63750000D03*
D14*
X111150000Y-60250000D03*
D13*
X113000000Y-63250000D03*
X113000000Y-62250000D03*
X113000000Y-64750000D03*
X113000000Y-62750000D03*
X113000000Y-61750000D03*
X113000000Y-61250000D03*
X113000000Y-64250000D03*
X96800000Y-63250000D03*
X96800000Y-61750000D03*
X96800000Y-61250000D03*
X96800000Y-63750000D03*
D14*
X98650000Y-63250000D03*
X98650000Y-64250000D03*
D13*
X96800000Y-60250000D03*
D14*
X93550000Y-61250000D03*
X93550000Y-60750000D03*
X98650000Y-62750000D03*
D13*
X96800000Y-64250000D03*
X96800000Y-60750000D03*
X96800000Y-64750000D03*
D14*
X93550000Y-61750000D03*
X93550000Y-63250000D03*
D13*
X96800000Y-62250000D03*
D14*
X93550000Y-62250000D03*
D13*
X95400000Y-60250000D03*
D14*
X93550000Y-62750000D03*
X98650000Y-62250000D03*
X93550000Y-64750000D03*
X98650000Y-63750000D03*
X93550000Y-63750000D03*
D13*
X95400000Y-60750000D03*
D14*
X93550000Y-64250000D03*
X98650000Y-60250000D03*
X98650000Y-60750000D03*
X98650000Y-61250000D03*
X98650000Y-61750000D03*
D13*
X96800000Y-62750000D03*
D14*
X98650000Y-64750000D03*
D13*
X95400000Y-63750000D03*
D14*
X93550000Y-60250000D03*
D13*
X95400000Y-63250000D03*
X95400000Y-62250000D03*
X95400000Y-64750000D03*
X95400000Y-62750000D03*
X95400000Y-61750000D03*
X95400000Y-61250000D03*
X95400000Y-64250000D03*
D12*
X20350000Y-22700000D03*
X21850000Y-22700000D03*
X22350000Y-22700000D03*
X19850000Y-22700000D03*
D11*
X20350000Y-24550000D03*
X19350000Y-24550000D03*
D12*
X23350000Y-22700000D03*
D11*
X22350000Y-19450000D03*
X22850000Y-19450000D03*
X20850000Y-24550000D03*
D12*
X19350000Y-22700000D03*
X22850000Y-22700000D03*
X18850000Y-22700000D03*
D11*
X21850000Y-19450000D03*
X20350000Y-19450000D03*
D12*
X21350000Y-22700000D03*
D11*
X21350000Y-19450000D03*
D12*
X23350000Y-21300000D03*
D11*
X20850000Y-19450000D03*
X21350000Y-24550000D03*
X18850000Y-19450000D03*
X19850000Y-24550000D03*
X19850000Y-19450000D03*
D12*
X22850000Y-21300000D03*
D11*
X19350000Y-19450000D03*
X23350000Y-24550000D03*
X22850000Y-24550000D03*
X22350000Y-24550000D03*
X21850000Y-24550000D03*
D12*
X20850000Y-22700000D03*
D11*
X18850000Y-24550000D03*
D12*
X19850000Y-21300000D03*
D11*
X23350000Y-19450000D03*
D12*
X20350000Y-21300000D03*
X21350000Y-21300000D03*
X18850000Y-21300000D03*
X20850000Y-21300000D03*
X21850000Y-21300000D03*
X22350000Y-21300000D03*
X19350000Y-21300000D03*
D13*
X79100000Y-63250000D03*
X79100000Y-61750000D03*
X79100000Y-61250000D03*
X79100000Y-63750000D03*
D14*
X80950000Y-63250000D03*
X80950000Y-64250000D03*
D13*
X79100000Y-60250000D03*
D14*
X75850000Y-61250000D03*
X75850000Y-60750000D03*
X80950000Y-62750000D03*
D13*
X79100000Y-64250000D03*
X79100000Y-60750000D03*
X79100000Y-64750000D03*
D14*
X75850000Y-61750000D03*
X75850000Y-63250000D03*
D13*
X79100000Y-62250000D03*
D14*
X75850000Y-62250000D03*
D13*
X77700000Y-60250000D03*
D14*
X75850000Y-62750000D03*
X80950000Y-62250000D03*
X75850000Y-64750000D03*
X80950000Y-63750000D03*
X75850000Y-63750000D03*
D13*
X77700000Y-60750000D03*
D14*
X75850000Y-64250000D03*
X80950000Y-60250000D03*
X80950000Y-60750000D03*
X80950000Y-61250000D03*
X80950000Y-61750000D03*
D13*
X79100000Y-62750000D03*
D14*
X80950000Y-64750000D03*
D13*
X77700000Y-63750000D03*
D14*
X75850000Y-60250000D03*
D13*
X77700000Y-63250000D03*
X77700000Y-62250000D03*
X77700000Y-64750000D03*
X77700000Y-62750000D03*
X77700000Y-61750000D03*
X77700000Y-61250000D03*
X77700000Y-64250000D03*
D12*
X20350000Y-40500000D03*
X21850000Y-40500000D03*
X22350000Y-40500000D03*
X19850000Y-40500000D03*
D11*
X20350000Y-42350000D03*
X19350000Y-42350000D03*
D12*
X23350000Y-40500000D03*
D11*
X22350000Y-37250000D03*
X22850000Y-37250000D03*
X20850000Y-42350000D03*
D12*
X19350000Y-40500000D03*
X22850000Y-40500000D03*
X18850000Y-40500000D03*
D11*
X21850000Y-37250000D03*
X20350000Y-37250000D03*
D12*
X21350000Y-40500000D03*
D11*
X21350000Y-37250000D03*
D12*
X23350000Y-39100000D03*
D11*
X20850000Y-37250000D03*
X21350000Y-42350000D03*
X18850000Y-37250000D03*
X19850000Y-42350000D03*
X19850000Y-37250000D03*
D12*
X22850000Y-39100000D03*
D11*
X19350000Y-37250000D03*
X23350000Y-42350000D03*
X22850000Y-42350000D03*
X22350000Y-42350000D03*
X21850000Y-42350000D03*
D12*
X20850000Y-40500000D03*
D11*
X18850000Y-42350000D03*
D12*
X19850000Y-39100000D03*
D11*
X23350000Y-37250000D03*
D12*
X20350000Y-39100000D03*
X21350000Y-39100000D03*
X18850000Y-39100000D03*
X20850000Y-39100000D03*
X21850000Y-39100000D03*
X22350000Y-39100000D03*
X19350000Y-39100000D03*
X20350000Y-64300000D03*
X21850000Y-64300000D03*
X22350000Y-64300000D03*
X19850000Y-64300000D03*
D11*
X20350000Y-66150000D03*
X19350000Y-66150000D03*
D12*
X23350000Y-64300000D03*
D11*
X22350000Y-61050000D03*
X22850000Y-61050000D03*
X20850000Y-66150000D03*
D12*
X19350000Y-64300000D03*
X22850000Y-64300000D03*
X18850000Y-64300000D03*
D11*
X21850000Y-61050000D03*
X20350000Y-61050000D03*
D12*
X21350000Y-64300000D03*
D11*
X21350000Y-61050000D03*
D12*
X23350000Y-62900000D03*
D11*
X20850000Y-61050000D03*
X21350000Y-66150000D03*
X18850000Y-61050000D03*
X19850000Y-66150000D03*
X19850000Y-61050000D03*
D12*
X22850000Y-62900000D03*
D11*
X19350000Y-61050000D03*
X23350000Y-66150000D03*
X22850000Y-66150000D03*
X22350000Y-66150000D03*
X21850000Y-66150000D03*
D12*
X20850000Y-64300000D03*
D11*
X18850000Y-66150000D03*
D12*
X19850000Y-62900000D03*
D11*
X23350000Y-61050000D03*
D12*
X20350000Y-62900000D03*
X21350000Y-62900000D03*
X18850000Y-62900000D03*
X20850000Y-62900000D03*
X21850000Y-62900000D03*
X22350000Y-62900000D03*
X19350000Y-62900000D03*
D15*
X109400000Y-20100000D03*
X111400000Y-20100000D03*
X113400000Y-20100000D03*
X115400000Y-20100000D03*
D16*
X116100000Y-38700000D03*
X116100000Y-40700000D03*
X116100000Y-42700000D03*
X116100000Y-44700000D03*
D15*
X91800000Y-20100000D03*
X93800000Y-20100000D03*
X95800000Y-20100000D03*
X97800000Y-20100000D03*
D16*
X98500000Y-38700000D03*
X98500000Y-40700000D03*
X98500000Y-42700000D03*
X98500000Y-44700000D03*
X63600000Y-17800000D03*
X63600000Y-19800000D03*
X63600000Y-21800000D03*
X63600000Y-23800000D03*
D15*
X44900000Y-24400000D03*
X42900000Y-24400000D03*
X40900000Y-24400000D03*
X38900000Y-24400000D03*
X74100000Y-20100000D03*
X76100000Y-20100000D03*
X78100000Y-20100000D03*
X80100000Y-20100000D03*
D16*
X80800000Y-38700000D03*
X80800000Y-40700000D03*
X80800000Y-42700000D03*
X80800000Y-44700000D03*
X63600000Y-35600000D03*
X63600000Y-37600000D03*
X63600000Y-39600000D03*
X63600000Y-41600000D03*
D15*
X44900000Y-42200000D03*
X42900000Y-42200000D03*
X40900000Y-42200000D03*
X38900000Y-42200000D03*
D16*
X63600000Y-59400000D03*
X63600000Y-61400000D03*
X63600000Y-63400000D03*
X63600000Y-65400000D03*
D15*
X44900000Y-66000000D03*
X42900000Y-66000000D03*
X40900000Y-66000000D03*
X38900000Y-66000000D03*
M02*
