G04 #@! TF.GenerationSoftware,KiCad,Pcbnew,(5.1.4)-1*
G04 #@! TF.CreationDate,2019-11-22T14:34:32-08:00*
G04 #@! TF.ProjectId,Type1 Termination Board v2 (UMPT_ TLH),54797065-3120-4546-9572-6d696e617469,rev?*
G04 #@! TF.SameCoordinates,Original*
G04 #@! TF.FileFunction,Legend,Bot*
G04 #@! TF.FilePolarity,Positive*
%FSLAX46Y46*%
G04 Gerber Fmt 4.6, Leading zero omitted, Abs format (unit mm)*
G04 Created by KiCad (PCBNEW (5.1.4)-1) date 2019-11-22 14:34:32*
%MOMM*%
%LPD*%
G04 APERTURE LIST*
%ADD10C,0.050000*%
%ADD11C,0.150000*%
G04 APERTURE END LIST*
D10*
X175900000Y-70700000D02*
X175900000Y-71500000D01*
X12100000Y-71500000D02*
X12100000Y-12100000D01*
X175900000Y-71500000D02*
X12100000Y-71500000D01*
X175900000Y-12100000D02*
X175900000Y-70700000D01*
X12100000Y-12100000D02*
X175900000Y-12100000D01*
D11*
X109157142Y-30785714D02*
X109157142Y-31300000D01*
X110057142Y-31042857D02*
X109157142Y-31042857D01*
X109457142Y-31514285D02*
X110057142Y-31728571D01*
X109457142Y-31942857D02*
X110057142Y-31728571D01*
X110271428Y-31642857D01*
X110314285Y-31600000D01*
X110357142Y-31514285D01*
X109457142Y-32285714D02*
X110357142Y-32285714D01*
X109500000Y-32285714D02*
X109457142Y-32371428D01*
X109457142Y-32542857D01*
X109500000Y-32628571D01*
X109542857Y-32671428D01*
X109628571Y-32714285D01*
X109885714Y-32714285D01*
X109971428Y-32671428D01*
X110014285Y-32628571D01*
X110057142Y-32542857D01*
X110057142Y-32371428D01*
X110014285Y-32285714D01*
X110014285Y-33442857D02*
X110057142Y-33357142D01*
X110057142Y-33185714D01*
X110014285Y-33100000D01*
X109928571Y-33057142D01*
X109585714Y-33057142D01*
X109500000Y-33100000D01*
X109457142Y-33185714D01*
X109457142Y-33357142D01*
X109500000Y-33442857D01*
X109585714Y-33485714D01*
X109671428Y-33485714D01*
X109757142Y-33057142D01*
X110057142Y-35028571D02*
X110057142Y-34514285D01*
X110057142Y-34771428D02*
X109157142Y-34771428D01*
X109285714Y-34685714D01*
X109371428Y-34600000D01*
X109414285Y-34514285D01*
X109157142Y-35971428D02*
X109157142Y-36485714D01*
X110057142Y-36228571D02*
X109157142Y-36228571D01*
X110014285Y-37128571D02*
X110057142Y-37042857D01*
X110057142Y-36871428D01*
X110014285Y-36785714D01*
X109928571Y-36742857D01*
X109585714Y-36742857D01*
X109500000Y-36785714D01*
X109457142Y-36871428D01*
X109457142Y-37042857D01*
X109500000Y-37128571D01*
X109585714Y-37171428D01*
X109671428Y-37171428D01*
X109757142Y-36742857D01*
X110057142Y-37557142D02*
X109457142Y-37557142D01*
X109628571Y-37557142D02*
X109542857Y-37600000D01*
X109500000Y-37642857D01*
X109457142Y-37728571D01*
X109457142Y-37814285D01*
X110057142Y-38114285D02*
X109457142Y-38114285D01*
X109542857Y-38114285D02*
X109500000Y-38157142D01*
X109457142Y-38242857D01*
X109457142Y-38371428D01*
X109500000Y-38457142D01*
X109585714Y-38500000D01*
X110057142Y-38500000D01*
X109585714Y-38500000D02*
X109500000Y-38542857D01*
X109457142Y-38628571D01*
X109457142Y-38757142D01*
X109500000Y-38842857D01*
X109585714Y-38885714D01*
X110057142Y-38885714D01*
X110057142Y-39314285D02*
X109457142Y-39314285D01*
X109157142Y-39314285D02*
X109200000Y-39271428D01*
X109242857Y-39314285D01*
X109200000Y-39357142D01*
X109157142Y-39314285D01*
X109242857Y-39314285D01*
X109457142Y-39742857D02*
X110057142Y-39742857D01*
X109542857Y-39742857D02*
X109500000Y-39785714D01*
X109457142Y-39871428D01*
X109457142Y-40000000D01*
X109500000Y-40085714D01*
X109585714Y-40128571D01*
X110057142Y-40128571D01*
X110057142Y-40942857D02*
X109585714Y-40942857D01*
X109500000Y-40900000D01*
X109457142Y-40814285D01*
X109457142Y-40642857D01*
X109500000Y-40557142D01*
X110014285Y-40942857D02*
X110057142Y-40857142D01*
X110057142Y-40642857D01*
X110014285Y-40557142D01*
X109928571Y-40514285D01*
X109842857Y-40514285D01*
X109757142Y-40557142D01*
X109714285Y-40642857D01*
X109714285Y-40857142D01*
X109671428Y-40942857D01*
X109457142Y-41242857D02*
X109457142Y-41585714D01*
X109157142Y-41371428D02*
X109928571Y-41371428D01*
X110014285Y-41414285D01*
X110057142Y-41500000D01*
X110057142Y-41585714D01*
X110057142Y-41885714D02*
X109457142Y-41885714D01*
X109157142Y-41885714D02*
X109200000Y-41842857D01*
X109242857Y-41885714D01*
X109200000Y-41928571D01*
X109157142Y-41885714D01*
X109242857Y-41885714D01*
X110057142Y-42442857D02*
X110014285Y-42357142D01*
X109971428Y-42314285D01*
X109885714Y-42271428D01*
X109628571Y-42271428D01*
X109542857Y-42314285D01*
X109500000Y-42357142D01*
X109457142Y-42442857D01*
X109457142Y-42571428D01*
X109500000Y-42657142D01*
X109542857Y-42700000D01*
X109628571Y-42742857D01*
X109885714Y-42742857D01*
X109971428Y-42700000D01*
X110014285Y-42657142D01*
X110057142Y-42571428D01*
X110057142Y-42442857D01*
X109457142Y-43128571D02*
X110057142Y-43128571D01*
X109542857Y-43128571D02*
X109500000Y-43171428D01*
X109457142Y-43257142D01*
X109457142Y-43385714D01*
X109500000Y-43471428D01*
X109585714Y-43514285D01*
X110057142Y-43514285D01*
X109585714Y-44928571D02*
X109628571Y-45057142D01*
X109671428Y-45100000D01*
X109757142Y-45142857D01*
X109885714Y-45142857D01*
X109971428Y-45100000D01*
X110014285Y-45057142D01*
X110057142Y-44971428D01*
X110057142Y-44628571D01*
X109157142Y-44628571D01*
X109157142Y-44928571D01*
X109200000Y-45014285D01*
X109242857Y-45057142D01*
X109328571Y-45100000D01*
X109414285Y-45100000D01*
X109500000Y-45057142D01*
X109542857Y-45014285D01*
X109585714Y-44928571D01*
X109585714Y-44628571D01*
X110057142Y-45657142D02*
X110014285Y-45571428D01*
X109971428Y-45528571D01*
X109885714Y-45485714D01*
X109628571Y-45485714D01*
X109542857Y-45528571D01*
X109500000Y-45571428D01*
X109457142Y-45657142D01*
X109457142Y-45785714D01*
X109500000Y-45871428D01*
X109542857Y-45914285D01*
X109628571Y-45957142D01*
X109885714Y-45957142D01*
X109971428Y-45914285D01*
X110014285Y-45871428D01*
X110057142Y-45785714D01*
X110057142Y-45657142D01*
X110057142Y-46728571D02*
X109585714Y-46728571D01*
X109500000Y-46685714D01*
X109457142Y-46600000D01*
X109457142Y-46428571D01*
X109500000Y-46342857D01*
X110014285Y-46728571D02*
X110057142Y-46642857D01*
X110057142Y-46428571D01*
X110014285Y-46342857D01*
X109928571Y-46300000D01*
X109842857Y-46300000D01*
X109757142Y-46342857D01*
X109714285Y-46428571D01*
X109714285Y-46642857D01*
X109671428Y-46728571D01*
X110057142Y-47157142D02*
X109457142Y-47157142D01*
X109628571Y-47157142D02*
X109542857Y-47200000D01*
X109500000Y-47242857D01*
X109457142Y-47328571D01*
X109457142Y-47414285D01*
X110057142Y-48100000D02*
X109157142Y-48100000D01*
X110014285Y-48100000D02*
X110057142Y-48014285D01*
X110057142Y-47842857D01*
X110014285Y-47757142D01*
X109971428Y-47714285D01*
X109885714Y-47671428D01*
X109628571Y-47671428D01*
X109542857Y-47714285D01*
X109500000Y-47757142D01*
X109457142Y-47842857D01*
X109457142Y-48014285D01*
X109500000Y-48100000D01*
X110057142Y-49214285D02*
X109457142Y-49214285D01*
X109542857Y-49214285D02*
X109500000Y-49257142D01*
X109457142Y-49342857D01*
X109457142Y-49471428D01*
X109500000Y-49557142D01*
X109585714Y-49600000D01*
X110057142Y-49600000D01*
X109585714Y-49600000D02*
X109500000Y-49642857D01*
X109457142Y-49728571D01*
X109457142Y-49857142D01*
X109500000Y-49942857D01*
X109585714Y-49985714D01*
X110057142Y-49985714D01*
X110057142Y-50800000D02*
X109585714Y-50800000D01*
X109500000Y-50757142D01*
X109457142Y-50671428D01*
X109457142Y-50500000D01*
X109500000Y-50414285D01*
X110014285Y-50800000D02*
X110057142Y-50714285D01*
X110057142Y-50500000D01*
X110014285Y-50414285D01*
X109928571Y-50371428D01*
X109842857Y-50371428D01*
X109757142Y-50414285D01*
X109714285Y-50500000D01*
X109714285Y-50714285D01*
X109671428Y-50800000D01*
X109457142Y-51100000D02*
X109457142Y-51442857D01*
X109157142Y-51228571D02*
X109928571Y-51228571D01*
X110014285Y-51271428D01*
X110057142Y-51357142D01*
X110057142Y-51442857D01*
X110014285Y-52085714D02*
X110057142Y-52000000D01*
X110057142Y-51828571D01*
X110014285Y-51742857D01*
X109928571Y-51700000D01*
X109585714Y-51700000D01*
X109500000Y-51742857D01*
X109457142Y-51828571D01*
X109457142Y-52000000D01*
X109500000Y-52085714D01*
X109585714Y-52128571D01*
X109671428Y-52128571D01*
X109757142Y-51700000D01*
X111514285Y-36057142D02*
X111557142Y-36185714D01*
X111557142Y-36400000D01*
X111514285Y-36485714D01*
X111471428Y-36528571D01*
X111385714Y-36571428D01*
X111300000Y-36571428D01*
X111214285Y-36528571D01*
X111171428Y-36485714D01*
X111128571Y-36400000D01*
X111085714Y-36228571D01*
X111042857Y-36142857D01*
X111000000Y-36100000D01*
X110914285Y-36057142D01*
X110828571Y-36057142D01*
X110742857Y-36100000D01*
X110700000Y-36142857D01*
X110657142Y-36228571D01*
X110657142Y-36442857D01*
X110700000Y-36571428D01*
X111471428Y-37471428D02*
X111514285Y-37428571D01*
X111557142Y-37300000D01*
X111557142Y-37214285D01*
X111514285Y-37085714D01*
X111428571Y-37000000D01*
X111342857Y-36957142D01*
X111171428Y-36914285D01*
X111042857Y-36914285D01*
X110871428Y-36957142D01*
X110785714Y-37000000D01*
X110700000Y-37085714D01*
X110657142Y-37214285D01*
X110657142Y-37300000D01*
X110700000Y-37428571D01*
X110742857Y-37471428D01*
X111557142Y-37857142D02*
X110657142Y-37857142D01*
X111557142Y-38285714D02*
X110657142Y-38285714D01*
X110657142Y-38628571D01*
X110700000Y-38714285D01*
X110742857Y-38757142D01*
X110828571Y-38800000D01*
X110957142Y-38800000D01*
X111042857Y-38757142D01*
X111085714Y-38714285D01*
X111128571Y-38628571D01*
X111128571Y-38285714D01*
X111557142Y-39185714D02*
X110657142Y-39185714D01*
X110657142Y-39528571D01*
X110700000Y-39614285D01*
X110742857Y-39657142D01*
X110828571Y-39700000D01*
X110957142Y-39700000D01*
X111042857Y-39657142D01*
X111085714Y-39614285D01*
X111128571Y-39528571D01*
X111128571Y-39185714D01*
X111557142Y-40771428D02*
X110657142Y-40771428D01*
X110657142Y-41071428D02*
X110657142Y-41585714D01*
X111557142Y-41328571D02*
X110657142Y-41328571D01*
X111557142Y-41885714D02*
X110657142Y-41885714D01*
X111214285Y-41971428D02*
X111557142Y-42228571D01*
X110957142Y-42228571D02*
X111300000Y-41885714D01*
X111557142Y-43300000D02*
X110657142Y-43300000D01*
X110657142Y-43642857D01*
X110700000Y-43728571D01*
X110742857Y-43771428D01*
X110828571Y-43814285D01*
X110957142Y-43814285D01*
X111042857Y-43771428D01*
X111085714Y-43728571D01*
X111128571Y-43642857D01*
X111128571Y-43300000D01*
X111557142Y-44200000D02*
X110957142Y-44200000D01*
X110657142Y-44200000D02*
X110700000Y-44157142D01*
X110742857Y-44200000D01*
X110700000Y-44242857D01*
X110657142Y-44200000D01*
X110742857Y-44200000D01*
X111557142Y-44542857D02*
X110957142Y-45014285D01*
X110957142Y-44542857D02*
X111557142Y-45014285D01*
X111514285Y-45700000D02*
X111557142Y-45614285D01*
X111557142Y-45442857D01*
X111514285Y-45357142D01*
X111428571Y-45314285D01*
X111085714Y-45314285D01*
X111000000Y-45357142D01*
X110957142Y-45442857D01*
X110957142Y-45614285D01*
X111000000Y-45700000D01*
X111085714Y-45742857D01*
X111171428Y-45742857D01*
X111257142Y-45314285D01*
X111557142Y-46257142D02*
X111514285Y-46171428D01*
X111428571Y-46128571D01*
X110657142Y-46128571D01*
X111514285Y-46557142D02*
X111557142Y-46642857D01*
X111557142Y-46814285D01*
X111514285Y-46900000D01*
X111428571Y-46942857D01*
X111385714Y-46942857D01*
X111300000Y-46900000D01*
X111257142Y-46814285D01*
X111257142Y-46685714D01*
X111214285Y-46600000D01*
X111128571Y-46557142D01*
X111085714Y-46557142D01*
X111000000Y-46600000D01*
X110957142Y-46685714D01*
X110957142Y-46814285D01*
X111000000Y-46900000D01*
X113057142Y-33228571D02*
X112157142Y-33228571D01*
X112157142Y-33442857D01*
X112200000Y-33571428D01*
X112285714Y-33657142D01*
X112371428Y-33700000D01*
X112542857Y-33742857D01*
X112671428Y-33742857D01*
X112842857Y-33700000D01*
X112928571Y-33657142D01*
X113014285Y-33571428D01*
X113057142Y-33442857D01*
X113057142Y-33228571D01*
X113014285Y-34471428D02*
X113057142Y-34385714D01*
X113057142Y-34214285D01*
X113014285Y-34128571D01*
X112928571Y-34085714D01*
X112585714Y-34085714D01*
X112500000Y-34128571D01*
X112457142Y-34214285D01*
X112457142Y-34385714D01*
X112500000Y-34471428D01*
X112585714Y-34514285D01*
X112671428Y-34514285D01*
X112757142Y-34085714D01*
X113014285Y-34857142D02*
X113057142Y-34942857D01*
X113057142Y-35114285D01*
X113014285Y-35200000D01*
X112928571Y-35242857D01*
X112885714Y-35242857D01*
X112800000Y-35200000D01*
X112757142Y-35114285D01*
X112757142Y-34985714D01*
X112714285Y-34900000D01*
X112628571Y-34857142D01*
X112585714Y-34857142D01*
X112500000Y-34900000D01*
X112457142Y-34985714D01*
X112457142Y-35114285D01*
X112500000Y-35200000D01*
X113057142Y-35628571D02*
X112457142Y-35628571D01*
X112157142Y-35628571D02*
X112200000Y-35585714D01*
X112242857Y-35628571D01*
X112200000Y-35671428D01*
X112157142Y-35628571D01*
X112242857Y-35628571D01*
X112457142Y-36442857D02*
X113185714Y-36442857D01*
X113271428Y-36400000D01*
X113314285Y-36357142D01*
X113357142Y-36271428D01*
X113357142Y-36142857D01*
X113314285Y-36057142D01*
X113014285Y-36442857D02*
X113057142Y-36357142D01*
X113057142Y-36185714D01*
X113014285Y-36100000D01*
X112971428Y-36057142D01*
X112885714Y-36014285D01*
X112628571Y-36014285D01*
X112542857Y-36057142D01*
X112500000Y-36100000D01*
X112457142Y-36185714D01*
X112457142Y-36357142D01*
X112500000Y-36442857D01*
X112457142Y-36871428D02*
X113057142Y-36871428D01*
X112542857Y-36871428D02*
X112500000Y-36914285D01*
X112457142Y-37000000D01*
X112457142Y-37128571D01*
X112500000Y-37214285D01*
X112585714Y-37257142D01*
X113057142Y-37257142D01*
X113014285Y-38028571D02*
X113057142Y-37942857D01*
X113057142Y-37771428D01*
X113014285Y-37685714D01*
X112928571Y-37642857D01*
X112585714Y-37642857D01*
X112500000Y-37685714D01*
X112457142Y-37771428D01*
X112457142Y-37942857D01*
X112500000Y-38028571D01*
X112585714Y-38071428D01*
X112671428Y-38071428D01*
X112757142Y-37642857D01*
X113057142Y-38842857D02*
X112157142Y-38842857D01*
X113014285Y-38842857D02*
X113057142Y-38757142D01*
X113057142Y-38585714D01*
X113014285Y-38500000D01*
X112971428Y-38457142D01*
X112885714Y-38414285D01*
X112628571Y-38414285D01*
X112542857Y-38457142D01*
X112500000Y-38500000D01*
X112457142Y-38585714D01*
X112457142Y-38757142D01*
X112500000Y-38842857D01*
X113057142Y-39957142D02*
X112157142Y-39957142D01*
X112500000Y-39957142D02*
X112457142Y-40042857D01*
X112457142Y-40214285D01*
X112500000Y-40300000D01*
X112542857Y-40342857D01*
X112628571Y-40385714D01*
X112885714Y-40385714D01*
X112971428Y-40342857D01*
X113014285Y-40300000D01*
X113057142Y-40214285D01*
X113057142Y-40042857D01*
X113014285Y-39957142D01*
X112457142Y-40685714D02*
X113057142Y-40900000D01*
X112457142Y-41114285D02*
X113057142Y-40900000D01*
X113271428Y-40814285D01*
X113314285Y-40771428D01*
X113357142Y-40685714D01*
X113057142Y-42142857D02*
X112157142Y-42142857D01*
X113057142Y-42657142D01*
X112157142Y-42657142D01*
X113057142Y-43214285D02*
X113014285Y-43128571D01*
X112971428Y-43085714D01*
X112885714Y-43042857D01*
X112628571Y-43042857D01*
X112542857Y-43085714D01*
X112500000Y-43128571D01*
X112457142Y-43214285D01*
X112457142Y-43342857D01*
X112500000Y-43428571D01*
X112542857Y-43471428D01*
X112628571Y-43514285D01*
X112885714Y-43514285D01*
X112971428Y-43471428D01*
X113014285Y-43428571D01*
X113057142Y-43342857D01*
X113057142Y-43214285D01*
X113057142Y-44285714D02*
X112585714Y-44285714D01*
X112500000Y-44242857D01*
X112457142Y-44157142D01*
X112457142Y-43985714D01*
X112500000Y-43900000D01*
X113014285Y-44285714D02*
X113057142Y-44200000D01*
X113057142Y-43985714D01*
X113014285Y-43900000D01*
X112928571Y-43857142D01*
X112842857Y-43857142D01*
X112757142Y-43900000D01*
X112714285Y-43985714D01*
X112714285Y-44200000D01*
X112671428Y-44285714D01*
X113057142Y-44714285D02*
X112157142Y-44714285D01*
X113057142Y-45100000D02*
X112585714Y-45100000D01*
X112500000Y-45057142D01*
X112457142Y-44971428D01*
X112457142Y-44842857D01*
X112500000Y-44757142D01*
X112542857Y-44714285D01*
X113057142Y-46214285D02*
X112157142Y-46214285D01*
X112157142Y-46557142D01*
X112200000Y-46642857D01*
X112242857Y-46685714D01*
X112328571Y-46728571D01*
X112457142Y-46728571D01*
X112542857Y-46685714D01*
X112585714Y-46642857D01*
X112628571Y-46557142D01*
X112628571Y-46214285D01*
X113014285Y-47457142D02*
X113057142Y-47371428D01*
X113057142Y-47200000D01*
X113014285Y-47114285D01*
X112928571Y-47071428D01*
X112585714Y-47071428D01*
X112500000Y-47114285D01*
X112457142Y-47200000D01*
X112457142Y-47371428D01*
X112500000Y-47457142D01*
X112585714Y-47500000D01*
X112671428Y-47500000D01*
X112757142Y-47071428D01*
X113057142Y-48271428D02*
X112585714Y-48271428D01*
X112500000Y-48228571D01*
X112457142Y-48142857D01*
X112457142Y-47971428D01*
X112500000Y-47885714D01*
X113014285Y-48271428D02*
X113057142Y-48185714D01*
X113057142Y-47971428D01*
X113014285Y-47885714D01*
X112928571Y-47842857D01*
X112842857Y-47842857D01*
X112757142Y-47885714D01*
X112714285Y-47971428D01*
X112714285Y-48185714D01*
X112671428Y-48271428D01*
X113057142Y-48700000D02*
X112157142Y-48700000D01*
X112714285Y-48785714D02*
X113057142Y-49042857D01*
X112457142Y-49042857D02*
X112800000Y-48700000D01*
X113014285Y-49771428D02*
X113057142Y-49685714D01*
X113057142Y-49514285D01*
X113014285Y-49428571D01*
X112928571Y-49385714D01*
X112585714Y-49385714D01*
X112500000Y-49428571D01*
X112457142Y-49514285D01*
X112457142Y-49685714D01*
X112500000Y-49771428D01*
X112585714Y-49814285D01*
X112671428Y-49814285D01*
X112757142Y-49385714D01*
X114557142Y-38500000D02*
X114557142Y-37985714D01*
X114557142Y-38242857D02*
X113657142Y-38242857D01*
X113785714Y-38157142D01*
X113871428Y-38071428D01*
X113914285Y-37985714D01*
X114557142Y-39357142D02*
X114557142Y-38842857D01*
X114557142Y-39100000D02*
X113657142Y-39100000D01*
X113785714Y-39014285D01*
X113871428Y-38928571D01*
X113914285Y-38842857D01*
X114214285Y-39742857D02*
X114214285Y-40428571D01*
X113742857Y-40814285D02*
X113700000Y-40857142D01*
X113657142Y-40942857D01*
X113657142Y-41157142D01*
X113700000Y-41242857D01*
X113742857Y-41285714D01*
X113828571Y-41328571D01*
X113914285Y-41328571D01*
X114042857Y-41285714D01*
X114557142Y-40771428D01*
X114557142Y-41328571D01*
X113742857Y-41671428D02*
X113700000Y-41714285D01*
X113657142Y-41800000D01*
X113657142Y-42014285D01*
X113700000Y-42100000D01*
X113742857Y-42142857D01*
X113828571Y-42185714D01*
X113914285Y-42185714D01*
X114042857Y-42142857D01*
X114557142Y-41628571D01*
X114557142Y-42185714D01*
X114214285Y-42571428D02*
X114214285Y-43257142D01*
X114557142Y-44157142D02*
X114557142Y-43642857D01*
X114557142Y-43900000D02*
X113657142Y-43900000D01*
X113785714Y-43814285D01*
X113871428Y-43728571D01*
X113914285Y-43642857D01*
X114557142Y-44585714D02*
X114557142Y-44757142D01*
X114514285Y-44842857D01*
X114471428Y-44885714D01*
X114342857Y-44971428D01*
X114171428Y-45014285D01*
X113828571Y-45014285D01*
X113742857Y-44971428D01*
X113700000Y-44928571D01*
X113657142Y-44842857D01*
X113657142Y-44671428D01*
X113700000Y-44585714D01*
X113742857Y-44542857D01*
X113828571Y-44500000D01*
X114042857Y-44500000D01*
X114128571Y-44542857D01*
X114171428Y-44585714D01*
X114214285Y-44671428D01*
X114214285Y-44842857D01*
X114171428Y-44928571D01*
X114128571Y-44971428D01*
X114042857Y-45014285D01*
X91657142Y-30885714D02*
X91657142Y-31400000D01*
X92557142Y-31142857D02*
X91657142Y-31142857D01*
X91957142Y-31614285D02*
X92557142Y-31828571D01*
X91957142Y-32042857D02*
X92557142Y-31828571D01*
X92771428Y-31742857D01*
X92814285Y-31700000D01*
X92857142Y-31614285D01*
X91957142Y-32385714D02*
X92857142Y-32385714D01*
X92000000Y-32385714D02*
X91957142Y-32471428D01*
X91957142Y-32642857D01*
X92000000Y-32728571D01*
X92042857Y-32771428D01*
X92128571Y-32814285D01*
X92385714Y-32814285D01*
X92471428Y-32771428D01*
X92514285Y-32728571D01*
X92557142Y-32642857D01*
X92557142Y-32471428D01*
X92514285Y-32385714D01*
X92514285Y-33542857D02*
X92557142Y-33457142D01*
X92557142Y-33285714D01*
X92514285Y-33200000D01*
X92428571Y-33157142D01*
X92085714Y-33157142D01*
X92000000Y-33200000D01*
X91957142Y-33285714D01*
X91957142Y-33457142D01*
X92000000Y-33542857D01*
X92085714Y-33585714D01*
X92171428Y-33585714D01*
X92257142Y-33157142D01*
X92557142Y-35128571D02*
X92557142Y-34614285D01*
X92557142Y-34871428D02*
X91657142Y-34871428D01*
X91785714Y-34785714D01*
X91871428Y-34700000D01*
X91914285Y-34614285D01*
X91657142Y-36071428D02*
X91657142Y-36585714D01*
X92557142Y-36328571D02*
X91657142Y-36328571D01*
X92514285Y-37228571D02*
X92557142Y-37142857D01*
X92557142Y-36971428D01*
X92514285Y-36885714D01*
X92428571Y-36842857D01*
X92085714Y-36842857D01*
X92000000Y-36885714D01*
X91957142Y-36971428D01*
X91957142Y-37142857D01*
X92000000Y-37228571D01*
X92085714Y-37271428D01*
X92171428Y-37271428D01*
X92257142Y-36842857D01*
X92557142Y-37657142D02*
X91957142Y-37657142D01*
X92128571Y-37657142D02*
X92042857Y-37700000D01*
X92000000Y-37742857D01*
X91957142Y-37828571D01*
X91957142Y-37914285D01*
X92557142Y-38214285D02*
X91957142Y-38214285D01*
X92042857Y-38214285D02*
X92000000Y-38257142D01*
X91957142Y-38342857D01*
X91957142Y-38471428D01*
X92000000Y-38557142D01*
X92085714Y-38600000D01*
X92557142Y-38600000D01*
X92085714Y-38600000D02*
X92000000Y-38642857D01*
X91957142Y-38728571D01*
X91957142Y-38857142D01*
X92000000Y-38942857D01*
X92085714Y-38985714D01*
X92557142Y-38985714D01*
X92557142Y-39414285D02*
X91957142Y-39414285D01*
X91657142Y-39414285D02*
X91700000Y-39371428D01*
X91742857Y-39414285D01*
X91700000Y-39457142D01*
X91657142Y-39414285D01*
X91742857Y-39414285D01*
X91957142Y-39842857D02*
X92557142Y-39842857D01*
X92042857Y-39842857D02*
X92000000Y-39885714D01*
X91957142Y-39971428D01*
X91957142Y-40100000D01*
X92000000Y-40185714D01*
X92085714Y-40228571D01*
X92557142Y-40228571D01*
X92557142Y-41042857D02*
X92085714Y-41042857D01*
X92000000Y-41000000D01*
X91957142Y-40914285D01*
X91957142Y-40742857D01*
X92000000Y-40657142D01*
X92514285Y-41042857D02*
X92557142Y-40957142D01*
X92557142Y-40742857D01*
X92514285Y-40657142D01*
X92428571Y-40614285D01*
X92342857Y-40614285D01*
X92257142Y-40657142D01*
X92214285Y-40742857D01*
X92214285Y-40957142D01*
X92171428Y-41042857D01*
X91957142Y-41342857D02*
X91957142Y-41685714D01*
X91657142Y-41471428D02*
X92428571Y-41471428D01*
X92514285Y-41514285D01*
X92557142Y-41600000D01*
X92557142Y-41685714D01*
X92557142Y-41985714D02*
X91957142Y-41985714D01*
X91657142Y-41985714D02*
X91700000Y-41942857D01*
X91742857Y-41985714D01*
X91700000Y-42028571D01*
X91657142Y-41985714D01*
X91742857Y-41985714D01*
X92557142Y-42542857D02*
X92514285Y-42457142D01*
X92471428Y-42414285D01*
X92385714Y-42371428D01*
X92128571Y-42371428D01*
X92042857Y-42414285D01*
X92000000Y-42457142D01*
X91957142Y-42542857D01*
X91957142Y-42671428D01*
X92000000Y-42757142D01*
X92042857Y-42800000D01*
X92128571Y-42842857D01*
X92385714Y-42842857D01*
X92471428Y-42800000D01*
X92514285Y-42757142D01*
X92557142Y-42671428D01*
X92557142Y-42542857D01*
X91957142Y-43228571D02*
X92557142Y-43228571D01*
X92042857Y-43228571D02*
X92000000Y-43271428D01*
X91957142Y-43357142D01*
X91957142Y-43485714D01*
X92000000Y-43571428D01*
X92085714Y-43614285D01*
X92557142Y-43614285D01*
X92085714Y-45028571D02*
X92128571Y-45157142D01*
X92171428Y-45200000D01*
X92257142Y-45242857D01*
X92385714Y-45242857D01*
X92471428Y-45200000D01*
X92514285Y-45157142D01*
X92557142Y-45071428D01*
X92557142Y-44728571D01*
X91657142Y-44728571D01*
X91657142Y-45028571D01*
X91700000Y-45114285D01*
X91742857Y-45157142D01*
X91828571Y-45200000D01*
X91914285Y-45200000D01*
X92000000Y-45157142D01*
X92042857Y-45114285D01*
X92085714Y-45028571D01*
X92085714Y-44728571D01*
X92557142Y-45757142D02*
X92514285Y-45671428D01*
X92471428Y-45628571D01*
X92385714Y-45585714D01*
X92128571Y-45585714D01*
X92042857Y-45628571D01*
X92000000Y-45671428D01*
X91957142Y-45757142D01*
X91957142Y-45885714D01*
X92000000Y-45971428D01*
X92042857Y-46014285D01*
X92128571Y-46057142D01*
X92385714Y-46057142D01*
X92471428Y-46014285D01*
X92514285Y-45971428D01*
X92557142Y-45885714D01*
X92557142Y-45757142D01*
X92557142Y-46828571D02*
X92085714Y-46828571D01*
X92000000Y-46785714D01*
X91957142Y-46700000D01*
X91957142Y-46528571D01*
X92000000Y-46442857D01*
X92514285Y-46828571D02*
X92557142Y-46742857D01*
X92557142Y-46528571D01*
X92514285Y-46442857D01*
X92428571Y-46400000D01*
X92342857Y-46400000D01*
X92257142Y-46442857D01*
X92214285Y-46528571D01*
X92214285Y-46742857D01*
X92171428Y-46828571D01*
X92557142Y-47257142D02*
X91957142Y-47257142D01*
X92128571Y-47257142D02*
X92042857Y-47300000D01*
X92000000Y-47342857D01*
X91957142Y-47428571D01*
X91957142Y-47514285D01*
X92557142Y-48200000D02*
X91657142Y-48200000D01*
X92514285Y-48200000D02*
X92557142Y-48114285D01*
X92557142Y-47942857D01*
X92514285Y-47857142D01*
X92471428Y-47814285D01*
X92385714Y-47771428D01*
X92128571Y-47771428D01*
X92042857Y-47814285D01*
X92000000Y-47857142D01*
X91957142Y-47942857D01*
X91957142Y-48114285D01*
X92000000Y-48200000D01*
X92557142Y-49314285D02*
X91957142Y-49314285D01*
X92042857Y-49314285D02*
X92000000Y-49357142D01*
X91957142Y-49442857D01*
X91957142Y-49571428D01*
X92000000Y-49657142D01*
X92085714Y-49700000D01*
X92557142Y-49700000D01*
X92085714Y-49700000D02*
X92000000Y-49742857D01*
X91957142Y-49828571D01*
X91957142Y-49957142D01*
X92000000Y-50042857D01*
X92085714Y-50085714D01*
X92557142Y-50085714D01*
X92557142Y-50900000D02*
X92085714Y-50900000D01*
X92000000Y-50857142D01*
X91957142Y-50771428D01*
X91957142Y-50600000D01*
X92000000Y-50514285D01*
X92514285Y-50900000D02*
X92557142Y-50814285D01*
X92557142Y-50600000D01*
X92514285Y-50514285D01*
X92428571Y-50471428D01*
X92342857Y-50471428D01*
X92257142Y-50514285D01*
X92214285Y-50600000D01*
X92214285Y-50814285D01*
X92171428Y-50900000D01*
X91957142Y-51200000D02*
X91957142Y-51542857D01*
X91657142Y-51328571D02*
X92428571Y-51328571D01*
X92514285Y-51371428D01*
X92557142Y-51457142D01*
X92557142Y-51542857D01*
X92514285Y-52185714D02*
X92557142Y-52100000D01*
X92557142Y-51928571D01*
X92514285Y-51842857D01*
X92428571Y-51800000D01*
X92085714Y-51800000D01*
X92000000Y-51842857D01*
X91957142Y-51928571D01*
X91957142Y-52100000D01*
X92000000Y-52185714D01*
X92085714Y-52228571D01*
X92171428Y-52228571D01*
X92257142Y-51800000D01*
X94014285Y-36157142D02*
X94057142Y-36285714D01*
X94057142Y-36500000D01*
X94014285Y-36585714D01*
X93971428Y-36628571D01*
X93885714Y-36671428D01*
X93800000Y-36671428D01*
X93714285Y-36628571D01*
X93671428Y-36585714D01*
X93628571Y-36500000D01*
X93585714Y-36328571D01*
X93542857Y-36242857D01*
X93500000Y-36200000D01*
X93414285Y-36157142D01*
X93328571Y-36157142D01*
X93242857Y-36200000D01*
X93200000Y-36242857D01*
X93157142Y-36328571D01*
X93157142Y-36542857D01*
X93200000Y-36671428D01*
X93971428Y-37571428D02*
X94014285Y-37528571D01*
X94057142Y-37400000D01*
X94057142Y-37314285D01*
X94014285Y-37185714D01*
X93928571Y-37100000D01*
X93842857Y-37057142D01*
X93671428Y-37014285D01*
X93542857Y-37014285D01*
X93371428Y-37057142D01*
X93285714Y-37100000D01*
X93200000Y-37185714D01*
X93157142Y-37314285D01*
X93157142Y-37400000D01*
X93200000Y-37528571D01*
X93242857Y-37571428D01*
X94057142Y-37957142D02*
X93157142Y-37957142D01*
X94057142Y-38385714D02*
X93157142Y-38385714D01*
X93157142Y-38728571D01*
X93200000Y-38814285D01*
X93242857Y-38857142D01*
X93328571Y-38900000D01*
X93457142Y-38900000D01*
X93542857Y-38857142D01*
X93585714Y-38814285D01*
X93628571Y-38728571D01*
X93628571Y-38385714D01*
X94057142Y-39285714D02*
X93157142Y-39285714D01*
X93157142Y-39628571D01*
X93200000Y-39714285D01*
X93242857Y-39757142D01*
X93328571Y-39800000D01*
X93457142Y-39800000D01*
X93542857Y-39757142D01*
X93585714Y-39714285D01*
X93628571Y-39628571D01*
X93628571Y-39285714D01*
X94057142Y-40871428D02*
X93157142Y-40871428D01*
X93157142Y-41171428D02*
X93157142Y-41685714D01*
X94057142Y-41428571D02*
X93157142Y-41428571D01*
X94057142Y-41985714D02*
X93157142Y-41985714D01*
X93714285Y-42071428D02*
X94057142Y-42328571D01*
X93457142Y-42328571D02*
X93800000Y-41985714D01*
X94057142Y-43400000D02*
X93157142Y-43400000D01*
X93157142Y-43742857D01*
X93200000Y-43828571D01*
X93242857Y-43871428D01*
X93328571Y-43914285D01*
X93457142Y-43914285D01*
X93542857Y-43871428D01*
X93585714Y-43828571D01*
X93628571Y-43742857D01*
X93628571Y-43400000D01*
X94057142Y-44300000D02*
X93457142Y-44300000D01*
X93157142Y-44300000D02*
X93200000Y-44257142D01*
X93242857Y-44300000D01*
X93200000Y-44342857D01*
X93157142Y-44300000D01*
X93242857Y-44300000D01*
X94057142Y-44642857D02*
X93457142Y-45114285D01*
X93457142Y-44642857D02*
X94057142Y-45114285D01*
X94014285Y-45800000D02*
X94057142Y-45714285D01*
X94057142Y-45542857D01*
X94014285Y-45457142D01*
X93928571Y-45414285D01*
X93585714Y-45414285D01*
X93500000Y-45457142D01*
X93457142Y-45542857D01*
X93457142Y-45714285D01*
X93500000Y-45800000D01*
X93585714Y-45842857D01*
X93671428Y-45842857D01*
X93757142Y-45414285D01*
X94057142Y-46357142D02*
X94014285Y-46271428D01*
X93928571Y-46228571D01*
X93157142Y-46228571D01*
X94014285Y-46657142D02*
X94057142Y-46742857D01*
X94057142Y-46914285D01*
X94014285Y-47000000D01*
X93928571Y-47042857D01*
X93885714Y-47042857D01*
X93800000Y-47000000D01*
X93757142Y-46914285D01*
X93757142Y-46785714D01*
X93714285Y-46700000D01*
X93628571Y-46657142D01*
X93585714Y-46657142D01*
X93500000Y-46700000D01*
X93457142Y-46785714D01*
X93457142Y-46914285D01*
X93500000Y-47000000D01*
X95557142Y-33328571D02*
X94657142Y-33328571D01*
X94657142Y-33542857D01*
X94700000Y-33671428D01*
X94785714Y-33757142D01*
X94871428Y-33800000D01*
X95042857Y-33842857D01*
X95171428Y-33842857D01*
X95342857Y-33800000D01*
X95428571Y-33757142D01*
X95514285Y-33671428D01*
X95557142Y-33542857D01*
X95557142Y-33328571D01*
X95514285Y-34571428D02*
X95557142Y-34485714D01*
X95557142Y-34314285D01*
X95514285Y-34228571D01*
X95428571Y-34185714D01*
X95085714Y-34185714D01*
X95000000Y-34228571D01*
X94957142Y-34314285D01*
X94957142Y-34485714D01*
X95000000Y-34571428D01*
X95085714Y-34614285D01*
X95171428Y-34614285D01*
X95257142Y-34185714D01*
X95514285Y-34957142D02*
X95557142Y-35042857D01*
X95557142Y-35214285D01*
X95514285Y-35300000D01*
X95428571Y-35342857D01*
X95385714Y-35342857D01*
X95300000Y-35300000D01*
X95257142Y-35214285D01*
X95257142Y-35085714D01*
X95214285Y-35000000D01*
X95128571Y-34957142D01*
X95085714Y-34957142D01*
X95000000Y-35000000D01*
X94957142Y-35085714D01*
X94957142Y-35214285D01*
X95000000Y-35300000D01*
X95557142Y-35728571D02*
X94957142Y-35728571D01*
X94657142Y-35728571D02*
X94700000Y-35685714D01*
X94742857Y-35728571D01*
X94700000Y-35771428D01*
X94657142Y-35728571D01*
X94742857Y-35728571D01*
X94957142Y-36542857D02*
X95685714Y-36542857D01*
X95771428Y-36500000D01*
X95814285Y-36457142D01*
X95857142Y-36371428D01*
X95857142Y-36242857D01*
X95814285Y-36157142D01*
X95514285Y-36542857D02*
X95557142Y-36457142D01*
X95557142Y-36285714D01*
X95514285Y-36200000D01*
X95471428Y-36157142D01*
X95385714Y-36114285D01*
X95128571Y-36114285D01*
X95042857Y-36157142D01*
X95000000Y-36200000D01*
X94957142Y-36285714D01*
X94957142Y-36457142D01*
X95000000Y-36542857D01*
X94957142Y-36971428D02*
X95557142Y-36971428D01*
X95042857Y-36971428D02*
X95000000Y-37014285D01*
X94957142Y-37100000D01*
X94957142Y-37228571D01*
X95000000Y-37314285D01*
X95085714Y-37357142D01*
X95557142Y-37357142D01*
X95514285Y-38128571D02*
X95557142Y-38042857D01*
X95557142Y-37871428D01*
X95514285Y-37785714D01*
X95428571Y-37742857D01*
X95085714Y-37742857D01*
X95000000Y-37785714D01*
X94957142Y-37871428D01*
X94957142Y-38042857D01*
X95000000Y-38128571D01*
X95085714Y-38171428D01*
X95171428Y-38171428D01*
X95257142Y-37742857D01*
X95557142Y-38942857D02*
X94657142Y-38942857D01*
X95514285Y-38942857D02*
X95557142Y-38857142D01*
X95557142Y-38685714D01*
X95514285Y-38600000D01*
X95471428Y-38557142D01*
X95385714Y-38514285D01*
X95128571Y-38514285D01*
X95042857Y-38557142D01*
X95000000Y-38600000D01*
X94957142Y-38685714D01*
X94957142Y-38857142D01*
X95000000Y-38942857D01*
X95557142Y-40057142D02*
X94657142Y-40057142D01*
X95000000Y-40057142D02*
X94957142Y-40142857D01*
X94957142Y-40314285D01*
X95000000Y-40400000D01*
X95042857Y-40442857D01*
X95128571Y-40485714D01*
X95385714Y-40485714D01*
X95471428Y-40442857D01*
X95514285Y-40400000D01*
X95557142Y-40314285D01*
X95557142Y-40142857D01*
X95514285Y-40057142D01*
X94957142Y-40785714D02*
X95557142Y-41000000D01*
X94957142Y-41214285D02*
X95557142Y-41000000D01*
X95771428Y-40914285D01*
X95814285Y-40871428D01*
X95857142Y-40785714D01*
X95557142Y-42242857D02*
X94657142Y-42242857D01*
X95557142Y-42757142D01*
X94657142Y-42757142D01*
X95557142Y-43314285D02*
X95514285Y-43228571D01*
X95471428Y-43185714D01*
X95385714Y-43142857D01*
X95128571Y-43142857D01*
X95042857Y-43185714D01*
X95000000Y-43228571D01*
X94957142Y-43314285D01*
X94957142Y-43442857D01*
X95000000Y-43528571D01*
X95042857Y-43571428D01*
X95128571Y-43614285D01*
X95385714Y-43614285D01*
X95471428Y-43571428D01*
X95514285Y-43528571D01*
X95557142Y-43442857D01*
X95557142Y-43314285D01*
X95557142Y-44385714D02*
X95085714Y-44385714D01*
X95000000Y-44342857D01*
X94957142Y-44257142D01*
X94957142Y-44085714D01*
X95000000Y-44000000D01*
X95514285Y-44385714D02*
X95557142Y-44300000D01*
X95557142Y-44085714D01*
X95514285Y-44000000D01*
X95428571Y-43957142D01*
X95342857Y-43957142D01*
X95257142Y-44000000D01*
X95214285Y-44085714D01*
X95214285Y-44300000D01*
X95171428Y-44385714D01*
X95557142Y-44814285D02*
X94657142Y-44814285D01*
X95557142Y-45200000D02*
X95085714Y-45200000D01*
X95000000Y-45157142D01*
X94957142Y-45071428D01*
X94957142Y-44942857D01*
X95000000Y-44857142D01*
X95042857Y-44814285D01*
X95557142Y-46314285D02*
X94657142Y-46314285D01*
X94657142Y-46657142D01*
X94700000Y-46742857D01*
X94742857Y-46785714D01*
X94828571Y-46828571D01*
X94957142Y-46828571D01*
X95042857Y-46785714D01*
X95085714Y-46742857D01*
X95128571Y-46657142D01*
X95128571Y-46314285D01*
X95514285Y-47557142D02*
X95557142Y-47471428D01*
X95557142Y-47300000D01*
X95514285Y-47214285D01*
X95428571Y-47171428D01*
X95085714Y-47171428D01*
X95000000Y-47214285D01*
X94957142Y-47300000D01*
X94957142Y-47471428D01*
X95000000Y-47557142D01*
X95085714Y-47600000D01*
X95171428Y-47600000D01*
X95257142Y-47171428D01*
X95557142Y-48371428D02*
X95085714Y-48371428D01*
X95000000Y-48328571D01*
X94957142Y-48242857D01*
X94957142Y-48071428D01*
X95000000Y-47985714D01*
X95514285Y-48371428D02*
X95557142Y-48285714D01*
X95557142Y-48071428D01*
X95514285Y-47985714D01*
X95428571Y-47942857D01*
X95342857Y-47942857D01*
X95257142Y-47985714D01*
X95214285Y-48071428D01*
X95214285Y-48285714D01*
X95171428Y-48371428D01*
X95557142Y-48800000D02*
X94657142Y-48800000D01*
X95214285Y-48885714D02*
X95557142Y-49142857D01*
X94957142Y-49142857D02*
X95300000Y-48800000D01*
X95514285Y-49871428D02*
X95557142Y-49785714D01*
X95557142Y-49614285D01*
X95514285Y-49528571D01*
X95428571Y-49485714D01*
X95085714Y-49485714D01*
X95000000Y-49528571D01*
X94957142Y-49614285D01*
X94957142Y-49785714D01*
X95000000Y-49871428D01*
X95085714Y-49914285D01*
X95171428Y-49914285D01*
X95257142Y-49485714D01*
X97057142Y-38600000D02*
X97057142Y-38085714D01*
X97057142Y-38342857D02*
X96157142Y-38342857D01*
X96285714Y-38257142D01*
X96371428Y-38171428D01*
X96414285Y-38085714D01*
X97057142Y-39457142D02*
X97057142Y-38942857D01*
X97057142Y-39200000D02*
X96157142Y-39200000D01*
X96285714Y-39114285D01*
X96371428Y-39028571D01*
X96414285Y-38942857D01*
X96714285Y-39842857D02*
X96714285Y-40528571D01*
X96242857Y-40914285D02*
X96200000Y-40957142D01*
X96157142Y-41042857D01*
X96157142Y-41257142D01*
X96200000Y-41342857D01*
X96242857Y-41385714D01*
X96328571Y-41428571D01*
X96414285Y-41428571D01*
X96542857Y-41385714D01*
X97057142Y-40871428D01*
X97057142Y-41428571D01*
X96242857Y-41771428D02*
X96200000Y-41814285D01*
X96157142Y-41900000D01*
X96157142Y-42114285D01*
X96200000Y-42200000D01*
X96242857Y-42242857D01*
X96328571Y-42285714D01*
X96414285Y-42285714D01*
X96542857Y-42242857D01*
X97057142Y-41728571D01*
X97057142Y-42285714D01*
X96714285Y-42671428D02*
X96714285Y-43357142D01*
X97057142Y-44257142D02*
X97057142Y-43742857D01*
X97057142Y-44000000D02*
X96157142Y-44000000D01*
X96285714Y-43914285D01*
X96371428Y-43828571D01*
X96414285Y-43742857D01*
X97057142Y-44685714D02*
X97057142Y-44857142D01*
X97014285Y-44942857D01*
X96971428Y-44985714D01*
X96842857Y-45071428D01*
X96671428Y-45114285D01*
X96328571Y-45114285D01*
X96242857Y-45071428D01*
X96200000Y-45028571D01*
X96157142Y-44942857D01*
X96157142Y-44771428D01*
X96200000Y-44685714D01*
X96242857Y-44642857D01*
X96328571Y-44600000D01*
X96542857Y-44600000D01*
X96628571Y-44642857D01*
X96671428Y-44685714D01*
X96714285Y-44771428D01*
X96714285Y-44942857D01*
X96671428Y-45028571D01*
X96628571Y-45071428D01*
X96542857Y-45114285D01*
X52814285Y-17557142D02*
X52300000Y-17557142D01*
X52557142Y-18457142D02*
X52557142Y-17557142D01*
X52085714Y-17857142D02*
X51871428Y-18457142D01*
X51657142Y-17857142D02*
X51871428Y-18457142D01*
X51957142Y-18671428D01*
X52000000Y-18714285D01*
X52085714Y-18757142D01*
X51314285Y-17857142D02*
X51314285Y-18757142D01*
X51314285Y-17900000D02*
X51228571Y-17857142D01*
X51057142Y-17857142D01*
X50971428Y-17900000D01*
X50928571Y-17942857D01*
X50885714Y-18028571D01*
X50885714Y-18285714D01*
X50928571Y-18371428D01*
X50971428Y-18414285D01*
X51057142Y-18457142D01*
X51228571Y-18457142D01*
X51314285Y-18414285D01*
X50157142Y-18414285D02*
X50242857Y-18457142D01*
X50414285Y-18457142D01*
X50500000Y-18414285D01*
X50542857Y-18328571D01*
X50542857Y-17985714D01*
X50500000Y-17900000D01*
X50414285Y-17857142D01*
X50242857Y-17857142D01*
X50157142Y-17900000D01*
X50114285Y-17985714D01*
X50114285Y-18071428D01*
X50542857Y-18157142D01*
X48571428Y-18457142D02*
X49085714Y-18457142D01*
X48828571Y-18457142D02*
X48828571Y-17557142D01*
X48914285Y-17685714D01*
X49000000Y-17771428D01*
X49085714Y-17814285D01*
X47628571Y-17557142D02*
X47114285Y-17557142D01*
X47371428Y-18457142D02*
X47371428Y-17557142D01*
X46471428Y-18414285D02*
X46557142Y-18457142D01*
X46728571Y-18457142D01*
X46814285Y-18414285D01*
X46857142Y-18328571D01*
X46857142Y-17985714D01*
X46814285Y-17900000D01*
X46728571Y-17857142D01*
X46557142Y-17857142D01*
X46471428Y-17900000D01*
X46428571Y-17985714D01*
X46428571Y-18071428D01*
X46857142Y-18157142D01*
X46042857Y-18457142D02*
X46042857Y-17857142D01*
X46042857Y-18028571D02*
X46000000Y-17942857D01*
X45957142Y-17900000D01*
X45871428Y-17857142D01*
X45785714Y-17857142D01*
X45485714Y-18457142D02*
X45485714Y-17857142D01*
X45485714Y-17942857D02*
X45442857Y-17900000D01*
X45357142Y-17857142D01*
X45228571Y-17857142D01*
X45142857Y-17900000D01*
X45100000Y-17985714D01*
X45100000Y-18457142D01*
X45100000Y-17985714D02*
X45057142Y-17900000D01*
X44971428Y-17857142D01*
X44842857Y-17857142D01*
X44757142Y-17900000D01*
X44714285Y-17985714D01*
X44714285Y-18457142D01*
X44285714Y-18457142D02*
X44285714Y-17857142D01*
X44285714Y-17557142D02*
X44328571Y-17600000D01*
X44285714Y-17642857D01*
X44242857Y-17600000D01*
X44285714Y-17557142D01*
X44285714Y-17642857D01*
X43857142Y-17857142D02*
X43857142Y-18457142D01*
X43857142Y-17942857D02*
X43814285Y-17900000D01*
X43728571Y-17857142D01*
X43600000Y-17857142D01*
X43514285Y-17900000D01*
X43471428Y-17985714D01*
X43471428Y-18457142D01*
X42657142Y-18457142D02*
X42657142Y-17985714D01*
X42700000Y-17900000D01*
X42785714Y-17857142D01*
X42957142Y-17857142D01*
X43042857Y-17900000D01*
X42657142Y-18414285D02*
X42742857Y-18457142D01*
X42957142Y-18457142D01*
X43042857Y-18414285D01*
X43085714Y-18328571D01*
X43085714Y-18242857D01*
X43042857Y-18157142D01*
X42957142Y-18114285D01*
X42742857Y-18114285D01*
X42657142Y-18071428D01*
X42357142Y-17857142D02*
X42014285Y-17857142D01*
X42228571Y-17557142D02*
X42228571Y-18328571D01*
X42185714Y-18414285D01*
X42100000Y-18457142D01*
X42014285Y-18457142D01*
X41714285Y-18457142D02*
X41714285Y-17857142D01*
X41714285Y-17557142D02*
X41757142Y-17600000D01*
X41714285Y-17642857D01*
X41671428Y-17600000D01*
X41714285Y-17557142D01*
X41714285Y-17642857D01*
X41157142Y-18457142D02*
X41242857Y-18414285D01*
X41285714Y-18371428D01*
X41328571Y-18285714D01*
X41328571Y-18028571D01*
X41285714Y-17942857D01*
X41242857Y-17900000D01*
X41157142Y-17857142D01*
X41028571Y-17857142D01*
X40942857Y-17900000D01*
X40900000Y-17942857D01*
X40857142Y-18028571D01*
X40857142Y-18285714D01*
X40900000Y-18371428D01*
X40942857Y-18414285D01*
X41028571Y-18457142D01*
X41157142Y-18457142D01*
X40471428Y-17857142D02*
X40471428Y-18457142D01*
X40471428Y-17942857D02*
X40428571Y-17900000D01*
X40342857Y-17857142D01*
X40214285Y-17857142D01*
X40128571Y-17900000D01*
X40085714Y-17985714D01*
X40085714Y-18457142D01*
X38671428Y-17985714D02*
X38542857Y-18028571D01*
X38500000Y-18071428D01*
X38457142Y-18157142D01*
X38457142Y-18285714D01*
X38500000Y-18371428D01*
X38542857Y-18414285D01*
X38628571Y-18457142D01*
X38971428Y-18457142D01*
X38971428Y-17557142D01*
X38671428Y-17557142D01*
X38585714Y-17600000D01*
X38542857Y-17642857D01*
X38500000Y-17728571D01*
X38500000Y-17814285D01*
X38542857Y-17900000D01*
X38585714Y-17942857D01*
X38671428Y-17985714D01*
X38971428Y-17985714D01*
X37942857Y-18457142D02*
X38028571Y-18414285D01*
X38071428Y-18371428D01*
X38114285Y-18285714D01*
X38114285Y-18028571D01*
X38071428Y-17942857D01*
X38028571Y-17900000D01*
X37942857Y-17857142D01*
X37814285Y-17857142D01*
X37728571Y-17900000D01*
X37685714Y-17942857D01*
X37642857Y-18028571D01*
X37642857Y-18285714D01*
X37685714Y-18371428D01*
X37728571Y-18414285D01*
X37814285Y-18457142D01*
X37942857Y-18457142D01*
X36871428Y-18457142D02*
X36871428Y-17985714D01*
X36914285Y-17900000D01*
X37000000Y-17857142D01*
X37171428Y-17857142D01*
X37257142Y-17900000D01*
X36871428Y-18414285D02*
X36957142Y-18457142D01*
X37171428Y-18457142D01*
X37257142Y-18414285D01*
X37300000Y-18328571D01*
X37300000Y-18242857D01*
X37257142Y-18157142D01*
X37171428Y-18114285D01*
X36957142Y-18114285D01*
X36871428Y-18071428D01*
X36442857Y-18457142D02*
X36442857Y-17857142D01*
X36442857Y-18028571D02*
X36400000Y-17942857D01*
X36357142Y-17900000D01*
X36271428Y-17857142D01*
X36185714Y-17857142D01*
X35500000Y-18457142D02*
X35500000Y-17557142D01*
X35500000Y-18414285D02*
X35585714Y-18457142D01*
X35757142Y-18457142D01*
X35842857Y-18414285D01*
X35885714Y-18371428D01*
X35928571Y-18285714D01*
X35928571Y-18028571D01*
X35885714Y-17942857D01*
X35842857Y-17900000D01*
X35757142Y-17857142D01*
X35585714Y-17857142D01*
X35500000Y-17900000D01*
X34385714Y-18457142D02*
X34385714Y-17857142D01*
X34385714Y-17942857D02*
X34342857Y-17900000D01*
X34257142Y-17857142D01*
X34128571Y-17857142D01*
X34042857Y-17900000D01*
X34000000Y-17985714D01*
X34000000Y-18457142D01*
X34000000Y-17985714D02*
X33957142Y-17900000D01*
X33871428Y-17857142D01*
X33742857Y-17857142D01*
X33657142Y-17900000D01*
X33614285Y-17985714D01*
X33614285Y-18457142D01*
X32800000Y-18457142D02*
X32800000Y-17985714D01*
X32842857Y-17900000D01*
X32928571Y-17857142D01*
X33100000Y-17857142D01*
X33185714Y-17900000D01*
X32800000Y-18414285D02*
X32885714Y-18457142D01*
X33100000Y-18457142D01*
X33185714Y-18414285D01*
X33228571Y-18328571D01*
X33228571Y-18242857D01*
X33185714Y-18157142D01*
X33100000Y-18114285D01*
X32885714Y-18114285D01*
X32800000Y-18071428D01*
X32500000Y-17857142D02*
X32157142Y-17857142D01*
X32371428Y-17557142D02*
X32371428Y-18328571D01*
X32328571Y-18414285D01*
X32242857Y-18457142D01*
X32157142Y-18457142D01*
X31514285Y-18414285D02*
X31600000Y-18457142D01*
X31771428Y-18457142D01*
X31857142Y-18414285D01*
X31900000Y-18328571D01*
X31900000Y-17985714D01*
X31857142Y-17900000D01*
X31771428Y-17857142D01*
X31600000Y-17857142D01*
X31514285Y-17900000D01*
X31471428Y-17985714D01*
X31471428Y-18071428D01*
X31900000Y-18157142D01*
X47542857Y-19914285D02*
X47414285Y-19957142D01*
X47200000Y-19957142D01*
X47114285Y-19914285D01*
X47071428Y-19871428D01*
X47028571Y-19785714D01*
X47028571Y-19700000D01*
X47071428Y-19614285D01*
X47114285Y-19571428D01*
X47200000Y-19528571D01*
X47371428Y-19485714D01*
X47457142Y-19442857D01*
X47500000Y-19400000D01*
X47542857Y-19314285D01*
X47542857Y-19228571D01*
X47500000Y-19142857D01*
X47457142Y-19100000D01*
X47371428Y-19057142D01*
X47157142Y-19057142D01*
X47028571Y-19100000D01*
X46128571Y-19871428D02*
X46171428Y-19914285D01*
X46300000Y-19957142D01*
X46385714Y-19957142D01*
X46514285Y-19914285D01*
X46600000Y-19828571D01*
X46642857Y-19742857D01*
X46685714Y-19571428D01*
X46685714Y-19442857D01*
X46642857Y-19271428D01*
X46600000Y-19185714D01*
X46514285Y-19100000D01*
X46385714Y-19057142D01*
X46300000Y-19057142D01*
X46171428Y-19100000D01*
X46128571Y-19142857D01*
X45742857Y-19957142D02*
X45742857Y-19057142D01*
X45314285Y-19957142D02*
X45314285Y-19057142D01*
X44971428Y-19057142D01*
X44885714Y-19100000D01*
X44842857Y-19142857D01*
X44800000Y-19228571D01*
X44800000Y-19357142D01*
X44842857Y-19442857D01*
X44885714Y-19485714D01*
X44971428Y-19528571D01*
X45314285Y-19528571D01*
X44414285Y-19957142D02*
X44414285Y-19057142D01*
X44071428Y-19057142D01*
X43985714Y-19100000D01*
X43942857Y-19142857D01*
X43900000Y-19228571D01*
X43900000Y-19357142D01*
X43942857Y-19442857D01*
X43985714Y-19485714D01*
X44071428Y-19528571D01*
X44414285Y-19528571D01*
X42828571Y-19957142D02*
X42828571Y-19057142D01*
X42528571Y-19057142D02*
X42014285Y-19057142D01*
X42271428Y-19957142D02*
X42271428Y-19057142D01*
X41714285Y-19957142D02*
X41714285Y-19057142D01*
X41628571Y-19614285D02*
X41371428Y-19957142D01*
X41371428Y-19357142D02*
X41714285Y-19700000D01*
X40300000Y-19957142D02*
X40300000Y-19057142D01*
X39957142Y-19057142D01*
X39871428Y-19100000D01*
X39828571Y-19142857D01*
X39785714Y-19228571D01*
X39785714Y-19357142D01*
X39828571Y-19442857D01*
X39871428Y-19485714D01*
X39957142Y-19528571D01*
X40300000Y-19528571D01*
X39400000Y-19957142D02*
X39400000Y-19357142D01*
X39400000Y-19057142D02*
X39442857Y-19100000D01*
X39400000Y-19142857D01*
X39357142Y-19100000D01*
X39400000Y-19057142D01*
X39400000Y-19142857D01*
X39057142Y-19957142D02*
X38585714Y-19357142D01*
X39057142Y-19357142D02*
X38585714Y-19957142D01*
X37900000Y-19914285D02*
X37985714Y-19957142D01*
X38157142Y-19957142D01*
X38242857Y-19914285D01*
X38285714Y-19828571D01*
X38285714Y-19485714D01*
X38242857Y-19400000D01*
X38157142Y-19357142D01*
X37985714Y-19357142D01*
X37900000Y-19400000D01*
X37857142Y-19485714D01*
X37857142Y-19571428D01*
X38285714Y-19657142D01*
X37342857Y-19957142D02*
X37428571Y-19914285D01*
X37471428Y-19828571D01*
X37471428Y-19057142D01*
X37042857Y-19914285D02*
X36957142Y-19957142D01*
X36785714Y-19957142D01*
X36700000Y-19914285D01*
X36657142Y-19828571D01*
X36657142Y-19785714D01*
X36700000Y-19700000D01*
X36785714Y-19657142D01*
X36914285Y-19657142D01*
X37000000Y-19614285D01*
X37042857Y-19528571D01*
X37042857Y-19485714D01*
X37000000Y-19400000D01*
X36914285Y-19357142D01*
X36785714Y-19357142D01*
X36700000Y-19400000D01*
X50371428Y-21457142D02*
X50371428Y-20557142D01*
X50157142Y-20557142D01*
X50028571Y-20600000D01*
X49942857Y-20685714D01*
X49900000Y-20771428D01*
X49857142Y-20942857D01*
X49857142Y-21071428D01*
X49900000Y-21242857D01*
X49942857Y-21328571D01*
X50028571Y-21414285D01*
X50157142Y-21457142D01*
X50371428Y-21457142D01*
X49128571Y-21414285D02*
X49214285Y-21457142D01*
X49385714Y-21457142D01*
X49471428Y-21414285D01*
X49514285Y-21328571D01*
X49514285Y-20985714D01*
X49471428Y-20900000D01*
X49385714Y-20857142D01*
X49214285Y-20857142D01*
X49128571Y-20900000D01*
X49085714Y-20985714D01*
X49085714Y-21071428D01*
X49514285Y-21157142D01*
X48742857Y-21414285D02*
X48657142Y-21457142D01*
X48485714Y-21457142D01*
X48400000Y-21414285D01*
X48357142Y-21328571D01*
X48357142Y-21285714D01*
X48400000Y-21200000D01*
X48485714Y-21157142D01*
X48614285Y-21157142D01*
X48700000Y-21114285D01*
X48742857Y-21028571D01*
X48742857Y-20985714D01*
X48700000Y-20900000D01*
X48614285Y-20857142D01*
X48485714Y-20857142D01*
X48400000Y-20900000D01*
X47971428Y-21457142D02*
X47971428Y-20857142D01*
X47971428Y-20557142D02*
X48014285Y-20600000D01*
X47971428Y-20642857D01*
X47928571Y-20600000D01*
X47971428Y-20557142D01*
X47971428Y-20642857D01*
X47157142Y-20857142D02*
X47157142Y-21585714D01*
X47200000Y-21671428D01*
X47242857Y-21714285D01*
X47328571Y-21757142D01*
X47457142Y-21757142D01*
X47542857Y-21714285D01*
X47157142Y-21414285D02*
X47242857Y-21457142D01*
X47414285Y-21457142D01*
X47500000Y-21414285D01*
X47542857Y-21371428D01*
X47585714Y-21285714D01*
X47585714Y-21028571D01*
X47542857Y-20942857D01*
X47500000Y-20900000D01*
X47414285Y-20857142D01*
X47242857Y-20857142D01*
X47157142Y-20900000D01*
X46728571Y-20857142D02*
X46728571Y-21457142D01*
X46728571Y-20942857D02*
X46685714Y-20900000D01*
X46600000Y-20857142D01*
X46471428Y-20857142D01*
X46385714Y-20900000D01*
X46342857Y-20985714D01*
X46342857Y-21457142D01*
X45571428Y-21414285D02*
X45657142Y-21457142D01*
X45828571Y-21457142D01*
X45914285Y-21414285D01*
X45957142Y-21328571D01*
X45957142Y-20985714D01*
X45914285Y-20900000D01*
X45828571Y-20857142D01*
X45657142Y-20857142D01*
X45571428Y-20900000D01*
X45528571Y-20985714D01*
X45528571Y-21071428D01*
X45957142Y-21157142D01*
X44757142Y-21457142D02*
X44757142Y-20557142D01*
X44757142Y-21414285D02*
X44842857Y-21457142D01*
X45014285Y-21457142D01*
X45100000Y-21414285D01*
X45142857Y-21371428D01*
X45185714Y-21285714D01*
X45185714Y-21028571D01*
X45142857Y-20942857D01*
X45100000Y-20900000D01*
X45014285Y-20857142D01*
X44842857Y-20857142D01*
X44757142Y-20900000D01*
X43642857Y-21457142D02*
X43642857Y-20557142D01*
X43642857Y-20900000D02*
X43557142Y-20857142D01*
X43385714Y-20857142D01*
X43300000Y-20900000D01*
X43257142Y-20942857D01*
X43214285Y-21028571D01*
X43214285Y-21285714D01*
X43257142Y-21371428D01*
X43300000Y-21414285D01*
X43385714Y-21457142D01*
X43557142Y-21457142D01*
X43642857Y-21414285D01*
X42914285Y-20857142D02*
X42700000Y-21457142D01*
X42485714Y-20857142D02*
X42700000Y-21457142D01*
X42785714Y-21671428D01*
X42828571Y-21714285D01*
X42914285Y-21757142D01*
X41457142Y-21457142D02*
X41457142Y-20557142D01*
X40942857Y-21457142D01*
X40942857Y-20557142D01*
X40385714Y-21457142D02*
X40471428Y-21414285D01*
X40514285Y-21371428D01*
X40557142Y-21285714D01*
X40557142Y-21028571D01*
X40514285Y-20942857D01*
X40471428Y-20900000D01*
X40385714Y-20857142D01*
X40257142Y-20857142D01*
X40171428Y-20900000D01*
X40128571Y-20942857D01*
X40085714Y-21028571D01*
X40085714Y-21285714D01*
X40128571Y-21371428D01*
X40171428Y-21414285D01*
X40257142Y-21457142D01*
X40385714Y-21457142D01*
X39314285Y-21457142D02*
X39314285Y-20985714D01*
X39357142Y-20900000D01*
X39442857Y-20857142D01*
X39614285Y-20857142D01*
X39700000Y-20900000D01*
X39314285Y-21414285D02*
X39400000Y-21457142D01*
X39614285Y-21457142D01*
X39700000Y-21414285D01*
X39742857Y-21328571D01*
X39742857Y-21242857D01*
X39700000Y-21157142D01*
X39614285Y-21114285D01*
X39400000Y-21114285D01*
X39314285Y-21071428D01*
X38885714Y-21457142D02*
X38885714Y-20557142D01*
X38500000Y-21457142D02*
X38500000Y-20985714D01*
X38542857Y-20900000D01*
X38628571Y-20857142D01*
X38757142Y-20857142D01*
X38842857Y-20900000D01*
X38885714Y-20942857D01*
X37385714Y-21457142D02*
X37385714Y-20557142D01*
X37042857Y-20557142D01*
X36957142Y-20600000D01*
X36914285Y-20642857D01*
X36871428Y-20728571D01*
X36871428Y-20857142D01*
X36914285Y-20942857D01*
X36957142Y-20985714D01*
X37042857Y-21028571D01*
X37385714Y-21028571D01*
X36142857Y-21414285D02*
X36228571Y-21457142D01*
X36400000Y-21457142D01*
X36485714Y-21414285D01*
X36528571Y-21328571D01*
X36528571Y-20985714D01*
X36485714Y-20900000D01*
X36400000Y-20857142D01*
X36228571Y-20857142D01*
X36142857Y-20900000D01*
X36100000Y-20985714D01*
X36100000Y-21071428D01*
X36528571Y-21157142D01*
X35328571Y-21457142D02*
X35328571Y-20985714D01*
X35371428Y-20900000D01*
X35457142Y-20857142D01*
X35628571Y-20857142D01*
X35714285Y-20900000D01*
X35328571Y-21414285D02*
X35414285Y-21457142D01*
X35628571Y-21457142D01*
X35714285Y-21414285D01*
X35757142Y-21328571D01*
X35757142Y-21242857D01*
X35714285Y-21157142D01*
X35628571Y-21114285D01*
X35414285Y-21114285D01*
X35328571Y-21071428D01*
X34900000Y-21457142D02*
X34900000Y-20557142D01*
X34814285Y-21114285D02*
X34557142Y-21457142D01*
X34557142Y-20857142D02*
X34900000Y-21200000D01*
X33828571Y-21414285D02*
X33914285Y-21457142D01*
X34085714Y-21457142D01*
X34171428Y-21414285D01*
X34214285Y-21328571D01*
X34214285Y-20985714D01*
X34171428Y-20900000D01*
X34085714Y-20857142D01*
X33914285Y-20857142D01*
X33828571Y-20900000D01*
X33785714Y-20985714D01*
X33785714Y-21071428D01*
X34214285Y-21157142D01*
X45100000Y-22957142D02*
X45614285Y-22957142D01*
X45357142Y-22957142D02*
X45357142Y-22057142D01*
X45442857Y-22185714D01*
X45528571Y-22271428D01*
X45614285Y-22314285D01*
X44242857Y-22957142D02*
X44757142Y-22957142D01*
X44500000Y-22957142D02*
X44500000Y-22057142D01*
X44585714Y-22185714D01*
X44671428Y-22271428D01*
X44757142Y-22314285D01*
X43857142Y-22614285D02*
X43171428Y-22614285D01*
X42785714Y-22142857D02*
X42742857Y-22100000D01*
X42657142Y-22057142D01*
X42442857Y-22057142D01*
X42357142Y-22100000D01*
X42314285Y-22142857D01*
X42271428Y-22228571D01*
X42271428Y-22314285D01*
X42314285Y-22442857D01*
X42828571Y-22957142D01*
X42271428Y-22957142D01*
X41928571Y-22142857D02*
X41885714Y-22100000D01*
X41800000Y-22057142D01*
X41585714Y-22057142D01*
X41500000Y-22100000D01*
X41457142Y-22142857D01*
X41414285Y-22228571D01*
X41414285Y-22314285D01*
X41457142Y-22442857D01*
X41971428Y-22957142D01*
X41414285Y-22957142D01*
X41028571Y-22614285D02*
X40342857Y-22614285D01*
X39442857Y-22957142D02*
X39957142Y-22957142D01*
X39700000Y-22957142D02*
X39700000Y-22057142D01*
X39785714Y-22185714D01*
X39871428Y-22271428D01*
X39957142Y-22314285D01*
X39014285Y-22957142D02*
X38842857Y-22957142D01*
X38757142Y-22914285D01*
X38714285Y-22871428D01*
X38628571Y-22742857D01*
X38585714Y-22571428D01*
X38585714Y-22228571D01*
X38628571Y-22142857D01*
X38671428Y-22100000D01*
X38757142Y-22057142D01*
X38928571Y-22057142D01*
X39014285Y-22100000D01*
X39057142Y-22142857D01*
X39100000Y-22228571D01*
X39100000Y-22442857D01*
X39057142Y-22528571D01*
X39014285Y-22571428D01*
X38928571Y-22614285D01*
X38757142Y-22614285D01*
X38671428Y-22571428D01*
X38628571Y-22528571D01*
X38585714Y-22442857D01*
X73957142Y-30785714D02*
X73957142Y-31300000D01*
X74857142Y-31042857D02*
X73957142Y-31042857D01*
X74257142Y-31514285D02*
X74857142Y-31728571D01*
X74257142Y-31942857D02*
X74857142Y-31728571D01*
X75071428Y-31642857D01*
X75114285Y-31600000D01*
X75157142Y-31514285D01*
X74257142Y-32285714D02*
X75157142Y-32285714D01*
X74300000Y-32285714D02*
X74257142Y-32371428D01*
X74257142Y-32542857D01*
X74300000Y-32628571D01*
X74342857Y-32671428D01*
X74428571Y-32714285D01*
X74685714Y-32714285D01*
X74771428Y-32671428D01*
X74814285Y-32628571D01*
X74857142Y-32542857D01*
X74857142Y-32371428D01*
X74814285Y-32285714D01*
X74814285Y-33442857D02*
X74857142Y-33357142D01*
X74857142Y-33185714D01*
X74814285Y-33100000D01*
X74728571Y-33057142D01*
X74385714Y-33057142D01*
X74300000Y-33100000D01*
X74257142Y-33185714D01*
X74257142Y-33357142D01*
X74300000Y-33442857D01*
X74385714Y-33485714D01*
X74471428Y-33485714D01*
X74557142Y-33057142D01*
X74857142Y-35028571D02*
X74857142Y-34514285D01*
X74857142Y-34771428D02*
X73957142Y-34771428D01*
X74085714Y-34685714D01*
X74171428Y-34600000D01*
X74214285Y-34514285D01*
X73957142Y-35971428D02*
X73957142Y-36485714D01*
X74857142Y-36228571D02*
X73957142Y-36228571D01*
X74814285Y-37128571D02*
X74857142Y-37042857D01*
X74857142Y-36871428D01*
X74814285Y-36785714D01*
X74728571Y-36742857D01*
X74385714Y-36742857D01*
X74300000Y-36785714D01*
X74257142Y-36871428D01*
X74257142Y-37042857D01*
X74300000Y-37128571D01*
X74385714Y-37171428D01*
X74471428Y-37171428D01*
X74557142Y-36742857D01*
X74857142Y-37557142D02*
X74257142Y-37557142D01*
X74428571Y-37557142D02*
X74342857Y-37600000D01*
X74300000Y-37642857D01*
X74257142Y-37728571D01*
X74257142Y-37814285D01*
X74857142Y-38114285D02*
X74257142Y-38114285D01*
X74342857Y-38114285D02*
X74300000Y-38157142D01*
X74257142Y-38242857D01*
X74257142Y-38371428D01*
X74300000Y-38457142D01*
X74385714Y-38500000D01*
X74857142Y-38500000D01*
X74385714Y-38500000D02*
X74300000Y-38542857D01*
X74257142Y-38628571D01*
X74257142Y-38757142D01*
X74300000Y-38842857D01*
X74385714Y-38885714D01*
X74857142Y-38885714D01*
X74857142Y-39314285D02*
X74257142Y-39314285D01*
X73957142Y-39314285D02*
X74000000Y-39271428D01*
X74042857Y-39314285D01*
X74000000Y-39357142D01*
X73957142Y-39314285D01*
X74042857Y-39314285D01*
X74257142Y-39742857D02*
X74857142Y-39742857D01*
X74342857Y-39742857D02*
X74300000Y-39785714D01*
X74257142Y-39871428D01*
X74257142Y-40000000D01*
X74300000Y-40085714D01*
X74385714Y-40128571D01*
X74857142Y-40128571D01*
X74857142Y-40942857D02*
X74385714Y-40942857D01*
X74300000Y-40900000D01*
X74257142Y-40814285D01*
X74257142Y-40642857D01*
X74300000Y-40557142D01*
X74814285Y-40942857D02*
X74857142Y-40857142D01*
X74857142Y-40642857D01*
X74814285Y-40557142D01*
X74728571Y-40514285D01*
X74642857Y-40514285D01*
X74557142Y-40557142D01*
X74514285Y-40642857D01*
X74514285Y-40857142D01*
X74471428Y-40942857D01*
X74257142Y-41242857D02*
X74257142Y-41585714D01*
X73957142Y-41371428D02*
X74728571Y-41371428D01*
X74814285Y-41414285D01*
X74857142Y-41500000D01*
X74857142Y-41585714D01*
X74857142Y-41885714D02*
X74257142Y-41885714D01*
X73957142Y-41885714D02*
X74000000Y-41842857D01*
X74042857Y-41885714D01*
X74000000Y-41928571D01*
X73957142Y-41885714D01*
X74042857Y-41885714D01*
X74857142Y-42442857D02*
X74814285Y-42357142D01*
X74771428Y-42314285D01*
X74685714Y-42271428D01*
X74428571Y-42271428D01*
X74342857Y-42314285D01*
X74300000Y-42357142D01*
X74257142Y-42442857D01*
X74257142Y-42571428D01*
X74300000Y-42657142D01*
X74342857Y-42700000D01*
X74428571Y-42742857D01*
X74685714Y-42742857D01*
X74771428Y-42700000D01*
X74814285Y-42657142D01*
X74857142Y-42571428D01*
X74857142Y-42442857D01*
X74257142Y-43128571D02*
X74857142Y-43128571D01*
X74342857Y-43128571D02*
X74300000Y-43171428D01*
X74257142Y-43257142D01*
X74257142Y-43385714D01*
X74300000Y-43471428D01*
X74385714Y-43514285D01*
X74857142Y-43514285D01*
X74385714Y-44928571D02*
X74428571Y-45057142D01*
X74471428Y-45100000D01*
X74557142Y-45142857D01*
X74685714Y-45142857D01*
X74771428Y-45100000D01*
X74814285Y-45057142D01*
X74857142Y-44971428D01*
X74857142Y-44628571D01*
X73957142Y-44628571D01*
X73957142Y-44928571D01*
X74000000Y-45014285D01*
X74042857Y-45057142D01*
X74128571Y-45100000D01*
X74214285Y-45100000D01*
X74300000Y-45057142D01*
X74342857Y-45014285D01*
X74385714Y-44928571D01*
X74385714Y-44628571D01*
X74857142Y-45657142D02*
X74814285Y-45571428D01*
X74771428Y-45528571D01*
X74685714Y-45485714D01*
X74428571Y-45485714D01*
X74342857Y-45528571D01*
X74300000Y-45571428D01*
X74257142Y-45657142D01*
X74257142Y-45785714D01*
X74300000Y-45871428D01*
X74342857Y-45914285D01*
X74428571Y-45957142D01*
X74685714Y-45957142D01*
X74771428Y-45914285D01*
X74814285Y-45871428D01*
X74857142Y-45785714D01*
X74857142Y-45657142D01*
X74857142Y-46728571D02*
X74385714Y-46728571D01*
X74300000Y-46685714D01*
X74257142Y-46600000D01*
X74257142Y-46428571D01*
X74300000Y-46342857D01*
X74814285Y-46728571D02*
X74857142Y-46642857D01*
X74857142Y-46428571D01*
X74814285Y-46342857D01*
X74728571Y-46300000D01*
X74642857Y-46300000D01*
X74557142Y-46342857D01*
X74514285Y-46428571D01*
X74514285Y-46642857D01*
X74471428Y-46728571D01*
X74857142Y-47157142D02*
X74257142Y-47157142D01*
X74428571Y-47157142D02*
X74342857Y-47200000D01*
X74300000Y-47242857D01*
X74257142Y-47328571D01*
X74257142Y-47414285D01*
X74857142Y-48100000D02*
X73957142Y-48100000D01*
X74814285Y-48100000D02*
X74857142Y-48014285D01*
X74857142Y-47842857D01*
X74814285Y-47757142D01*
X74771428Y-47714285D01*
X74685714Y-47671428D01*
X74428571Y-47671428D01*
X74342857Y-47714285D01*
X74300000Y-47757142D01*
X74257142Y-47842857D01*
X74257142Y-48014285D01*
X74300000Y-48100000D01*
X74857142Y-49214285D02*
X74257142Y-49214285D01*
X74342857Y-49214285D02*
X74300000Y-49257142D01*
X74257142Y-49342857D01*
X74257142Y-49471428D01*
X74300000Y-49557142D01*
X74385714Y-49600000D01*
X74857142Y-49600000D01*
X74385714Y-49600000D02*
X74300000Y-49642857D01*
X74257142Y-49728571D01*
X74257142Y-49857142D01*
X74300000Y-49942857D01*
X74385714Y-49985714D01*
X74857142Y-49985714D01*
X74857142Y-50800000D02*
X74385714Y-50800000D01*
X74300000Y-50757142D01*
X74257142Y-50671428D01*
X74257142Y-50500000D01*
X74300000Y-50414285D01*
X74814285Y-50800000D02*
X74857142Y-50714285D01*
X74857142Y-50500000D01*
X74814285Y-50414285D01*
X74728571Y-50371428D01*
X74642857Y-50371428D01*
X74557142Y-50414285D01*
X74514285Y-50500000D01*
X74514285Y-50714285D01*
X74471428Y-50800000D01*
X74257142Y-51100000D02*
X74257142Y-51442857D01*
X73957142Y-51228571D02*
X74728571Y-51228571D01*
X74814285Y-51271428D01*
X74857142Y-51357142D01*
X74857142Y-51442857D01*
X74814285Y-52085714D02*
X74857142Y-52000000D01*
X74857142Y-51828571D01*
X74814285Y-51742857D01*
X74728571Y-51700000D01*
X74385714Y-51700000D01*
X74300000Y-51742857D01*
X74257142Y-51828571D01*
X74257142Y-52000000D01*
X74300000Y-52085714D01*
X74385714Y-52128571D01*
X74471428Y-52128571D01*
X74557142Y-51700000D01*
X76314285Y-36057142D02*
X76357142Y-36185714D01*
X76357142Y-36400000D01*
X76314285Y-36485714D01*
X76271428Y-36528571D01*
X76185714Y-36571428D01*
X76100000Y-36571428D01*
X76014285Y-36528571D01*
X75971428Y-36485714D01*
X75928571Y-36400000D01*
X75885714Y-36228571D01*
X75842857Y-36142857D01*
X75800000Y-36100000D01*
X75714285Y-36057142D01*
X75628571Y-36057142D01*
X75542857Y-36100000D01*
X75500000Y-36142857D01*
X75457142Y-36228571D01*
X75457142Y-36442857D01*
X75500000Y-36571428D01*
X76271428Y-37471428D02*
X76314285Y-37428571D01*
X76357142Y-37300000D01*
X76357142Y-37214285D01*
X76314285Y-37085714D01*
X76228571Y-37000000D01*
X76142857Y-36957142D01*
X75971428Y-36914285D01*
X75842857Y-36914285D01*
X75671428Y-36957142D01*
X75585714Y-37000000D01*
X75500000Y-37085714D01*
X75457142Y-37214285D01*
X75457142Y-37300000D01*
X75500000Y-37428571D01*
X75542857Y-37471428D01*
X76357142Y-37857142D02*
X75457142Y-37857142D01*
X76357142Y-38285714D02*
X75457142Y-38285714D01*
X75457142Y-38628571D01*
X75500000Y-38714285D01*
X75542857Y-38757142D01*
X75628571Y-38800000D01*
X75757142Y-38800000D01*
X75842857Y-38757142D01*
X75885714Y-38714285D01*
X75928571Y-38628571D01*
X75928571Y-38285714D01*
X76357142Y-39185714D02*
X75457142Y-39185714D01*
X75457142Y-39528571D01*
X75500000Y-39614285D01*
X75542857Y-39657142D01*
X75628571Y-39700000D01*
X75757142Y-39700000D01*
X75842857Y-39657142D01*
X75885714Y-39614285D01*
X75928571Y-39528571D01*
X75928571Y-39185714D01*
X76357142Y-40771428D02*
X75457142Y-40771428D01*
X75457142Y-41071428D02*
X75457142Y-41585714D01*
X76357142Y-41328571D02*
X75457142Y-41328571D01*
X76357142Y-41885714D02*
X75457142Y-41885714D01*
X76014285Y-41971428D02*
X76357142Y-42228571D01*
X75757142Y-42228571D02*
X76100000Y-41885714D01*
X76357142Y-43300000D02*
X75457142Y-43300000D01*
X75457142Y-43642857D01*
X75500000Y-43728571D01*
X75542857Y-43771428D01*
X75628571Y-43814285D01*
X75757142Y-43814285D01*
X75842857Y-43771428D01*
X75885714Y-43728571D01*
X75928571Y-43642857D01*
X75928571Y-43300000D01*
X76357142Y-44200000D02*
X75757142Y-44200000D01*
X75457142Y-44200000D02*
X75500000Y-44157142D01*
X75542857Y-44200000D01*
X75500000Y-44242857D01*
X75457142Y-44200000D01*
X75542857Y-44200000D01*
X76357142Y-44542857D02*
X75757142Y-45014285D01*
X75757142Y-44542857D02*
X76357142Y-45014285D01*
X76314285Y-45700000D02*
X76357142Y-45614285D01*
X76357142Y-45442857D01*
X76314285Y-45357142D01*
X76228571Y-45314285D01*
X75885714Y-45314285D01*
X75800000Y-45357142D01*
X75757142Y-45442857D01*
X75757142Y-45614285D01*
X75800000Y-45700000D01*
X75885714Y-45742857D01*
X75971428Y-45742857D01*
X76057142Y-45314285D01*
X76357142Y-46257142D02*
X76314285Y-46171428D01*
X76228571Y-46128571D01*
X75457142Y-46128571D01*
X76314285Y-46557142D02*
X76357142Y-46642857D01*
X76357142Y-46814285D01*
X76314285Y-46900000D01*
X76228571Y-46942857D01*
X76185714Y-46942857D01*
X76100000Y-46900000D01*
X76057142Y-46814285D01*
X76057142Y-46685714D01*
X76014285Y-46600000D01*
X75928571Y-46557142D01*
X75885714Y-46557142D01*
X75800000Y-46600000D01*
X75757142Y-46685714D01*
X75757142Y-46814285D01*
X75800000Y-46900000D01*
X77857142Y-33228571D02*
X76957142Y-33228571D01*
X76957142Y-33442857D01*
X77000000Y-33571428D01*
X77085714Y-33657142D01*
X77171428Y-33700000D01*
X77342857Y-33742857D01*
X77471428Y-33742857D01*
X77642857Y-33700000D01*
X77728571Y-33657142D01*
X77814285Y-33571428D01*
X77857142Y-33442857D01*
X77857142Y-33228571D01*
X77814285Y-34471428D02*
X77857142Y-34385714D01*
X77857142Y-34214285D01*
X77814285Y-34128571D01*
X77728571Y-34085714D01*
X77385714Y-34085714D01*
X77300000Y-34128571D01*
X77257142Y-34214285D01*
X77257142Y-34385714D01*
X77300000Y-34471428D01*
X77385714Y-34514285D01*
X77471428Y-34514285D01*
X77557142Y-34085714D01*
X77814285Y-34857142D02*
X77857142Y-34942857D01*
X77857142Y-35114285D01*
X77814285Y-35200000D01*
X77728571Y-35242857D01*
X77685714Y-35242857D01*
X77600000Y-35200000D01*
X77557142Y-35114285D01*
X77557142Y-34985714D01*
X77514285Y-34900000D01*
X77428571Y-34857142D01*
X77385714Y-34857142D01*
X77300000Y-34900000D01*
X77257142Y-34985714D01*
X77257142Y-35114285D01*
X77300000Y-35200000D01*
X77857142Y-35628571D02*
X77257142Y-35628571D01*
X76957142Y-35628571D02*
X77000000Y-35585714D01*
X77042857Y-35628571D01*
X77000000Y-35671428D01*
X76957142Y-35628571D01*
X77042857Y-35628571D01*
X77257142Y-36442857D02*
X77985714Y-36442857D01*
X78071428Y-36400000D01*
X78114285Y-36357142D01*
X78157142Y-36271428D01*
X78157142Y-36142857D01*
X78114285Y-36057142D01*
X77814285Y-36442857D02*
X77857142Y-36357142D01*
X77857142Y-36185714D01*
X77814285Y-36100000D01*
X77771428Y-36057142D01*
X77685714Y-36014285D01*
X77428571Y-36014285D01*
X77342857Y-36057142D01*
X77300000Y-36100000D01*
X77257142Y-36185714D01*
X77257142Y-36357142D01*
X77300000Y-36442857D01*
X77257142Y-36871428D02*
X77857142Y-36871428D01*
X77342857Y-36871428D02*
X77300000Y-36914285D01*
X77257142Y-37000000D01*
X77257142Y-37128571D01*
X77300000Y-37214285D01*
X77385714Y-37257142D01*
X77857142Y-37257142D01*
X77814285Y-38028571D02*
X77857142Y-37942857D01*
X77857142Y-37771428D01*
X77814285Y-37685714D01*
X77728571Y-37642857D01*
X77385714Y-37642857D01*
X77300000Y-37685714D01*
X77257142Y-37771428D01*
X77257142Y-37942857D01*
X77300000Y-38028571D01*
X77385714Y-38071428D01*
X77471428Y-38071428D01*
X77557142Y-37642857D01*
X77857142Y-38842857D02*
X76957142Y-38842857D01*
X77814285Y-38842857D02*
X77857142Y-38757142D01*
X77857142Y-38585714D01*
X77814285Y-38500000D01*
X77771428Y-38457142D01*
X77685714Y-38414285D01*
X77428571Y-38414285D01*
X77342857Y-38457142D01*
X77300000Y-38500000D01*
X77257142Y-38585714D01*
X77257142Y-38757142D01*
X77300000Y-38842857D01*
X77857142Y-39957142D02*
X76957142Y-39957142D01*
X77300000Y-39957142D02*
X77257142Y-40042857D01*
X77257142Y-40214285D01*
X77300000Y-40300000D01*
X77342857Y-40342857D01*
X77428571Y-40385714D01*
X77685714Y-40385714D01*
X77771428Y-40342857D01*
X77814285Y-40300000D01*
X77857142Y-40214285D01*
X77857142Y-40042857D01*
X77814285Y-39957142D01*
X77257142Y-40685714D02*
X77857142Y-40900000D01*
X77257142Y-41114285D02*
X77857142Y-40900000D01*
X78071428Y-40814285D01*
X78114285Y-40771428D01*
X78157142Y-40685714D01*
X77857142Y-42142857D02*
X76957142Y-42142857D01*
X77857142Y-42657142D01*
X76957142Y-42657142D01*
X77857142Y-43214285D02*
X77814285Y-43128571D01*
X77771428Y-43085714D01*
X77685714Y-43042857D01*
X77428571Y-43042857D01*
X77342857Y-43085714D01*
X77300000Y-43128571D01*
X77257142Y-43214285D01*
X77257142Y-43342857D01*
X77300000Y-43428571D01*
X77342857Y-43471428D01*
X77428571Y-43514285D01*
X77685714Y-43514285D01*
X77771428Y-43471428D01*
X77814285Y-43428571D01*
X77857142Y-43342857D01*
X77857142Y-43214285D01*
X77857142Y-44285714D02*
X77385714Y-44285714D01*
X77300000Y-44242857D01*
X77257142Y-44157142D01*
X77257142Y-43985714D01*
X77300000Y-43900000D01*
X77814285Y-44285714D02*
X77857142Y-44200000D01*
X77857142Y-43985714D01*
X77814285Y-43900000D01*
X77728571Y-43857142D01*
X77642857Y-43857142D01*
X77557142Y-43900000D01*
X77514285Y-43985714D01*
X77514285Y-44200000D01*
X77471428Y-44285714D01*
X77857142Y-44714285D02*
X76957142Y-44714285D01*
X77857142Y-45100000D02*
X77385714Y-45100000D01*
X77300000Y-45057142D01*
X77257142Y-44971428D01*
X77257142Y-44842857D01*
X77300000Y-44757142D01*
X77342857Y-44714285D01*
X77857142Y-46214285D02*
X76957142Y-46214285D01*
X76957142Y-46557142D01*
X77000000Y-46642857D01*
X77042857Y-46685714D01*
X77128571Y-46728571D01*
X77257142Y-46728571D01*
X77342857Y-46685714D01*
X77385714Y-46642857D01*
X77428571Y-46557142D01*
X77428571Y-46214285D01*
X77814285Y-47457142D02*
X77857142Y-47371428D01*
X77857142Y-47200000D01*
X77814285Y-47114285D01*
X77728571Y-47071428D01*
X77385714Y-47071428D01*
X77300000Y-47114285D01*
X77257142Y-47200000D01*
X77257142Y-47371428D01*
X77300000Y-47457142D01*
X77385714Y-47500000D01*
X77471428Y-47500000D01*
X77557142Y-47071428D01*
X77857142Y-48271428D02*
X77385714Y-48271428D01*
X77300000Y-48228571D01*
X77257142Y-48142857D01*
X77257142Y-47971428D01*
X77300000Y-47885714D01*
X77814285Y-48271428D02*
X77857142Y-48185714D01*
X77857142Y-47971428D01*
X77814285Y-47885714D01*
X77728571Y-47842857D01*
X77642857Y-47842857D01*
X77557142Y-47885714D01*
X77514285Y-47971428D01*
X77514285Y-48185714D01*
X77471428Y-48271428D01*
X77857142Y-48700000D02*
X76957142Y-48700000D01*
X77514285Y-48785714D02*
X77857142Y-49042857D01*
X77257142Y-49042857D02*
X77600000Y-48700000D01*
X77814285Y-49771428D02*
X77857142Y-49685714D01*
X77857142Y-49514285D01*
X77814285Y-49428571D01*
X77728571Y-49385714D01*
X77385714Y-49385714D01*
X77300000Y-49428571D01*
X77257142Y-49514285D01*
X77257142Y-49685714D01*
X77300000Y-49771428D01*
X77385714Y-49814285D01*
X77471428Y-49814285D01*
X77557142Y-49385714D01*
X79357142Y-38500000D02*
X79357142Y-37985714D01*
X79357142Y-38242857D02*
X78457142Y-38242857D01*
X78585714Y-38157142D01*
X78671428Y-38071428D01*
X78714285Y-37985714D01*
X79357142Y-39357142D02*
X79357142Y-38842857D01*
X79357142Y-39100000D02*
X78457142Y-39100000D01*
X78585714Y-39014285D01*
X78671428Y-38928571D01*
X78714285Y-38842857D01*
X79014285Y-39742857D02*
X79014285Y-40428571D01*
X78542857Y-40814285D02*
X78500000Y-40857142D01*
X78457142Y-40942857D01*
X78457142Y-41157142D01*
X78500000Y-41242857D01*
X78542857Y-41285714D01*
X78628571Y-41328571D01*
X78714285Y-41328571D01*
X78842857Y-41285714D01*
X79357142Y-40771428D01*
X79357142Y-41328571D01*
X78542857Y-41671428D02*
X78500000Y-41714285D01*
X78457142Y-41800000D01*
X78457142Y-42014285D01*
X78500000Y-42100000D01*
X78542857Y-42142857D01*
X78628571Y-42185714D01*
X78714285Y-42185714D01*
X78842857Y-42142857D01*
X79357142Y-41628571D01*
X79357142Y-42185714D01*
X79014285Y-42571428D02*
X79014285Y-43257142D01*
X79357142Y-44157142D02*
X79357142Y-43642857D01*
X79357142Y-43900000D02*
X78457142Y-43900000D01*
X78585714Y-43814285D01*
X78671428Y-43728571D01*
X78714285Y-43642857D01*
X79357142Y-44585714D02*
X79357142Y-44757142D01*
X79314285Y-44842857D01*
X79271428Y-44885714D01*
X79142857Y-44971428D01*
X78971428Y-45014285D01*
X78628571Y-45014285D01*
X78542857Y-44971428D01*
X78500000Y-44928571D01*
X78457142Y-44842857D01*
X78457142Y-44671428D01*
X78500000Y-44585714D01*
X78542857Y-44542857D01*
X78628571Y-44500000D01*
X78842857Y-44500000D01*
X78928571Y-44542857D01*
X78971428Y-44585714D01*
X79014285Y-44671428D01*
X79014285Y-44842857D01*
X78971428Y-44928571D01*
X78928571Y-44971428D01*
X78842857Y-45014285D01*
X52814285Y-35357142D02*
X52300000Y-35357142D01*
X52557142Y-36257142D02*
X52557142Y-35357142D01*
X52085714Y-35657142D02*
X51871428Y-36257142D01*
X51657142Y-35657142D02*
X51871428Y-36257142D01*
X51957142Y-36471428D01*
X52000000Y-36514285D01*
X52085714Y-36557142D01*
X51314285Y-35657142D02*
X51314285Y-36557142D01*
X51314285Y-35700000D02*
X51228571Y-35657142D01*
X51057142Y-35657142D01*
X50971428Y-35700000D01*
X50928571Y-35742857D01*
X50885714Y-35828571D01*
X50885714Y-36085714D01*
X50928571Y-36171428D01*
X50971428Y-36214285D01*
X51057142Y-36257142D01*
X51228571Y-36257142D01*
X51314285Y-36214285D01*
X50157142Y-36214285D02*
X50242857Y-36257142D01*
X50414285Y-36257142D01*
X50500000Y-36214285D01*
X50542857Y-36128571D01*
X50542857Y-35785714D01*
X50500000Y-35700000D01*
X50414285Y-35657142D01*
X50242857Y-35657142D01*
X50157142Y-35700000D01*
X50114285Y-35785714D01*
X50114285Y-35871428D01*
X50542857Y-35957142D01*
X48571428Y-36257142D02*
X49085714Y-36257142D01*
X48828571Y-36257142D02*
X48828571Y-35357142D01*
X48914285Y-35485714D01*
X49000000Y-35571428D01*
X49085714Y-35614285D01*
X47628571Y-35357142D02*
X47114285Y-35357142D01*
X47371428Y-36257142D02*
X47371428Y-35357142D01*
X46471428Y-36214285D02*
X46557142Y-36257142D01*
X46728571Y-36257142D01*
X46814285Y-36214285D01*
X46857142Y-36128571D01*
X46857142Y-35785714D01*
X46814285Y-35700000D01*
X46728571Y-35657142D01*
X46557142Y-35657142D01*
X46471428Y-35700000D01*
X46428571Y-35785714D01*
X46428571Y-35871428D01*
X46857142Y-35957142D01*
X46042857Y-36257142D02*
X46042857Y-35657142D01*
X46042857Y-35828571D02*
X46000000Y-35742857D01*
X45957142Y-35700000D01*
X45871428Y-35657142D01*
X45785714Y-35657142D01*
X45485714Y-36257142D02*
X45485714Y-35657142D01*
X45485714Y-35742857D02*
X45442857Y-35700000D01*
X45357142Y-35657142D01*
X45228571Y-35657142D01*
X45142857Y-35700000D01*
X45100000Y-35785714D01*
X45100000Y-36257142D01*
X45100000Y-35785714D02*
X45057142Y-35700000D01*
X44971428Y-35657142D01*
X44842857Y-35657142D01*
X44757142Y-35700000D01*
X44714285Y-35785714D01*
X44714285Y-36257142D01*
X44285714Y-36257142D02*
X44285714Y-35657142D01*
X44285714Y-35357142D02*
X44328571Y-35400000D01*
X44285714Y-35442857D01*
X44242857Y-35400000D01*
X44285714Y-35357142D01*
X44285714Y-35442857D01*
X43857142Y-35657142D02*
X43857142Y-36257142D01*
X43857142Y-35742857D02*
X43814285Y-35700000D01*
X43728571Y-35657142D01*
X43600000Y-35657142D01*
X43514285Y-35700000D01*
X43471428Y-35785714D01*
X43471428Y-36257142D01*
X42657142Y-36257142D02*
X42657142Y-35785714D01*
X42700000Y-35700000D01*
X42785714Y-35657142D01*
X42957142Y-35657142D01*
X43042857Y-35700000D01*
X42657142Y-36214285D02*
X42742857Y-36257142D01*
X42957142Y-36257142D01*
X43042857Y-36214285D01*
X43085714Y-36128571D01*
X43085714Y-36042857D01*
X43042857Y-35957142D01*
X42957142Y-35914285D01*
X42742857Y-35914285D01*
X42657142Y-35871428D01*
X42357142Y-35657142D02*
X42014285Y-35657142D01*
X42228571Y-35357142D02*
X42228571Y-36128571D01*
X42185714Y-36214285D01*
X42100000Y-36257142D01*
X42014285Y-36257142D01*
X41714285Y-36257142D02*
X41714285Y-35657142D01*
X41714285Y-35357142D02*
X41757142Y-35400000D01*
X41714285Y-35442857D01*
X41671428Y-35400000D01*
X41714285Y-35357142D01*
X41714285Y-35442857D01*
X41157142Y-36257142D02*
X41242857Y-36214285D01*
X41285714Y-36171428D01*
X41328571Y-36085714D01*
X41328571Y-35828571D01*
X41285714Y-35742857D01*
X41242857Y-35700000D01*
X41157142Y-35657142D01*
X41028571Y-35657142D01*
X40942857Y-35700000D01*
X40900000Y-35742857D01*
X40857142Y-35828571D01*
X40857142Y-36085714D01*
X40900000Y-36171428D01*
X40942857Y-36214285D01*
X41028571Y-36257142D01*
X41157142Y-36257142D01*
X40471428Y-35657142D02*
X40471428Y-36257142D01*
X40471428Y-35742857D02*
X40428571Y-35700000D01*
X40342857Y-35657142D01*
X40214285Y-35657142D01*
X40128571Y-35700000D01*
X40085714Y-35785714D01*
X40085714Y-36257142D01*
X38671428Y-35785714D02*
X38542857Y-35828571D01*
X38500000Y-35871428D01*
X38457142Y-35957142D01*
X38457142Y-36085714D01*
X38500000Y-36171428D01*
X38542857Y-36214285D01*
X38628571Y-36257142D01*
X38971428Y-36257142D01*
X38971428Y-35357142D01*
X38671428Y-35357142D01*
X38585714Y-35400000D01*
X38542857Y-35442857D01*
X38500000Y-35528571D01*
X38500000Y-35614285D01*
X38542857Y-35700000D01*
X38585714Y-35742857D01*
X38671428Y-35785714D01*
X38971428Y-35785714D01*
X37942857Y-36257142D02*
X38028571Y-36214285D01*
X38071428Y-36171428D01*
X38114285Y-36085714D01*
X38114285Y-35828571D01*
X38071428Y-35742857D01*
X38028571Y-35700000D01*
X37942857Y-35657142D01*
X37814285Y-35657142D01*
X37728571Y-35700000D01*
X37685714Y-35742857D01*
X37642857Y-35828571D01*
X37642857Y-36085714D01*
X37685714Y-36171428D01*
X37728571Y-36214285D01*
X37814285Y-36257142D01*
X37942857Y-36257142D01*
X36871428Y-36257142D02*
X36871428Y-35785714D01*
X36914285Y-35700000D01*
X37000000Y-35657142D01*
X37171428Y-35657142D01*
X37257142Y-35700000D01*
X36871428Y-36214285D02*
X36957142Y-36257142D01*
X37171428Y-36257142D01*
X37257142Y-36214285D01*
X37300000Y-36128571D01*
X37300000Y-36042857D01*
X37257142Y-35957142D01*
X37171428Y-35914285D01*
X36957142Y-35914285D01*
X36871428Y-35871428D01*
X36442857Y-36257142D02*
X36442857Y-35657142D01*
X36442857Y-35828571D02*
X36400000Y-35742857D01*
X36357142Y-35700000D01*
X36271428Y-35657142D01*
X36185714Y-35657142D01*
X35500000Y-36257142D02*
X35500000Y-35357142D01*
X35500000Y-36214285D02*
X35585714Y-36257142D01*
X35757142Y-36257142D01*
X35842857Y-36214285D01*
X35885714Y-36171428D01*
X35928571Y-36085714D01*
X35928571Y-35828571D01*
X35885714Y-35742857D01*
X35842857Y-35700000D01*
X35757142Y-35657142D01*
X35585714Y-35657142D01*
X35500000Y-35700000D01*
X34385714Y-36257142D02*
X34385714Y-35657142D01*
X34385714Y-35742857D02*
X34342857Y-35700000D01*
X34257142Y-35657142D01*
X34128571Y-35657142D01*
X34042857Y-35700000D01*
X34000000Y-35785714D01*
X34000000Y-36257142D01*
X34000000Y-35785714D02*
X33957142Y-35700000D01*
X33871428Y-35657142D01*
X33742857Y-35657142D01*
X33657142Y-35700000D01*
X33614285Y-35785714D01*
X33614285Y-36257142D01*
X32800000Y-36257142D02*
X32800000Y-35785714D01*
X32842857Y-35700000D01*
X32928571Y-35657142D01*
X33100000Y-35657142D01*
X33185714Y-35700000D01*
X32800000Y-36214285D02*
X32885714Y-36257142D01*
X33100000Y-36257142D01*
X33185714Y-36214285D01*
X33228571Y-36128571D01*
X33228571Y-36042857D01*
X33185714Y-35957142D01*
X33100000Y-35914285D01*
X32885714Y-35914285D01*
X32800000Y-35871428D01*
X32500000Y-35657142D02*
X32157142Y-35657142D01*
X32371428Y-35357142D02*
X32371428Y-36128571D01*
X32328571Y-36214285D01*
X32242857Y-36257142D01*
X32157142Y-36257142D01*
X31514285Y-36214285D02*
X31600000Y-36257142D01*
X31771428Y-36257142D01*
X31857142Y-36214285D01*
X31900000Y-36128571D01*
X31900000Y-35785714D01*
X31857142Y-35700000D01*
X31771428Y-35657142D01*
X31600000Y-35657142D01*
X31514285Y-35700000D01*
X31471428Y-35785714D01*
X31471428Y-35871428D01*
X31900000Y-35957142D01*
X47542857Y-37714285D02*
X47414285Y-37757142D01*
X47200000Y-37757142D01*
X47114285Y-37714285D01*
X47071428Y-37671428D01*
X47028571Y-37585714D01*
X47028571Y-37500000D01*
X47071428Y-37414285D01*
X47114285Y-37371428D01*
X47200000Y-37328571D01*
X47371428Y-37285714D01*
X47457142Y-37242857D01*
X47500000Y-37200000D01*
X47542857Y-37114285D01*
X47542857Y-37028571D01*
X47500000Y-36942857D01*
X47457142Y-36900000D01*
X47371428Y-36857142D01*
X47157142Y-36857142D01*
X47028571Y-36900000D01*
X46128571Y-37671428D02*
X46171428Y-37714285D01*
X46300000Y-37757142D01*
X46385714Y-37757142D01*
X46514285Y-37714285D01*
X46600000Y-37628571D01*
X46642857Y-37542857D01*
X46685714Y-37371428D01*
X46685714Y-37242857D01*
X46642857Y-37071428D01*
X46600000Y-36985714D01*
X46514285Y-36900000D01*
X46385714Y-36857142D01*
X46300000Y-36857142D01*
X46171428Y-36900000D01*
X46128571Y-36942857D01*
X45742857Y-37757142D02*
X45742857Y-36857142D01*
X45314285Y-37757142D02*
X45314285Y-36857142D01*
X44971428Y-36857142D01*
X44885714Y-36900000D01*
X44842857Y-36942857D01*
X44800000Y-37028571D01*
X44800000Y-37157142D01*
X44842857Y-37242857D01*
X44885714Y-37285714D01*
X44971428Y-37328571D01*
X45314285Y-37328571D01*
X44414285Y-37757142D02*
X44414285Y-36857142D01*
X44071428Y-36857142D01*
X43985714Y-36900000D01*
X43942857Y-36942857D01*
X43900000Y-37028571D01*
X43900000Y-37157142D01*
X43942857Y-37242857D01*
X43985714Y-37285714D01*
X44071428Y-37328571D01*
X44414285Y-37328571D01*
X42828571Y-37757142D02*
X42828571Y-36857142D01*
X42528571Y-36857142D02*
X42014285Y-36857142D01*
X42271428Y-37757142D02*
X42271428Y-36857142D01*
X41714285Y-37757142D02*
X41714285Y-36857142D01*
X41628571Y-37414285D02*
X41371428Y-37757142D01*
X41371428Y-37157142D02*
X41714285Y-37500000D01*
X40300000Y-37757142D02*
X40300000Y-36857142D01*
X39957142Y-36857142D01*
X39871428Y-36900000D01*
X39828571Y-36942857D01*
X39785714Y-37028571D01*
X39785714Y-37157142D01*
X39828571Y-37242857D01*
X39871428Y-37285714D01*
X39957142Y-37328571D01*
X40300000Y-37328571D01*
X39400000Y-37757142D02*
X39400000Y-37157142D01*
X39400000Y-36857142D02*
X39442857Y-36900000D01*
X39400000Y-36942857D01*
X39357142Y-36900000D01*
X39400000Y-36857142D01*
X39400000Y-36942857D01*
X39057142Y-37757142D02*
X38585714Y-37157142D01*
X39057142Y-37157142D02*
X38585714Y-37757142D01*
X37900000Y-37714285D02*
X37985714Y-37757142D01*
X38157142Y-37757142D01*
X38242857Y-37714285D01*
X38285714Y-37628571D01*
X38285714Y-37285714D01*
X38242857Y-37200000D01*
X38157142Y-37157142D01*
X37985714Y-37157142D01*
X37900000Y-37200000D01*
X37857142Y-37285714D01*
X37857142Y-37371428D01*
X38285714Y-37457142D01*
X37342857Y-37757142D02*
X37428571Y-37714285D01*
X37471428Y-37628571D01*
X37471428Y-36857142D01*
X37042857Y-37714285D02*
X36957142Y-37757142D01*
X36785714Y-37757142D01*
X36700000Y-37714285D01*
X36657142Y-37628571D01*
X36657142Y-37585714D01*
X36700000Y-37500000D01*
X36785714Y-37457142D01*
X36914285Y-37457142D01*
X37000000Y-37414285D01*
X37042857Y-37328571D01*
X37042857Y-37285714D01*
X37000000Y-37200000D01*
X36914285Y-37157142D01*
X36785714Y-37157142D01*
X36700000Y-37200000D01*
X50371428Y-39257142D02*
X50371428Y-38357142D01*
X50157142Y-38357142D01*
X50028571Y-38400000D01*
X49942857Y-38485714D01*
X49900000Y-38571428D01*
X49857142Y-38742857D01*
X49857142Y-38871428D01*
X49900000Y-39042857D01*
X49942857Y-39128571D01*
X50028571Y-39214285D01*
X50157142Y-39257142D01*
X50371428Y-39257142D01*
X49128571Y-39214285D02*
X49214285Y-39257142D01*
X49385714Y-39257142D01*
X49471428Y-39214285D01*
X49514285Y-39128571D01*
X49514285Y-38785714D01*
X49471428Y-38700000D01*
X49385714Y-38657142D01*
X49214285Y-38657142D01*
X49128571Y-38700000D01*
X49085714Y-38785714D01*
X49085714Y-38871428D01*
X49514285Y-38957142D01*
X48742857Y-39214285D02*
X48657142Y-39257142D01*
X48485714Y-39257142D01*
X48400000Y-39214285D01*
X48357142Y-39128571D01*
X48357142Y-39085714D01*
X48400000Y-39000000D01*
X48485714Y-38957142D01*
X48614285Y-38957142D01*
X48700000Y-38914285D01*
X48742857Y-38828571D01*
X48742857Y-38785714D01*
X48700000Y-38700000D01*
X48614285Y-38657142D01*
X48485714Y-38657142D01*
X48400000Y-38700000D01*
X47971428Y-39257142D02*
X47971428Y-38657142D01*
X47971428Y-38357142D02*
X48014285Y-38400000D01*
X47971428Y-38442857D01*
X47928571Y-38400000D01*
X47971428Y-38357142D01*
X47971428Y-38442857D01*
X47157142Y-38657142D02*
X47157142Y-39385714D01*
X47200000Y-39471428D01*
X47242857Y-39514285D01*
X47328571Y-39557142D01*
X47457142Y-39557142D01*
X47542857Y-39514285D01*
X47157142Y-39214285D02*
X47242857Y-39257142D01*
X47414285Y-39257142D01*
X47500000Y-39214285D01*
X47542857Y-39171428D01*
X47585714Y-39085714D01*
X47585714Y-38828571D01*
X47542857Y-38742857D01*
X47500000Y-38700000D01*
X47414285Y-38657142D01*
X47242857Y-38657142D01*
X47157142Y-38700000D01*
X46728571Y-38657142D02*
X46728571Y-39257142D01*
X46728571Y-38742857D02*
X46685714Y-38700000D01*
X46600000Y-38657142D01*
X46471428Y-38657142D01*
X46385714Y-38700000D01*
X46342857Y-38785714D01*
X46342857Y-39257142D01*
X45571428Y-39214285D02*
X45657142Y-39257142D01*
X45828571Y-39257142D01*
X45914285Y-39214285D01*
X45957142Y-39128571D01*
X45957142Y-38785714D01*
X45914285Y-38700000D01*
X45828571Y-38657142D01*
X45657142Y-38657142D01*
X45571428Y-38700000D01*
X45528571Y-38785714D01*
X45528571Y-38871428D01*
X45957142Y-38957142D01*
X44757142Y-39257142D02*
X44757142Y-38357142D01*
X44757142Y-39214285D02*
X44842857Y-39257142D01*
X45014285Y-39257142D01*
X45100000Y-39214285D01*
X45142857Y-39171428D01*
X45185714Y-39085714D01*
X45185714Y-38828571D01*
X45142857Y-38742857D01*
X45100000Y-38700000D01*
X45014285Y-38657142D01*
X44842857Y-38657142D01*
X44757142Y-38700000D01*
X43642857Y-39257142D02*
X43642857Y-38357142D01*
X43642857Y-38700000D02*
X43557142Y-38657142D01*
X43385714Y-38657142D01*
X43300000Y-38700000D01*
X43257142Y-38742857D01*
X43214285Y-38828571D01*
X43214285Y-39085714D01*
X43257142Y-39171428D01*
X43300000Y-39214285D01*
X43385714Y-39257142D01*
X43557142Y-39257142D01*
X43642857Y-39214285D01*
X42914285Y-38657142D02*
X42700000Y-39257142D01*
X42485714Y-38657142D02*
X42700000Y-39257142D01*
X42785714Y-39471428D01*
X42828571Y-39514285D01*
X42914285Y-39557142D01*
X41457142Y-39257142D02*
X41457142Y-38357142D01*
X40942857Y-39257142D01*
X40942857Y-38357142D01*
X40385714Y-39257142D02*
X40471428Y-39214285D01*
X40514285Y-39171428D01*
X40557142Y-39085714D01*
X40557142Y-38828571D01*
X40514285Y-38742857D01*
X40471428Y-38700000D01*
X40385714Y-38657142D01*
X40257142Y-38657142D01*
X40171428Y-38700000D01*
X40128571Y-38742857D01*
X40085714Y-38828571D01*
X40085714Y-39085714D01*
X40128571Y-39171428D01*
X40171428Y-39214285D01*
X40257142Y-39257142D01*
X40385714Y-39257142D01*
X39314285Y-39257142D02*
X39314285Y-38785714D01*
X39357142Y-38700000D01*
X39442857Y-38657142D01*
X39614285Y-38657142D01*
X39700000Y-38700000D01*
X39314285Y-39214285D02*
X39400000Y-39257142D01*
X39614285Y-39257142D01*
X39700000Y-39214285D01*
X39742857Y-39128571D01*
X39742857Y-39042857D01*
X39700000Y-38957142D01*
X39614285Y-38914285D01*
X39400000Y-38914285D01*
X39314285Y-38871428D01*
X38885714Y-39257142D02*
X38885714Y-38357142D01*
X38500000Y-39257142D02*
X38500000Y-38785714D01*
X38542857Y-38700000D01*
X38628571Y-38657142D01*
X38757142Y-38657142D01*
X38842857Y-38700000D01*
X38885714Y-38742857D01*
X37385714Y-39257142D02*
X37385714Y-38357142D01*
X37042857Y-38357142D01*
X36957142Y-38400000D01*
X36914285Y-38442857D01*
X36871428Y-38528571D01*
X36871428Y-38657142D01*
X36914285Y-38742857D01*
X36957142Y-38785714D01*
X37042857Y-38828571D01*
X37385714Y-38828571D01*
X36142857Y-39214285D02*
X36228571Y-39257142D01*
X36400000Y-39257142D01*
X36485714Y-39214285D01*
X36528571Y-39128571D01*
X36528571Y-38785714D01*
X36485714Y-38700000D01*
X36400000Y-38657142D01*
X36228571Y-38657142D01*
X36142857Y-38700000D01*
X36100000Y-38785714D01*
X36100000Y-38871428D01*
X36528571Y-38957142D01*
X35328571Y-39257142D02*
X35328571Y-38785714D01*
X35371428Y-38700000D01*
X35457142Y-38657142D01*
X35628571Y-38657142D01*
X35714285Y-38700000D01*
X35328571Y-39214285D02*
X35414285Y-39257142D01*
X35628571Y-39257142D01*
X35714285Y-39214285D01*
X35757142Y-39128571D01*
X35757142Y-39042857D01*
X35714285Y-38957142D01*
X35628571Y-38914285D01*
X35414285Y-38914285D01*
X35328571Y-38871428D01*
X34900000Y-39257142D02*
X34900000Y-38357142D01*
X34814285Y-38914285D02*
X34557142Y-39257142D01*
X34557142Y-38657142D02*
X34900000Y-39000000D01*
X33828571Y-39214285D02*
X33914285Y-39257142D01*
X34085714Y-39257142D01*
X34171428Y-39214285D01*
X34214285Y-39128571D01*
X34214285Y-38785714D01*
X34171428Y-38700000D01*
X34085714Y-38657142D01*
X33914285Y-38657142D01*
X33828571Y-38700000D01*
X33785714Y-38785714D01*
X33785714Y-38871428D01*
X34214285Y-38957142D01*
X45100000Y-40757142D02*
X45614285Y-40757142D01*
X45357142Y-40757142D02*
X45357142Y-39857142D01*
X45442857Y-39985714D01*
X45528571Y-40071428D01*
X45614285Y-40114285D01*
X44242857Y-40757142D02*
X44757142Y-40757142D01*
X44500000Y-40757142D02*
X44500000Y-39857142D01*
X44585714Y-39985714D01*
X44671428Y-40071428D01*
X44757142Y-40114285D01*
X43857142Y-40414285D02*
X43171428Y-40414285D01*
X42785714Y-39942857D02*
X42742857Y-39900000D01*
X42657142Y-39857142D01*
X42442857Y-39857142D01*
X42357142Y-39900000D01*
X42314285Y-39942857D01*
X42271428Y-40028571D01*
X42271428Y-40114285D01*
X42314285Y-40242857D01*
X42828571Y-40757142D01*
X42271428Y-40757142D01*
X41928571Y-39942857D02*
X41885714Y-39900000D01*
X41800000Y-39857142D01*
X41585714Y-39857142D01*
X41500000Y-39900000D01*
X41457142Y-39942857D01*
X41414285Y-40028571D01*
X41414285Y-40114285D01*
X41457142Y-40242857D01*
X41971428Y-40757142D01*
X41414285Y-40757142D01*
X41028571Y-40414285D02*
X40342857Y-40414285D01*
X39442857Y-40757142D02*
X39957142Y-40757142D01*
X39700000Y-40757142D02*
X39700000Y-39857142D01*
X39785714Y-39985714D01*
X39871428Y-40071428D01*
X39957142Y-40114285D01*
X39014285Y-40757142D02*
X38842857Y-40757142D01*
X38757142Y-40714285D01*
X38714285Y-40671428D01*
X38628571Y-40542857D01*
X38585714Y-40371428D01*
X38585714Y-40028571D01*
X38628571Y-39942857D01*
X38671428Y-39900000D01*
X38757142Y-39857142D01*
X38928571Y-39857142D01*
X39014285Y-39900000D01*
X39057142Y-39942857D01*
X39100000Y-40028571D01*
X39100000Y-40242857D01*
X39057142Y-40328571D01*
X39014285Y-40371428D01*
X38928571Y-40414285D01*
X38757142Y-40414285D01*
X38671428Y-40371428D01*
X38628571Y-40328571D01*
X38585714Y-40242857D01*
X52814285Y-59157142D02*
X52300000Y-59157142D01*
X52557142Y-60057142D02*
X52557142Y-59157142D01*
X52085714Y-59457142D02*
X51871428Y-60057142D01*
X51657142Y-59457142D02*
X51871428Y-60057142D01*
X51957142Y-60271428D01*
X52000000Y-60314285D01*
X52085714Y-60357142D01*
X51314285Y-59457142D02*
X51314285Y-60357142D01*
X51314285Y-59500000D02*
X51228571Y-59457142D01*
X51057142Y-59457142D01*
X50971428Y-59500000D01*
X50928571Y-59542857D01*
X50885714Y-59628571D01*
X50885714Y-59885714D01*
X50928571Y-59971428D01*
X50971428Y-60014285D01*
X51057142Y-60057142D01*
X51228571Y-60057142D01*
X51314285Y-60014285D01*
X50157142Y-60014285D02*
X50242857Y-60057142D01*
X50414285Y-60057142D01*
X50500000Y-60014285D01*
X50542857Y-59928571D01*
X50542857Y-59585714D01*
X50500000Y-59500000D01*
X50414285Y-59457142D01*
X50242857Y-59457142D01*
X50157142Y-59500000D01*
X50114285Y-59585714D01*
X50114285Y-59671428D01*
X50542857Y-59757142D01*
X48571428Y-60057142D02*
X49085714Y-60057142D01*
X48828571Y-60057142D02*
X48828571Y-59157142D01*
X48914285Y-59285714D01*
X49000000Y-59371428D01*
X49085714Y-59414285D01*
X47628571Y-59157142D02*
X47114285Y-59157142D01*
X47371428Y-60057142D02*
X47371428Y-59157142D01*
X46471428Y-60014285D02*
X46557142Y-60057142D01*
X46728571Y-60057142D01*
X46814285Y-60014285D01*
X46857142Y-59928571D01*
X46857142Y-59585714D01*
X46814285Y-59500000D01*
X46728571Y-59457142D01*
X46557142Y-59457142D01*
X46471428Y-59500000D01*
X46428571Y-59585714D01*
X46428571Y-59671428D01*
X46857142Y-59757142D01*
X46042857Y-60057142D02*
X46042857Y-59457142D01*
X46042857Y-59628571D02*
X46000000Y-59542857D01*
X45957142Y-59500000D01*
X45871428Y-59457142D01*
X45785714Y-59457142D01*
X45485714Y-60057142D02*
X45485714Y-59457142D01*
X45485714Y-59542857D02*
X45442857Y-59500000D01*
X45357142Y-59457142D01*
X45228571Y-59457142D01*
X45142857Y-59500000D01*
X45100000Y-59585714D01*
X45100000Y-60057142D01*
X45100000Y-59585714D02*
X45057142Y-59500000D01*
X44971428Y-59457142D01*
X44842857Y-59457142D01*
X44757142Y-59500000D01*
X44714285Y-59585714D01*
X44714285Y-60057142D01*
X44285714Y-60057142D02*
X44285714Y-59457142D01*
X44285714Y-59157142D02*
X44328571Y-59200000D01*
X44285714Y-59242857D01*
X44242857Y-59200000D01*
X44285714Y-59157142D01*
X44285714Y-59242857D01*
X43857142Y-59457142D02*
X43857142Y-60057142D01*
X43857142Y-59542857D02*
X43814285Y-59500000D01*
X43728571Y-59457142D01*
X43600000Y-59457142D01*
X43514285Y-59500000D01*
X43471428Y-59585714D01*
X43471428Y-60057142D01*
X42657142Y-60057142D02*
X42657142Y-59585714D01*
X42700000Y-59500000D01*
X42785714Y-59457142D01*
X42957142Y-59457142D01*
X43042857Y-59500000D01*
X42657142Y-60014285D02*
X42742857Y-60057142D01*
X42957142Y-60057142D01*
X43042857Y-60014285D01*
X43085714Y-59928571D01*
X43085714Y-59842857D01*
X43042857Y-59757142D01*
X42957142Y-59714285D01*
X42742857Y-59714285D01*
X42657142Y-59671428D01*
X42357142Y-59457142D02*
X42014285Y-59457142D01*
X42228571Y-59157142D02*
X42228571Y-59928571D01*
X42185714Y-60014285D01*
X42100000Y-60057142D01*
X42014285Y-60057142D01*
X41714285Y-60057142D02*
X41714285Y-59457142D01*
X41714285Y-59157142D02*
X41757142Y-59200000D01*
X41714285Y-59242857D01*
X41671428Y-59200000D01*
X41714285Y-59157142D01*
X41714285Y-59242857D01*
X41157142Y-60057142D02*
X41242857Y-60014285D01*
X41285714Y-59971428D01*
X41328571Y-59885714D01*
X41328571Y-59628571D01*
X41285714Y-59542857D01*
X41242857Y-59500000D01*
X41157142Y-59457142D01*
X41028571Y-59457142D01*
X40942857Y-59500000D01*
X40900000Y-59542857D01*
X40857142Y-59628571D01*
X40857142Y-59885714D01*
X40900000Y-59971428D01*
X40942857Y-60014285D01*
X41028571Y-60057142D01*
X41157142Y-60057142D01*
X40471428Y-59457142D02*
X40471428Y-60057142D01*
X40471428Y-59542857D02*
X40428571Y-59500000D01*
X40342857Y-59457142D01*
X40214285Y-59457142D01*
X40128571Y-59500000D01*
X40085714Y-59585714D01*
X40085714Y-60057142D01*
X38671428Y-59585714D02*
X38542857Y-59628571D01*
X38500000Y-59671428D01*
X38457142Y-59757142D01*
X38457142Y-59885714D01*
X38500000Y-59971428D01*
X38542857Y-60014285D01*
X38628571Y-60057142D01*
X38971428Y-60057142D01*
X38971428Y-59157142D01*
X38671428Y-59157142D01*
X38585714Y-59200000D01*
X38542857Y-59242857D01*
X38500000Y-59328571D01*
X38500000Y-59414285D01*
X38542857Y-59500000D01*
X38585714Y-59542857D01*
X38671428Y-59585714D01*
X38971428Y-59585714D01*
X37942857Y-60057142D02*
X38028571Y-60014285D01*
X38071428Y-59971428D01*
X38114285Y-59885714D01*
X38114285Y-59628571D01*
X38071428Y-59542857D01*
X38028571Y-59500000D01*
X37942857Y-59457142D01*
X37814285Y-59457142D01*
X37728571Y-59500000D01*
X37685714Y-59542857D01*
X37642857Y-59628571D01*
X37642857Y-59885714D01*
X37685714Y-59971428D01*
X37728571Y-60014285D01*
X37814285Y-60057142D01*
X37942857Y-60057142D01*
X36871428Y-60057142D02*
X36871428Y-59585714D01*
X36914285Y-59500000D01*
X37000000Y-59457142D01*
X37171428Y-59457142D01*
X37257142Y-59500000D01*
X36871428Y-60014285D02*
X36957142Y-60057142D01*
X37171428Y-60057142D01*
X37257142Y-60014285D01*
X37300000Y-59928571D01*
X37300000Y-59842857D01*
X37257142Y-59757142D01*
X37171428Y-59714285D01*
X36957142Y-59714285D01*
X36871428Y-59671428D01*
X36442857Y-60057142D02*
X36442857Y-59457142D01*
X36442857Y-59628571D02*
X36400000Y-59542857D01*
X36357142Y-59500000D01*
X36271428Y-59457142D01*
X36185714Y-59457142D01*
X35500000Y-60057142D02*
X35500000Y-59157142D01*
X35500000Y-60014285D02*
X35585714Y-60057142D01*
X35757142Y-60057142D01*
X35842857Y-60014285D01*
X35885714Y-59971428D01*
X35928571Y-59885714D01*
X35928571Y-59628571D01*
X35885714Y-59542857D01*
X35842857Y-59500000D01*
X35757142Y-59457142D01*
X35585714Y-59457142D01*
X35500000Y-59500000D01*
X34385714Y-60057142D02*
X34385714Y-59457142D01*
X34385714Y-59542857D02*
X34342857Y-59500000D01*
X34257142Y-59457142D01*
X34128571Y-59457142D01*
X34042857Y-59500000D01*
X34000000Y-59585714D01*
X34000000Y-60057142D01*
X34000000Y-59585714D02*
X33957142Y-59500000D01*
X33871428Y-59457142D01*
X33742857Y-59457142D01*
X33657142Y-59500000D01*
X33614285Y-59585714D01*
X33614285Y-60057142D01*
X32800000Y-60057142D02*
X32800000Y-59585714D01*
X32842857Y-59500000D01*
X32928571Y-59457142D01*
X33100000Y-59457142D01*
X33185714Y-59500000D01*
X32800000Y-60014285D02*
X32885714Y-60057142D01*
X33100000Y-60057142D01*
X33185714Y-60014285D01*
X33228571Y-59928571D01*
X33228571Y-59842857D01*
X33185714Y-59757142D01*
X33100000Y-59714285D01*
X32885714Y-59714285D01*
X32800000Y-59671428D01*
X32500000Y-59457142D02*
X32157142Y-59457142D01*
X32371428Y-59157142D02*
X32371428Y-59928571D01*
X32328571Y-60014285D01*
X32242857Y-60057142D01*
X32157142Y-60057142D01*
X31514285Y-60014285D02*
X31600000Y-60057142D01*
X31771428Y-60057142D01*
X31857142Y-60014285D01*
X31900000Y-59928571D01*
X31900000Y-59585714D01*
X31857142Y-59500000D01*
X31771428Y-59457142D01*
X31600000Y-59457142D01*
X31514285Y-59500000D01*
X31471428Y-59585714D01*
X31471428Y-59671428D01*
X31900000Y-59757142D01*
X47542857Y-61514285D02*
X47414285Y-61557142D01*
X47200000Y-61557142D01*
X47114285Y-61514285D01*
X47071428Y-61471428D01*
X47028571Y-61385714D01*
X47028571Y-61300000D01*
X47071428Y-61214285D01*
X47114285Y-61171428D01*
X47200000Y-61128571D01*
X47371428Y-61085714D01*
X47457142Y-61042857D01*
X47500000Y-61000000D01*
X47542857Y-60914285D01*
X47542857Y-60828571D01*
X47500000Y-60742857D01*
X47457142Y-60700000D01*
X47371428Y-60657142D01*
X47157142Y-60657142D01*
X47028571Y-60700000D01*
X46128571Y-61471428D02*
X46171428Y-61514285D01*
X46300000Y-61557142D01*
X46385714Y-61557142D01*
X46514285Y-61514285D01*
X46600000Y-61428571D01*
X46642857Y-61342857D01*
X46685714Y-61171428D01*
X46685714Y-61042857D01*
X46642857Y-60871428D01*
X46600000Y-60785714D01*
X46514285Y-60700000D01*
X46385714Y-60657142D01*
X46300000Y-60657142D01*
X46171428Y-60700000D01*
X46128571Y-60742857D01*
X45742857Y-61557142D02*
X45742857Y-60657142D01*
X45314285Y-61557142D02*
X45314285Y-60657142D01*
X44971428Y-60657142D01*
X44885714Y-60700000D01*
X44842857Y-60742857D01*
X44800000Y-60828571D01*
X44800000Y-60957142D01*
X44842857Y-61042857D01*
X44885714Y-61085714D01*
X44971428Y-61128571D01*
X45314285Y-61128571D01*
X44414285Y-61557142D02*
X44414285Y-60657142D01*
X44071428Y-60657142D01*
X43985714Y-60700000D01*
X43942857Y-60742857D01*
X43900000Y-60828571D01*
X43900000Y-60957142D01*
X43942857Y-61042857D01*
X43985714Y-61085714D01*
X44071428Y-61128571D01*
X44414285Y-61128571D01*
X42828571Y-61557142D02*
X42828571Y-60657142D01*
X42528571Y-60657142D02*
X42014285Y-60657142D01*
X42271428Y-61557142D02*
X42271428Y-60657142D01*
X41714285Y-61557142D02*
X41714285Y-60657142D01*
X41628571Y-61214285D02*
X41371428Y-61557142D01*
X41371428Y-60957142D02*
X41714285Y-61300000D01*
X40300000Y-61557142D02*
X40300000Y-60657142D01*
X39957142Y-60657142D01*
X39871428Y-60700000D01*
X39828571Y-60742857D01*
X39785714Y-60828571D01*
X39785714Y-60957142D01*
X39828571Y-61042857D01*
X39871428Y-61085714D01*
X39957142Y-61128571D01*
X40300000Y-61128571D01*
X39400000Y-61557142D02*
X39400000Y-60957142D01*
X39400000Y-60657142D02*
X39442857Y-60700000D01*
X39400000Y-60742857D01*
X39357142Y-60700000D01*
X39400000Y-60657142D01*
X39400000Y-60742857D01*
X39057142Y-61557142D02*
X38585714Y-60957142D01*
X39057142Y-60957142D02*
X38585714Y-61557142D01*
X37900000Y-61514285D02*
X37985714Y-61557142D01*
X38157142Y-61557142D01*
X38242857Y-61514285D01*
X38285714Y-61428571D01*
X38285714Y-61085714D01*
X38242857Y-61000000D01*
X38157142Y-60957142D01*
X37985714Y-60957142D01*
X37900000Y-61000000D01*
X37857142Y-61085714D01*
X37857142Y-61171428D01*
X38285714Y-61257142D01*
X37342857Y-61557142D02*
X37428571Y-61514285D01*
X37471428Y-61428571D01*
X37471428Y-60657142D01*
X37042857Y-61514285D02*
X36957142Y-61557142D01*
X36785714Y-61557142D01*
X36700000Y-61514285D01*
X36657142Y-61428571D01*
X36657142Y-61385714D01*
X36700000Y-61300000D01*
X36785714Y-61257142D01*
X36914285Y-61257142D01*
X37000000Y-61214285D01*
X37042857Y-61128571D01*
X37042857Y-61085714D01*
X37000000Y-61000000D01*
X36914285Y-60957142D01*
X36785714Y-60957142D01*
X36700000Y-61000000D01*
X50371428Y-63057142D02*
X50371428Y-62157142D01*
X50157142Y-62157142D01*
X50028571Y-62200000D01*
X49942857Y-62285714D01*
X49900000Y-62371428D01*
X49857142Y-62542857D01*
X49857142Y-62671428D01*
X49900000Y-62842857D01*
X49942857Y-62928571D01*
X50028571Y-63014285D01*
X50157142Y-63057142D01*
X50371428Y-63057142D01*
X49128571Y-63014285D02*
X49214285Y-63057142D01*
X49385714Y-63057142D01*
X49471428Y-63014285D01*
X49514285Y-62928571D01*
X49514285Y-62585714D01*
X49471428Y-62500000D01*
X49385714Y-62457142D01*
X49214285Y-62457142D01*
X49128571Y-62500000D01*
X49085714Y-62585714D01*
X49085714Y-62671428D01*
X49514285Y-62757142D01*
X48742857Y-63014285D02*
X48657142Y-63057142D01*
X48485714Y-63057142D01*
X48400000Y-63014285D01*
X48357142Y-62928571D01*
X48357142Y-62885714D01*
X48400000Y-62800000D01*
X48485714Y-62757142D01*
X48614285Y-62757142D01*
X48700000Y-62714285D01*
X48742857Y-62628571D01*
X48742857Y-62585714D01*
X48700000Y-62500000D01*
X48614285Y-62457142D01*
X48485714Y-62457142D01*
X48400000Y-62500000D01*
X47971428Y-63057142D02*
X47971428Y-62457142D01*
X47971428Y-62157142D02*
X48014285Y-62200000D01*
X47971428Y-62242857D01*
X47928571Y-62200000D01*
X47971428Y-62157142D01*
X47971428Y-62242857D01*
X47157142Y-62457142D02*
X47157142Y-63185714D01*
X47200000Y-63271428D01*
X47242857Y-63314285D01*
X47328571Y-63357142D01*
X47457142Y-63357142D01*
X47542857Y-63314285D01*
X47157142Y-63014285D02*
X47242857Y-63057142D01*
X47414285Y-63057142D01*
X47500000Y-63014285D01*
X47542857Y-62971428D01*
X47585714Y-62885714D01*
X47585714Y-62628571D01*
X47542857Y-62542857D01*
X47500000Y-62500000D01*
X47414285Y-62457142D01*
X47242857Y-62457142D01*
X47157142Y-62500000D01*
X46728571Y-62457142D02*
X46728571Y-63057142D01*
X46728571Y-62542857D02*
X46685714Y-62500000D01*
X46600000Y-62457142D01*
X46471428Y-62457142D01*
X46385714Y-62500000D01*
X46342857Y-62585714D01*
X46342857Y-63057142D01*
X45571428Y-63014285D02*
X45657142Y-63057142D01*
X45828571Y-63057142D01*
X45914285Y-63014285D01*
X45957142Y-62928571D01*
X45957142Y-62585714D01*
X45914285Y-62500000D01*
X45828571Y-62457142D01*
X45657142Y-62457142D01*
X45571428Y-62500000D01*
X45528571Y-62585714D01*
X45528571Y-62671428D01*
X45957142Y-62757142D01*
X44757142Y-63057142D02*
X44757142Y-62157142D01*
X44757142Y-63014285D02*
X44842857Y-63057142D01*
X45014285Y-63057142D01*
X45100000Y-63014285D01*
X45142857Y-62971428D01*
X45185714Y-62885714D01*
X45185714Y-62628571D01*
X45142857Y-62542857D01*
X45100000Y-62500000D01*
X45014285Y-62457142D01*
X44842857Y-62457142D01*
X44757142Y-62500000D01*
X43642857Y-63057142D02*
X43642857Y-62157142D01*
X43642857Y-62500000D02*
X43557142Y-62457142D01*
X43385714Y-62457142D01*
X43300000Y-62500000D01*
X43257142Y-62542857D01*
X43214285Y-62628571D01*
X43214285Y-62885714D01*
X43257142Y-62971428D01*
X43300000Y-63014285D01*
X43385714Y-63057142D01*
X43557142Y-63057142D01*
X43642857Y-63014285D01*
X42914285Y-62457142D02*
X42700000Y-63057142D01*
X42485714Y-62457142D02*
X42700000Y-63057142D01*
X42785714Y-63271428D01*
X42828571Y-63314285D01*
X42914285Y-63357142D01*
X41457142Y-63057142D02*
X41457142Y-62157142D01*
X40942857Y-63057142D01*
X40942857Y-62157142D01*
X40385714Y-63057142D02*
X40471428Y-63014285D01*
X40514285Y-62971428D01*
X40557142Y-62885714D01*
X40557142Y-62628571D01*
X40514285Y-62542857D01*
X40471428Y-62500000D01*
X40385714Y-62457142D01*
X40257142Y-62457142D01*
X40171428Y-62500000D01*
X40128571Y-62542857D01*
X40085714Y-62628571D01*
X40085714Y-62885714D01*
X40128571Y-62971428D01*
X40171428Y-63014285D01*
X40257142Y-63057142D01*
X40385714Y-63057142D01*
X39314285Y-63057142D02*
X39314285Y-62585714D01*
X39357142Y-62500000D01*
X39442857Y-62457142D01*
X39614285Y-62457142D01*
X39700000Y-62500000D01*
X39314285Y-63014285D02*
X39400000Y-63057142D01*
X39614285Y-63057142D01*
X39700000Y-63014285D01*
X39742857Y-62928571D01*
X39742857Y-62842857D01*
X39700000Y-62757142D01*
X39614285Y-62714285D01*
X39400000Y-62714285D01*
X39314285Y-62671428D01*
X38885714Y-63057142D02*
X38885714Y-62157142D01*
X38500000Y-63057142D02*
X38500000Y-62585714D01*
X38542857Y-62500000D01*
X38628571Y-62457142D01*
X38757142Y-62457142D01*
X38842857Y-62500000D01*
X38885714Y-62542857D01*
X37385714Y-63057142D02*
X37385714Y-62157142D01*
X37042857Y-62157142D01*
X36957142Y-62200000D01*
X36914285Y-62242857D01*
X36871428Y-62328571D01*
X36871428Y-62457142D01*
X36914285Y-62542857D01*
X36957142Y-62585714D01*
X37042857Y-62628571D01*
X37385714Y-62628571D01*
X36142857Y-63014285D02*
X36228571Y-63057142D01*
X36400000Y-63057142D01*
X36485714Y-63014285D01*
X36528571Y-62928571D01*
X36528571Y-62585714D01*
X36485714Y-62500000D01*
X36400000Y-62457142D01*
X36228571Y-62457142D01*
X36142857Y-62500000D01*
X36100000Y-62585714D01*
X36100000Y-62671428D01*
X36528571Y-62757142D01*
X35328571Y-63057142D02*
X35328571Y-62585714D01*
X35371428Y-62500000D01*
X35457142Y-62457142D01*
X35628571Y-62457142D01*
X35714285Y-62500000D01*
X35328571Y-63014285D02*
X35414285Y-63057142D01*
X35628571Y-63057142D01*
X35714285Y-63014285D01*
X35757142Y-62928571D01*
X35757142Y-62842857D01*
X35714285Y-62757142D01*
X35628571Y-62714285D01*
X35414285Y-62714285D01*
X35328571Y-62671428D01*
X34900000Y-63057142D02*
X34900000Y-62157142D01*
X34814285Y-62714285D02*
X34557142Y-63057142D01*
X34557142Y-62457142D02*
X34900000Y-62800000D01*
X33828571Y-63014285D02*
X33914285Y-63057142D01*
X34085714Y-63057142D01*
X34171428Y-63014285D01*
X34214285Y-62928571D01*
X34214285Y-62585714D01*
X34171428Y-62500000D01*
X34085714Y-62457142D01*
X33914285Y-62457142D01*
X33828571Y-62500000D01*
X33785714Y-62585714D01*
X33785714Y-62671428D01*
X34214285Y-62757142D01*
X45100000Y-64557142D02*
X45614285Y-64557142D01*
X45357142Y-64557142D02*
X45357142Y-63657142D01*
X45442857Y-63785714D01*
X45528571Y-63871428D01*
X45614285Y-63914285D01*
X44242857Y-64557142D02*
X44757142Y-64557142D01*
X44500000Y-64557142D02*
X44500000Y-63657142D01*
X44585714Y-63785714D01*
X44671428Y-63871428D01*
X44757142Y-63914285D01*
X43857142Y-64214285D02*
X43171428Y-64214285D01*
X42785714Y-63742857D02*
X42742857Y-63700000D01*
X42657142Y-63657142D01*
X42442857Y-63657142D01*
X42357142Y-63700000D01*
X42314285Y-63742857D01*
X42271428Y-63828571D01*
X42271428Y-63914285D01*
X42314285Y-64042857D01*
X42828571Y-64557142D01*
X42271428Y-64557142D01*
X41928571Y-63742857D02*
X41885714Y-63700000D01*
X41800000Y-63657142D01*
X41585714Y-63657142D01*
X41500000Y-63700000D01*
X41457142Y-63742857D01*
X41414285Y-63828571D01*
X41414285Y-63914285D01*
X41457142Y-64042857D01*
X41971428Y-64557142D01*
X41414285Y-64557142D01*
X41028571Y-64214285D02*
X40342857Y-64214285D01*
X39442857Y-64557142D02*
X39957142Y-64557142D01*
X39700000Y-64557142D02*
X39700000Y-63657142D01*
X39785714Y-63785714D01*
X39871428Y-63871428D01*
X39957142Y-63914285D01*
X39014285Y-64557142D02*
X38842857Y-64557142D01*
X38757142Y-64514285D01*
X38714285Y-64471428D01*
X38628571Y-64342857D01*
X38585714Y-64171428D01*
X38585714Y-63828571D01*
X38628571Y-63742857D01*
X38671428Y-63700000D01*
X38757142Y-63657142D01*
X38928571Y-63657142D01*
X39014285Y-63700000D01*
X39057142Y-63742857D01*
X39100000Y-63828571D01*
X39100000Y-64042857D01*
X39057142Y-64128571D01*
X39014285Y-64171428D01*
X38928571Y-64214285D01*
X38757142Y-64214285D01*
X38671428Y-64171428D01*
X38628571Y-64128571D01*
X38585714Y-64042857D01*
M02*
