M48
; DRILL file {KiCad (5.1.4)-1} date 11/22/2019 2:34:34 PM
; FORMAT={-:-/ absolute / inch / decimal}
; #@! TF.CreationDate,2019-11-22T14:34:34-08:00
; #@! TF.GenerationSoftware,Kicad,Pcbnew,(5.1.4)-1
; #@! TF.FileFunction,Plated,1,2,PTH
FMAT,2
INCH
T1C0.0157
T2C0.0315
T3C0.0354
T4C0.0709
T5C0.0787
%
G90
G05
T1
X0.6535Y-0.6339
X0.6535Y-1.0984
X0.6535Y-1.3346
X0.6535Y-1.7992
X0.6535Y-2.2717
X0.6535Y-2.7362
X0.6929Y-0.6339
X0.6929Y-1.0984
X0.6929Y-1.3346
X0.6929Y-1.7992
X0.6929Y-2.2717
X0.6929Y-2.7362
X0.7323Y-0.6339
X0.7323Y-1.0984
X0.7323Y-1.3346
X0.7323Y-1.7992
X0.7323Y-2.2717
X0.7323Y-2.7362
X0.7717Y-0.6339
X0.7717Y-1.0984
X0.7717Y-1.3346
X0.7717Y-1.7992
X0.7717Y-2.2717
X0.7717Y-2.7362
X0.811Y-0.6339
X0.811Y-1.0984
X0.811Y-1.3346
X0.811Y-1.7992
X0.811Y-2.2717
X0.811Y-2.7362
X0.8504Y-0.6339
X0.8504Y-1.0984
X0.8504Y-1.3346
X0.8504Y-1.7992
X0.8504Y-2.2717
X0.8504Y-2.7362
X0.8898Y-0.6339
X0.8898Y-1.0984
X0.8898Y-1.3346
X0.8898Y-1.7992
X0.8898Y-2.2717
X0.8898Y-2.7362
X0.9291Y-0.6339
X0.9291Y-1.0984
X0.9291Y-1.3346
X0.9291Y-1.7992
X0.9291Y-2.2717
X0.9291Y-2.7362
X0.9685Y-0.6339
X0.9685Y-1.0984
X0.9685Y-1.3346
X0.9685Y-1.7992
X0.9685Y-2.2717
X0.9685Y-2.7362
X1.0079Y-0.6339
X1.0079Y-1.0984
X1.0079Y-1.3346
X1.0079Y-1.7992
X1.0079Y-2.2717
X1.0079Y-2.7362
X2.3307Y-0.7008
X2.3307Y-0.7795
X2.3307Y-0.8583
X2.3307Y-0.937
X2.3307Y-1.4016
X2.3307Y-1.4803
X2.3307Y-1.5591
X2.3307Y-1.6378
X2.3307Y-2.3386
X2.3307Y-2.4173
X2.3307Y-2.4961
X2.3307Y-2.5748
X2.8543Y-2.2835
X2.8543Y-2.3228
X2.8543Y-2.3622
X2.8543Y-2.4016
X2.8543Y-2.4409
X2.8543Y-2.4803
X2.8543Y-2.5197
X2.8543Y-2.5591
X2.8543Y-2.5984
X2.8543Y-2.6378
X2.9173Y-0.9646
X2.9961Y-0.9646
X3.0748Y-0.9646
X3.1535Y-0.9646
X3.3189Y-2.2835
X3.3189Y-2.3228
X3.3189Y-2.3622
X3.3189Y-2.4016
X3.3189Y-2.4409
X3.3189Y-2.4803
X3.3189Y-2.5197
X3.3189Y-2.5591
X3.3189Y-2.5984
X3.3189Y-2.6378
X3.5512Y-2.2835
X3.5512Y-2.3228
X3.5512Y-2.3622
X3.5512Y-2.4016
X3.5512Y-2.4409
X3.5512Y-2.4803
X3.5512Y-2.5197
X3.5512Y-2.5591
X3.5512Y-2.5984
X3.5512Y-2.6378
X3.6142Y-0.9646
X3.6929Y-0.9646
X3.7717Y-0.9646
X3.8504Y-0.9646
X4.0157Y-2.2835
X4.0157Y-2.3228
X4.0157Y-2.3622
X4.0157Y-2.4016
X4.0157Y-2.4409
X4.0157Y-2.4803
X4.0157Y-2.5197
X4.0157Y-2.5591
X4.0157Y-2.5984
X4.0157Y-2.6378
X4.2441Y-2.2835
X4.2441Y-2.3228
X4.2441Y-2.3622
X4.2441Y-2.4016
X4.2441Y-2.4409
X4.2441Y-2.4803
X4.2441Y-2.5197
X4.2441Y-2.5591
X4.2441Y-2.5984
X4.2441Y-2.6378
X4.3071Y-0.9646
X4.3858Y-0.9646
X4.4646Y-0.9646
X4.5433Y-0.9646
X4.7087Y-2.2835
X4.7087Y-2.3228
X4.7087Y-2.3622
X4.7087Y-2.4016
X4.7087Y-2.4409
X4.7087Y-2.4803
X4.7087Y-2.5197
X4.7087Y-2.5591
X4.7087Y-2.5984
X4.7087Y-2.6378
X4.9252Y-0.5433
X4.9252Y-1.063
X4.9252Y-1.2441
X4.9252Y-1.7638
X4.937Y-2.1969
X4.937Y-2.7165
X4.9724Y-0.5433
X4.9724Y-1.063
X4.9724Y-1.2441
X4.9724Y-1.7638
X4.9843Y-2.1969
X4.9843Y-2.7165
X5.0197Y-0.5433
X5.0197Y-1.063
X5.0197Y-1.2441
X5.0197Y-1.7638
X5.0315Y-2.1969
X5.0315Y-2.7165
X5.0669Y-0.5433
X5.0669Y-1.063
X5.0669Y-1.2441
X5.0669Y-1.7638
X5.0787Y-2.1969
X5.0787Y-2.7165
X5.1142Y-0.5433
X5.1142Y-1.063
X5.1142Y-1.2441
X5.1142Y-1.7638
X5.126Y-2.1969
X5.126Y-2.7165
X5.1614Y-0.5433
X5.1614Y-1.063
X5.1614Y-1.2441
X5.1614Y-1.7638
X5.1732Y-2.1969
X5.1732Y-2.7165
X5.2087Y-0.5433
X5.2087Y-1.063
X5.2087Y-1.2441
X5.2087Y-1.7638
X5.2205Y-2.1969
X5.2205Y-2.7165
X5.2559Y-0.5433
X5.2559Y-1.063
X5.2559Y-1.2441
X5.2559Y-1.7638
X5.2677Y-2.1969
X5.2677Y-2.7165
X5.3031Y-0.5433
X5.3031Y-1.063
X5.3031Y-1.2441
X5.3031Y-1.7638
X5.315Y-2.1969
X5.315Y-2.7165
X5.3504Y-0.5433
X5.3504Y-1.063
X5.3504Y-1.2441
X5.3504Y-1.7638
X5.3622Y-2.1969
X5.3622Y-2.7165
X5.6496Y-0.5709
X5.6496Y-1.0906
X5.6496Y-1.2717
X5.6496Y-1.7913
X5.6496Y-2.1969
X5.6496Y-2.7165
X5.6969Y-0.5709
X5.6969Y-1.0906
X5.6969Y-1.2717
X5.6969Y-1.7913
X5.6969Y-2.1969
X5.6969Y-2.7165
X5.7441Y-0.5709
X5.7441Y-1.0906
X5.7441Y-1.2717
X5.7441Y-1.7913
X5.7441Y-2.1969
X5.7441Y-2.7165
X5.7913Y-0.5709
X5.7913Y-1.0906
X5.7913Y-1.2717
X5.7913Y-1.7913
X5.7913Y-2.1969
X5.7913Y-2.7165
X5.8386Y-0.5709
X5.8386Y-1.0906
X5.8386Y-1.2717
X5.8386Y-1.7913
X5.8386Y-2.1969
X5.8386Y-2.7165
X5.8858Y-0.5709
X5.8858Y-1.0906
X5.8858Y-1.2717
X5.8858Y-1.7913
X5.8858Y-2.1969
X5.8858Y-2.7165
X5.9331Y-0.5709
X5.9331Y-1.0906
X5.9331Y-1.2717
X5.9331Y-1.7913
X5.9331Y-2.1969
X5.9331Y-2.7165
X5.9803Y-0.5709
X5.9803Y-1.0906
X5.9803Y-1.2717
X5.9803Y-1.7913
X5.9803Y-2.1969
X5.9803Y-2.7165
X6.0276Y-0.5709
X6.0276Y-1.0906
X6.0276Y-1.2717
X6.0276Y-1.7913
X6.0276Y-2.1969
X6.0276Y-2.7165
X6.0748Y-0.5709
X6.0748Y-1.0906
X6.0748Y-1.2717
X6.0748Y-1.7913
X6.0748Y-2.1969
X6.0748Y-2.7165
X6.3622Y-0.5709
X6.3622Y-1.0906
X6.3622Y-1.2717
X6.3622Y-1.7913
X6.3622Y-2.1969
X6.3622Y-2.7165
X6.4094Y-0.5709
X6.4094Y-1.0906
X6.4094Y-1.2717
X6.4094Y-1.7913
X6.4094Y-2.1969
X6.4094Y-2.7165
X6.4567Y-0.5709
X6.4567Y-1.0906
X6.4567Y-1.2717
X6.4567Y-1.7913
X6.4567Y-2.1969
X6.4567Y-2.7165
X6.5039Y-0.5709
X6.5039Y-1.0906
X6.5039Y-1.2717
X6.5039Y-1.7913
X6.5039Y-2.1969
X6.5039Y-2.7165
X6.5512Y-0.5709
X6.5512Y-1.0906
X6.5512Y-1.2717
X6.5512Y-1.7913
X6.5512Y-2.1969
X6.5512Y-2.7165
X6.5984Y-0.5709
X6.5984Y-1.0906
X6.5984Y-1.2717
X6.5984Y-1.7913
X6.5984Y-2.1969
X6.5984Y-2.7165
X6.6457Y-0.5709
X6.6457Y-1.0906
X6.6457Y-1.2717
X6.6457Y-1.7913
X6.6457Y-2.1969
X6.6457Y-2.7165
X6.6929Y-0.5709
X6.6929Y-1.0906
X6.6929Y-1.2717
X6.6929Y-1.7913
X6.6929Y-2.1969
X6.6929Y-2.7165
X6.7402Y-0.5709
X6.7402Y-1.0906
X6.7402Y-1.2717
X6.7402Y-1.7913
X6.7402Y-2.1969
X6.7402Y-2.7165
X6.7874Y-0.5709
X6.7874Y-1.0906
X6.7874Y-1.2717
X6.7874Y-1.7913
X6.7874Y-2.1969
X6.7874Y-2.7165
T2
X3.1142Y-1.372
X3.1339Y-1.9114
X3.1929Y-1.372
X3.2126Y-1.9114
X2.437Y-1.25
X2.4567Y-1.7894
X2.5157Y-1.25
X2.5354Y-1.7894
X4.5039Y-1.372
X4.5236Y-1.9114
X4.5827Y-1.372
X4.6024Y-1.9114
X3.4626Y-0.7795
X3.4626Y-0.8583
X4.002Y-0.7598
X4.002Y-0.8386
X2.437Y-0.5492
X2.4567Y-1.0886
X2.5157Y-0.5492
X2.5354Y-1.0886
X2.7657Y-0.7795
X2.7657Y-0.8583
X3.3051Y-0.7598
X3.3051Y-0.8386
X1.3799Y-2.5512
X1.3799Y-2.6299
X1.9193Y-2.5315
X1.9193Y-2.6102
X1.3799Y-1.6142
X1.3799Y-1.6929
X1.9193Y-1.5945
X1.9193Y-1.6732
X4.1555Y-0.7795
X4.1555Y-0.8583
X4.6949Y-0.7598
X4.6949Y-0.8386
X1.3799Y-0.9134
X1.3799Y-0.9921
X1.9193Y-0.8937
X1.9193Y-0.9724
X2.437Y-2.187
X2.4567Y-2.7264
X2.5157Y-2.187
X2.5354Y-2.7264
X3.811Y-1.372
X3.8307Y-1.9114
X3.8898Y-1.372
X3.9094Y-1.9114
T3
X0.7047Y-0.8661
X0.9567Y-0.8661
X6.4488Y-1.5315
X6.7008Y-1.5315
X6.4488Y-2.4567
X6.7008Y-2.4567
X5.0236Y-2.4567
X5.2756Y-2.4567
X0.7047Y-1.5669
X0.9567Y-1.5669
X3.0866Y-2.3346
X3.0866Y-2.5866
X0.7047Y-2.5039
X0.9567Y-2.5039
X6.4488Y-0.8307
X6.7008Y-0.8307
X5.7362Y-0.8307
X5.9882Y-0.8307
X3.7835Y-2.3346
X3.7835Y-2.5866
X4.4764Y-2.3346
X4.4764Y-2.5866
X5.0118Y-1.5039
X5.2638Y-1.5039
X5.0118Y-0.8031
X5.2638Y-0.8031
X5.7362Y-1.5315
X5.9882Y-1.5315
X5.7362Y-2.4567
X5.9882Y-2.4567
T4
X0.5512Y-0.5591
X4.1693Y-2.185
X2.2244Y-2.1929
X3.4724Y-1.0669
X2.7795Y-2.185
X2.2244Y-1.752
X1.1063Y-1.2598
X0.5512Y-1.2598
X2.2244Y-0.5551
X2.2244Y-1.2559
X4.6614Y-1.0669
X3.9685Y-1.0669
X1.1063Y-2.1969
X3.2717Y-1.0669
X2.2244Y-2.689
X2.2244Y-1.0512
X4.1654Y-1.0669
X3.4764Y-2.185
X4.1693Y-2.7402
X3.4764Y-2.7402
X2.7756Y-1.0669
X1.1063Y-0.5591
X2.7795Y-2.7402
X0.5512Y-2.1969
T5
X2.8268Y-1.9961
X1.5315Y-2.2441
X1.7677Y-1.3071
X3.5236Y-1.7598
X3.5236Y-1.2874
X1.5315Y-0.6063
X4.2165Y-1.9961
X2.0039Y-0.6063
X2.8268Y-1.2874
X1.2953Y-2.2441
X4.2165Y-1.5236
X2.8268Y-1.7598
X2.8268Y-1.5236
X2.0039Y-1.3071
X1.7677Y-2.2441
X3.5236Y-1.9961
X2.0039Y-2.2441
X1.7677Y-0.6063
X3.5236Y-1.5236
X1.2953Y-0.6063
X1.2953Y-1.3071
X4.2165Y-1.2874
X1.5315Y-1.3071
X4.2165Y-1.7598
T0
M30
